<svg xmlns="http://www.w3.org/2000/svg" viewBox="0 0 425.2 425.2"><path d="M342.8 208.1L320.1 123 16.5 204.7 43.3 305c2.1 8.9 11 13.7 19.9 11.7l4.1-1.4V208.2h14.4c-.6-.1 261.1-.1 261.1-.1zM304.3 64.6c-2.1-8.9-11-13.7-19.9-11.7L11.7 125.7c-8.2 2.1-13.7 11-11 19.9l4.8 17.2 303.6-81.1-4.8-17.1z"/><path d="M81.1 222.6V373h344.1V222.6H81.1zm171.7 136.7c-28.2 0-50.8-27.5-50.8-61.1 0-6.9.7-13.7 2.7-19.9 6.9-24 26.1-41.9 48.1-41.9 14.4 0 27.5 7.6 37.1 19.2 8.9 11 14.4 26.1 14.4 42.6 0 33.6-23.4 61.1-51.5 61.1z"/><path d="M254.8 301.6v15.8c2.1 0 3.4-.7 4.8-1.4 1.4-1.4 2.7-3.4 2.7-6.2 0-2.1-.7-4.1-2.1-5.5-1.2-.7-2.6-2.1-5.4-2.7zm-10.3-20c0 2.1.7 4.1 2.7 5.5.7.7 2.1 1.4 4.1 2.1v-14.4c-2.1 0-4.1.7-5.5 2.1-1.3 1.3-1.3 2.7-1.3 4.7z"/><path d="M252.8 250.7c-13.7 0-25.4 8.9-31.6 22.7-3.4 6.9-5.5 15.1-5.5 24 0 26.1 16.5 47.4 37.1 47.4s37.1-21.3 37.1-47.4c0-15.8-6.2-29.5-15.8-38.5-5.5-4.7-13.1-8.2-21.3-8.2zm13 72.8c-2.7 2.1-6.9 2.7-11 3.4v8.2h-4.1V327c-5.5-.7-9.6-2.1-11.7-3.4-4.8-3.4-6.9-8.2-6.9-15.8h11c.7 3.4.7 5.5 1.4 6.9 1.4 2.1 3.4 2.7 6.2 3.4v-17.2l-3.4-.7c-5.5-1.4-8.9-3.4-11-6.2-2.1-2.7-2.7-6.9-2.7-11 0-2.7.7-4.8 1.4-6.9.7-2.1 2.1-4.1 3.4-5.5 1.4-1.4 3.4-2.7 5.5-3.4 0 0 .7 0 .7-.7.7 0 2.1-.7 2.7-.7.7 0 2.1 0 3.4-.7V261h4.1v5.5c4.1.7 7.6 1.4 10.3 3.4 4.8 2.7 6.9 7.6 6.9 13.7h-11c0-2.1-.7-4.1-1.4-5.5-.7-2.1-2.7-2.7-5.5-3.4v15.8c6.2 2.1 11 4.1 13.1 6.2 3.4 2.7 5.5 6.9 5.5 11.7.7 6.9-2.1 11.7-6.9 15.1z"/></svg>