<svg xmlns="http://www.w3.org/2000/svg" id="Слой_1" viewBox="0 0 50.599998 41.000002" width="50.6" height="41"><style id="style3">.st0{fill:#666}.st1{display:none;enable-background:new}.st2{font-family:&apos;Arial-BoldMT&apos;}.st3{font-size:5px}</style><g id="g5" transform="translate(-12 -16.2)"><path class="st0" d="M55.6 57.2H18.3c-3.3 0-6.3-3-6.3-6.3v-28c0-3.7 3-6.7 6.7-6.7h37.2c3.7 0 6.7 3 6.7 6.7v27.9c-.4 3.4-3.3 6.4-7 6.4zM18.7 20c-1.9 0-3 1.1-3 3v27.9c0 1.5 1.1 2.6 3 2.6h37.2c1.5 0 3-1.1 3-3V22.9c0-1.5-1.1-3-3-3 0 .1-37.2.1-37.2.1z" id="path7" fill="#666"/></g><g id="g9" transform="translate(-12 -16.2)"><path class="st0" d="M41 49.7c-7.4 0-13-6-13-13 0-7.4 5.6-13 13-13 7.1 0 13 6 13 13s-5.9 13-13 13zm0-22.3c-5.2 0-9.3 4.1-9.3 9.3 0 5.2 4.1 9.3 9.3 9.3 5.2 0 9.3-4.1 9.3-9.3 0-5.2-4-9.3-9.3-9.3z" id="path11" fill="#666"/></g><g id="g13" transform="translate(-12 -16.2)"><path class="st0" d="M22.8 29.3H21c-1.1 0-1.9-.7-1.9-1.9v-1.9c0-1.1.7-1.9 1.9-1.9h1.9c1.1 0 1.9.7 1.9 1.9v1.9c-.1 1.1-1.2 1.9-2 1.9z" id="path15" fill="#666"/></g></svg>