<svg xmlns="http://www.w3.org/2000/svg" id="Слой_1" viewBox="0 0 32.505841 24" width="32.506" height="24"><style id="style3">.st0,.st1{fill:#666}.st1{display:none}</style><g id="g5" transform="translate(-5.7 -8)"><path class="st0" d="M14.3 32c-2.2 0-4-1.8-4-4s1.8-4 4-4 4 1.8 4 4-1.8 4-4 4zm0-6c-1.1 0-2 .9-2 2s.9 2 2 2 2-.9 2-2-.9-2-2-2z" id="path7" fill="#666"/><path class="st0" d="M31.3 32c-2.2 0-4-1.8-4-4s1.8-4 4-4 4 1.8 4 4-1.8 4-4 4zm0-6c-1.1 0-2 .9-2 2s.9 2 2 2 2-.9 2-2-.9-2-2-2z" id="path9" fill="#666"/><path class="st0" d="M5.7 8h18c1.4 0 2.5 1.1 2.5 2.5V28c0 .6-.4 1-1 1s-1-.4-1-1V10.5c0-.3-.2-.5-.5-.5h-18" id="path11" fill="#666"/><path class="st0" d="M7.7 27h3.5c.6 0 1 .4 1 1s-.4 1-1 1H7.7" id="path13" fill="#666"/><path class="st0" d="M35.8 29h-1.5c-.6 0-1-.4-1-1s.4-1 1-1h1.5c.3 0 .5-.2.5-.5v-7.2c0-.5-.2-1-.7-1.4l-4.2-3.5c-.3-.3-.7-.4-1.2-.4h-5c-.6 0-1-.4-1-1s.4-1 1-1h5c.9 0 1.8.3 2.4.9l4.2 3.5c.9.7 1.4 1.8 1.4 2.9v7.2c.1 1.4-1.1 2.5-2.4 2.5z" id="path19" fill="#666"/><path class="st0" d="M28.3 29h-10c-.6 0-1-.4-1-1s.4-1 1-1h10c.6 0 1 .4 1 1s-.5 1-1 1z" id="path21" fill="#666"/></g></svg>