<svg xmlns="http://www.w3.org/2000/svg" viewBox="0 0 425.2 425.2"><g fill="#C9B182"><path d="M351.1 326.4c-.4-13.2-4-26-8.7-38.6s-10.8-24.8-17.7-36.9c-5.9-10.3-12.2-20.4-19.2-30.4.7-1 1.1-2 1.1-3.1 0-9.4-28.9-15.3-63.7-17.4-.8 1.8-1.7 3.5-2.8 5.1 36.7 2 58.9 8 58.9 12.3 0 5.3-33.5 13-85.9 13-52.5 0-86-7.7-86-13 0-4.3 21.7-10.1 57.6-12.2-1.1-1.6-2-3.3-2.8-5.1-34.2 2.2-62.4 8-62.4 17.3 0 1.2.5 2.3 1.4 3.4-9.2 12.9-17.4 26.2-24.7 39.8-7.9 14.7-14.5 29.9-18.6 45.4-2 7.8-3.4 15.7-3.5 23.7 0 8 1.2 16.2 5.9 23.8 2.4 3.8 5.7 7.4 10.1 10.4 4.3 2.8 8.7 5.5 13.4 7.8 9 4.5 18.9 8.6 30.4 10.6-5.4 5.1-10.6 10.3-15.9 15.5l-1.3 1.3 2.4.6c15.2 3.6 30.8 6.1 46.5 8 15.8 1.9 31.7 2.9 47.8 3.2 16 .2 32.1-.4 48-2.2 15.9-1.7 31.5-4.7 46.2-9l2.2-.6-1.2-1.2c-5.3-5.2-10.5-10.4-15.9-15.5 8.2-1.4 15.3-4.2 21.8-7.4 3.4-1.7 6.7-3.6 9.8-5.5 3.1-1.9 5.9-3.9 8.7-6.1 7.7-4.6 12.6-10.9 15.1-17.3 2.5-6.5 3.2-13.1 3-19.7zM136 396.6c-.2 1-.4 2.1-.4 3.2-4.5-.6-9-1.3-13.4-2 4-5.1 8.1-10.1 12-15.2.3.1.6.1 1 .2l.3.1h9.5c-1.2 1-2.3 2-3.2 3-1.5 1.7-2.7 3.4-3.7 5.2-.9 1.7-1.6 3.6-2.1 5.5zm23.2-4.4c-.7 2.3-1.1 4.7-1.2 7.1 0 1.1 0 2.2.1 3.3-6.3-.6-12.5-1.4-18.8-2.2.9-.7 1.6-1.5 2.3-2.3 1.5-1.7 2.7-3.4 3.7-5.2 1-1.8 1.7-3.7 2.1-5.6.3-1.4.5-2.9.4-4.4h15.6l-1.5 2.4c-1.1 2.2-2 4.5-2.7 6.9zm21.3 1.6c-.5 2.4-.8 4.8-.8 7.2 0 1.1.1 2.3.3 3.4-4.5-.3-9-.7-13.6-1.1-1.5-.1-2.9-.3-4.4-.4.7-1 1.3-1.9 1.8-2.9 1.2-2.2 2.1-4.5 2.8-6.9.7-2.3 1.1-4.7 1.2-7.1 0-1.1 0-2.1-.1-3.2h17.2c-.8 1.3-1.5 2.5-2.1 3.8-1 2.4-1.8 4.8-2.3 7.2zm22 7.3c.3 1.5.7 3 1.3 4.6-6.7-.2-13.3-.5-19.9-1 .6-1 1.2-2 1.7-3.1 1.1-2.3 1.9-4.7 2.4-7 .5-2.4.8-4.8.7-7.2 0-1.4-.2-2.9-.5-4.4h15.9c-.4 1.1-.8 2.1-1.1 3.2-.6 2.5-1 4.9-1.1 7.4 0 2.5.2 5 .6 7.5zm23.5.6c.4 1.4.8 2.8 1.5 4.2-4.7.1-9.4.1-14.1 0-2.2 0-4.3-.1-6.5-.2.7-1.5 1.2-3 1.6-4.5.6-2.5 1-4.9 1.1-7.4s-.1-5-.6-7.5c-.2-1.1-.5-2.2-.9-3.3h19.7c-.8 1.6-1.4 3.3-1.8 4.9-.6 2.3-.8 4.6-.8 6.9s.3 4.6.8 6.9zm4.5 4.1c.6-1.4 1.1-2.8 1.5-4.2.6-2.3.8-4.6.8-6.9s-.3-4.6-.8-6.9c-.4-1.6-1-3.3-1.8-4.9h15.6c-.3 1.5-.4 3-.4 4.5 0 2.4.3 4.7.9 7.1.6 2.3 1.4 4.6 2.5 6.9.6 1.2 1.3 2.4 2.2 3.6-6.8.5-13.6.7-20.5.8zm29.8-1.4c-2 .2-4 .3-5.9.4.2-1.4.3-2.7.3-4.1 0-2.4-.3-4.7-.9-7.1-.6-2.3-1.4-4.6-2.5-6.9-.7-1.3-1.4-2.6-2.3-3.8h14.7c-.2 1.6-.2 3.1-.1 4.7.2 2.3.8 4.5 1.5 6.7.8 2.2 1.8 4.3 3.1 6.4.6.9 1.2 1.8 2 2.7-3.3.4-6.6.7-9.9 1zm13.8-1.5c0-1.1 0-2.2-.1-3.2-.2-2.3-.8-4.5-1.6-6.7s-1.8-4.3-3.1-6.4c-.8-1.3-1.7-2.5-2.8-3.7h12.6c-.2 1.6 0 3 .2 4.5.4 2 1 4 1.9 5.9s2 3.7 3.5 5.5c.7.8 1.4 1.6 2.2 2.4-4.2.6-8.5 1.2-12.8 1.7zm30-5c-4.4 1-8.9 1.8-13.4 2.6 0-1-.1-2.1-.3-3.1-.4-2-1-4-1.9-5.9s-2-3.7-3.5-5.5c-.9-1.1-2-2.2-3.2-3.2h8.9l.3-.1c.3-.1.6-.1 1-.2 3.9 5.2 8 10.3 12.1 15.4zm24.2-37.7l-.2.1-.2.2c-2.5 2-5.4 3.9-8.4 5.7-3 1.8-6.1 3.5-9.3 5.1-6.3 3.1-13.3 5.6-20.5 6.7l-76.7-.2-76.7.2c-10.3-1.6-20.1-5.4-28.9-9.8-4.5-2.3-8.8-4.7-12.8-7.3-3.7-2.5-6.7-5.6-8.8-9-.4-.6-.7-1.2-1-1.7 4.5 1.3 11.3 2.7 19 2.7 6.4 0 13.4-1 20.4-3.9 12.2-5.1 25.2-1.9 36.7.8 7.4 1.8 13.8 3.3 18.8 2.2 1.3-.3 2.7-.6 4.1-.9.2 0 .3-.1.5-.1 10.7-2.1 24.4-4.2 34.9-4.8.7.1 1.3.1 2 .1.4 0 .8 0 1.2-.1 2.7.2 5.6.6 8.8 1.2 9.7 1.6 21.7 3.7 39.4-1.3 16.4-4.6 24.2-2.4 32.5-.1 4.1 1.1 8.4 2.3 13.7 2.6 9.9.6 18.7-.5 23.9-1.4-2.6 5.1-6.6 9.7-12.4 13zm17-30.8c-.3 4.6-1.1 9.1-2.6 13.5-2.8 1.9-7.2 2.2-12.9 2.6l-1.5.1h-.3c-1.8.4-3.7.5-5.7.5h-.5c-.2 0-.5.1-.7.1 0 0 0 .1.1.1h-.8c-.7 0-1.3.1-2 .1-3 0-5.9-.4-8.5-1.2-1.2-.3-2.4-.7-3.5-1.1-1.2-.2-2.3-.4-3.4-.7-1.7-.3-3.3-.8-4.8-1.4l.2.2c-1.3-.3-2.7-.5-4.2-.7h-.1c-2 0-4-.2-5.9-.6-2.8.3-5.6.5-8.6.5.4 0 .7.1 1.1.1-3.4.4-7.1 1.2-11.4 2.4-6.1 1.7-11.5 2.5-16.4 2.8.1 0 .2-.1.3-.1-1.6.1-3.3.2-4.9.2-1.9 0-3.7-.1-5.5-.2-.2 0-.5-.1-.7-.1-.7-.1-1.4-.1-2.1-.2h-.1c-.6-.1-1.3-.2-1.9-.3-2-.3-3.9-.6-5.7-.9-.5-.1-1-.2-1.5-.2.1 0 .1-.1.2-.1-.6-.1-1.2-.3-1.8-.5-.5 0-.9-.1-1.4-.2-.5 0-.9-.1-1.4-.2-.5 0-1 .1-1.5.1-.7 0-1.4-.1-2.1-.1h-.1c-1.1-.1-2.1-.1-3.2 0h-.1c-.8.1-1.6.2-2.4.2-.7 0-1.4-.1-2-.1-1.4.4-2.9.7-4.5.7-4.6.5-9.3 1.1-14 1.9-1.6.5-3.2 1-4.9 1.3-3.8 1.7-8.3 2.6-13.1 2.6-3.1 0-6.1-.4-8.9-1.2-1.8-.3-3.6-.7-5.2-1.2-.6-.2-1.3-.3-2-.5-1.6-.4-3.3-.8-5-1.2-2.4-.2-4.6-.7-6.8-1.4h-.1c-4.2-.7-8.6-1.2-13.1-1.1-.1 0-.2-.1-.3-.1-2.1.4-4.2.6-6.5.6 0 0 .1 0 .1.1-2.8.5-5.7 1.2-8.5 2.4-1.3.6-2.7 1-4 1.4.1-.1.2-.1.3-.2-.7.2-1.3.3-2.1.5-1.9.9-4.1 1.4-6.5 1.4h-.7c-1.4.4-2.8.6-4.3.6-.9 0-1.8-.1-2.6-.2-4.2-.1-8-.7-11.2-1.3-.2 0-.4-.1-.6-.1-3.1-.7-5.7-1.4-7.3-2-.3-.7-.6-1.4-.8-2.1.1-.1.2-.3.3-.4-.8-1.1-1.3-2.3-1.3-3.6l-.2.2c-.9-3.6-1.3-7.3-1.4-11-.2-7.7.9-15.4 2.6-23.1 3.5-15.3 9.7-30.4 16.6-45.3 6.4-13.6 13.9-27 22.1-40.2 8.5 9.6 50.5 14.6 92 14.6 41.9 0 84.2-5.1 92.2-14.9a422.2 422.2 0 0 1 17.1 30.6c6.1 12.2 11.5 24.5 15.8 37 4.1 12.2 7.2 24.7 7.2 37.1.1.5.1 1 .1 1.5s-.1 1.2-.2 2z"/><ellipse cx="154.1" cy="360.7" rx="6" ry="3.4"/><ellipse cx="177.3" cy="360.7" rx="5.1" ry="3.7"/><ellipse cx="164.9" cy="371.5" rx="4.8" ry="2"/><path d="M255 362.2c-3 0-5.4 1.7-5.4 3.7s2.4 3.7 5.4 3.7 5.4-1.7 5.4-3.7c.1-2.1-2.4-3.7-5.4-3.7z"/><ellipse cx="270.6" cy="354.4" rx="4.4" ry="2.6"/><ellipse cx="307" cy="362" rx="4.2" ry="2.4"/><ellipse cx="110.3" cy="359.5" rx="3.5" ry="2.5"/></g><path fill="#C9B182" d="M281.3 151.8c4.8 3.5 10.5 5.3 16.4 5.3 8.9 0 17.4-4.3 22.7-11.5 4.4-6 6.2-13.4 5-20.8-1.2-7.4-5.1-13.9-11.2-18.3-4.8-3.5-10.5-5.3-16.4-5.3-8.9 0-17.4 4.3-22.7 11.5-4.4 6-6.2 13.4-5 20.8 1.2 7.4 5.2 13.9 11.2 18.3zm2-33.2c3.4-4.6 8.8-7.4 14.5-7.4 3.8 0 7.4 1.2 10.5 3.4 3.9 2.8 6.4 7 7.2 11.7.7 4.7-.4 9.4-3.2 13.3-3.4 4.6-8.8 7.4-14.5 7.4-3.8 0-7.4-1.2-10.5-3.4-3.9-2.8-6.4-7-7.2-11.7-.7-4.7.4-9.4 3.2-13.3zm-31.7 87.8c.5-.6 1-1.2 1.5-1.9 5.7-7.8 6.9-17.8 3.5-26.6 2.8-1.9 5.3-4.2 7.4-7 9.1-12.6 6.3-30.2-6.2-39.3-4.8-3.5-10.6-5.4-16.5-5.4h-1.4c-1.7-6.2-5.4-11.6-10.6-15.4-4.8-3.5-10.6-5.4-16.5-5.4-9 0-17.5 4.3-22.8 11.6-2 2.8-3.5 5.9-4.4 9.2h-1.4c-9 0-17.5 4.3-22.8 11.6-9.1 12.6-6.3 30.2 6.2 39.3.4.3.8.5 1.1.8-4.4 11.6-.6 25.2 9.8 32.8 4.8 3.5 10.6 5.4 16.5 5.4 6.5 0 12.7-2.2 17.7-6.2.4.3.7.6 1.1.8 4.8 3.5 10.6 5.4 16.5 5.4 5.5 0 10.8-1.6 15.3-4.5 1.2-2.3 3.2-4.2 6-5.2zm-21.4-.3c-3.8 0-7.5-1.2-10.6-3.5-1.2-.8-2.2-1.8-3.2-3-1-1.1-2.4-1.8-3.8-1.8-1.5 0-2.9.7-3.9 1.8-3.4 4.1-8.5 6.4-13.8 6.4-3.8 0-7.5-1.2-10.6-3.5-7.6-5.5-9.7-16.1-4.7-24.1.8-1.3 1-2.8.5-4.2s-1.5-2.5-2.9-3.1-2.6-1.3-3.8-2.1c-8.1-5.9-9.9-17.2-4-25.2 3.4-4.7 8.9-7.4 14.6-7.4 1.4 0 2.9.2 4.3.5.4.1.8.1 1.2.1 1.1 0 2.1-.3 3-1 1.2-.9 2-2.2 2.1-3.7.2-3.4 1.4-6.6 3.4-9.3 3.4-4.7 8.9-7.5 14.6-7.5 3.8 0 7.5 1.2 10.6 3.5 4.3 3.1 7 8 7.4 13.3.1 1.5.9 2.8 2.1 3.7.9.6 1.9 1 3 1 .4 0 .8 0 1.2-.1 1.4-.3 2.9-.5 4.3-.5 3.8 0 7.5 1.2 10.6 3.5 8.1 5.9 9.8 17.2 4 25.2-2 2.7-4.7 4.8-7.8 6.1-1.4.6-2.4 1.7-2.9 3.1-.5 1.4-.3 3 .5 4.2 3.9 6.3 3.6 14.2-.7 20.1-3.4 4.7-8.9 7.5-14.7 7.5z"/><path fill="#C9B182" d="M229 141.1c-4.8-3.5-10.5-5.3-16.4-5.3-8.9 0-17.4 4.3-22.7 11.5-4.4 6-6.2 13.4-5 20.8 1.2 7.4 5.1 13.9 11.2 18.3 4.8 3.5 10.5 5.3 16.4 5.3 8.9 0 17.4-4.3 22.7-11.5 9.1-12.5 6.3-30.1-6.2-39.1zm-1.9 33.1c-3.4 4.6-8.8 7.4-14.5 7.4-3.8 0-7.4-1.2-10.5-3.4-3.9-2.8-6.4-7-7.2-11.7s.4-9.4 3.2-13.3c3.4-4.6 8.8-7.4 14.5-7.4 3.8 0 7.4 1.2 10.5 3.4 8 5.8 9.8 17 4 25zM207 88.7c.4.3.8.5 1.2.8-1.5 3.8-2 7.9-1.7 11.8 2-.4 4.1-.6 6.2-.6 1.3 0 2.6.1 3.9.2-.3-3.7.5-7.6 2.6-11 .8-1.3 1-2.8.5-4.2s-1.5-2.5-2.9-3.1-2.6-1.3-3.8-2.1c-8.1-5.9-9.9-17.2-4-25.2 3.4-4.7 8.9-7.4 14.6-7.4 1.5 0 2.9.2 4.3.5.4.1.8.1 1.2.1 1.1 0 2.1-.3 3-1 1.2-.9 2-2.2 2.1-3.7.2-3.3 1.4-6.6 3.4-9.3 3.4-4.7 8.9-7.5 14.6-7.5 3.8 0 7.5 1.2 10.6 3.5 4.3 3.1 7 8 7.4 13.3.1 1.5.9 2.8 2.1 3.7.9.6 1.9 1 3 1 .4 0 .8-.1 1.2-.1 1.4-.4 2.9-.5 4.3-.5 3.8 0 7.5 1.2 10.6 3.4 4.3 3.1 6.8 7.8 7.3 12.7 3.5.1 6.9.7 10.2 1.8-.1-8.7-4.1-17.2-11.6-22.7-4.8-3.5-10.6-5.4-16.5-5.4h-1.4c-1.7-6.2-5.4-11.6-10.6-15.4-4.9-3.5-10.6-5.4-16.5-5.4-9 0-17.5 4.3-22.8 11.6-2 2.8-3.5 5.9-4.4 9.2h-1.4c-9 0-17.5 4.3-22.8 11.6-9.2 12.6-6.4 30.3 6.1 39.4z"/><path fill="#C9B182" d="M279.4 69.2c-1.4-6.5-5.1-12.5-10.9-16.6-4.8-3.5-10.5-5.4-16.4-5.4-8.9 0-17.4 4.3-22.7 11.5-4.4 6-6.2 13.4-5 20.8s5.1 13.9 11.2 18.3c1.4 1 2.8 1.8 4.3 2.6.3-.4.5-.8.8-1.2 1.9-2.6 4.1-4.9 6.5-6.8-2-.6-4-1.5-5.7-2.8-3.9-2.8-6.4-7-7.2-11.7-.7-4.7.4-9.4 3.2-13.3 3.4-4.6 8.8-7.4 14.5-7.4 3.8 0 7.4 1.2 10.5 3.4 5.6 4.1 8.1 10.8 7.2 17.2 2.8-3.4 6.1-6.3 9.7-8.6zM342.9 97c-4.8-3.5-10.6-5.4-16.5-5.4H325c-1.7-6.2-5.4-11.6-10.6-15.4-4.8-3.5-10.6-5.4-16.5-5.4-9 0-17.5 4.3-22.8 11.6-2 2.8-3.5 5.9-4.4 9.2h-1.4c-9 0-17.5 4.3-22.8 11.6-2.4 3.3-4 7-4.8 10.7 1.2 1.7 2.2 3.6 3 5.5 2.2.2 4.4.6 6.5 1.3-.2-4 .9-8.1 3.4-11.6 3.4-4.7 8.9-7.5 14.6-7.5 1.5 0 2.9.2 4.3.5.4.1.8.1 1.2.1 1.1 0 2.1-.3 3-1 1.2-.9 2-2.2 2.1-3.7.2-3.4 1.4-6.6 3.4-9.3 3.4-4.7 8.9-7.5 14.6-7.5 3.8 0 7.5 1.2 10.6 3.5 4.3 3.1 7 8 7.4 13.3.1 1.5.9 2.8 2.1 3.7.9.6 1.9 1 3 1 .4 0 .8-.1 1.2-.1 1.4-.3 2.9-.5 4.3-.5 3.8 0 7.5 1.2 10.6 3.5 8.1 5.9 9.8 17.2 4 25.2-2 2.7-4.7 4.8-7.8 6.1-1.4.6-2.4 1.7-2.9 3.1-.5 1.4-.3 3 .5 4.2 3.9 6.3 3.6 14.2-.7 20.1-3.4 4.7-8.9 7.4-14.6 7.4-3.8 0-7.5-1.2-10.6-3.5-1.2-.9-2.2-1.8-3.2-3-1-1.1-2.4-1.8-3.9-1.8s-2.9.7-3.9 1.8c-3.4 4.1-8.5 6.4-13.8 6.4-2.6 0-5.1-.6-7.4-1.6-.9 1.8-1.9 3.5-3.1 5.2-.8 1.1-1.7 2.2-2.7 3.2 4.1 2.2 8.6 3.3 13.2 3.3 6.5 0 12.7-2.2 17.7-6.2.4.3.7.6 1.1.8 4.8 3.5 10.6 5.4 16.5 5.4 9 0 17.5-4.3 22.8-11.6 5.7-7.8 6.9-17.8 3.5-26.6 2.8-1.9 5.3-4.2 7.4-7 9.1-12.2 6.4-29.8-6.2-39zM235.6 288.9h-46c-2.9 0-5.3 2.4-5.3 5.3s2.4 5.3 5.3 5.3h46c2.9 0 5.3-2.4 5.3-5.3s-2.4-5.3-5.3-5.3zm14.7-53.3l-17 33.2h-15.4v-31.5h-10.6v31.5H192l-16-32.7h-11.8l19.7 40.3v.1c.1.2.2.4.4.6l.1.1c.1.2.2.3.4.4 0 .1.1.1.1.2l.4.4s.1 0 .1.1c.2.1.3.2.5.3l.1.1c.2.1.3.2.5.3h.1c.2.1.4.2.6.2h.1c.2 0 .4.1.5.1h49.6c.2 0 .3-.1.5-.1h.1c.2-.1.4-.1.6-.2l.6-.3c.1 0 .1-.1.2-.1.1-.1.3-.2.4-.3l.1-.1c.2-.1.3-.3.4-.4l.1-.1c.1-.1.2-.3.3-.4l.1-.1c.1-.2.2-.4.4-.6l21-40.9h-11.9v-.1zm-32.4-6.5v-1c0-2.9-2.4-5.3-5.3-5.3s-5.3 2.4-5.3 5.3v1h10.6zm-32.5 125c-.8.2-1.5.2-2.1 0v6.2c0 2.9 2.4 5.3 5.3 5.3s5.3-2.4 5.3-5.3v-9.7c-2.9 1-5.6 2.7-8.5 3.5zm22.6-4.2c-.3 0-.5 0-.7-.1v10.5c0 2.9 2.4 5.3 5.3 5.3s5.3-2.4 5.3-5.3v-10.4H208zm23.3-7.5c1.8-.1 3.6.1 5.4.7 1.7.5 3.5 1.3 5.3 1.8v-30.5c0-2.9-2.4-5.3-5.3-5.3h-47.9c-2.9 0-5.3 2.4-5.3 5.3v31.9c3.7-1 6.9-2.9 10.6-3.8v-22.8h13.3v22.2c.2 0 .5-.1.7-.1h9.9v-22.1h13.3v22.7zm5.5 9.3c-1.6-.6-3.6-1.6-5.4-1.2h-.2v9.9c0 2.9 2.4 5.3 5.3 5.3s5.3-2.4 5.3-5.3v-7.3c-1.7-.3-3.3-.8-5-1.4zm-92.9-245.2c-4.8-3.5-10.5-5.3-16.4-5.3-8.9 0-17.4 4.3-22.7 11.5-4.4 6-6.2 13.4-5 20.8 1.2 7.4 5.1 13.9 11.2 18.3 4.8 3.5 10.5 5.3 16.4 5.3 8.9 0 17.4-4.3 22.7-11.5 9-12.5 6.3-30-6.2-39.1zm-2 33.1c-3.4 4.6-8.8 7.4-14.5 7.4-3.8 0-7.4-1.2-10.5-3.4-3.9-2.8-6.4-7-7.2-11.7-.7-4.7.4-9.4 3.2-13.3 3.4-4.6 8.8-7.4 14.5-7.4 3.8 0 7.4 1.2 10.5 3.4 8 5.8 9.8 17.1 4 25zm116 150.9l-.1-.1-.2-.2-.2-.2c-.1-.1-.1-.1-.2-.1-.1-.1-.2-.1-.3-.2-.1 0-.1-.1-.2-.1-.1-.1-.2-.1-.3-.2-.1 0-.1-.1-.2-.1s-.2-.1-.3-.1-.1-.1-.2-.1-.2-.1-.3-.1-.2 0-.2-.1c-.1 0-.2 0-.3-.1h-2c-.1 0-.2 0-.3.1-.1 0-.1 0-.2.1-.1 0-.2.1-.3.1s-.1 0-.2.1c-.1 0-.2.1-.2.1-.1 0-.2.1-.2.1-.1 0-.1.1-.2.1-.1.1-.2.1-.3.2-.1 0-.1.1-.2.1-.1.1-.2.1-.3.2-.1 0-.1.1-.1.1-.1.1-.2.2-.3.2l-.1.1-.2.2-.2.2-.2.2c-.1.1-.1.2-.2.2 0 .1-.1.1-.1.2-.1.1-.1.2-.1.3 0 .1-.1.1-.1.2s-.1.2-.1.3c0 .1-.1.2-.1.2 0 .1-.1.2-.1.2 0 .1 0 .2-.1.3v2.1l5.7 35.3c.4 2.6 2.7 4.5 5.2 4.5.3 0 .6 0 .9-.1 2.9-.5 4.9-3.2 4.4-6.1l-3-18.8 11.8 12c1 1 2.4 1.6 3.8 1.6 1.3 0 2.7-.5 3.7-1.5 2.1-2.1 2.1-5.4.1-7.5l-23.2-23.9z"/><path fill="#C9B182" d="M152.6 169.9c-2.3 1.1-4.9 1.6-7.5 1.6-3.8 0-7.5-1.2-10.6-3.5-1.2-.9-2.2-1.8-3.2-3-1-1.1-2.4-1.8-3.8-1.8-1.5 0-2.9.7-3.9 1.8-3.4 4.1-8.5 6.4-13.8 6.4-3.8 0-7.5-1.2-10.6-3.5-7.6-5.5-9.7-16.1-4.7-24.1.8-1.3 1-2.8.5-4.2s-1.5-2.6-2.9-3.1c-1.4-.6-2.6-1.3-3.8-2.1-8.1-5.9-9.9-17.2-4-25.2 3.4-4.7 8.9-7.5 14.6-7.5 1.5 0 2.9.2 4.3.5.4.1.8.1 1.2.1 1.1 0 2.1-.3 3-1 1.2-.9 2-2.2 2.1-3.7.2-3.4 1.4-6.6 3.4-9.3 3.4-4.7 8.9-7.5 14.6-7.5 3.8 0 7.5 1.2 10.6 3.5 4.3 3.1 7 8 7.4 13.3.1 1.5.9 2.8 2.1 3.7.9.6 1.9 1 3 1 .4 0 .8 0 1.2-.1 1.4-.3 2.9-.5 4.3-.5 3.8 0 7.5 1.2 10.6 3.5 5.1 3.7 7.7 9.7 7.4 15.6 2.1-.6 4.3-1.1 6.5-1.3.8-1.9 1.9-3.7 3-5.5-1.4-6.6-5.1-12.7-11-17-4.8-3.5-10.6-5.4-16.5-5.4h-1.4c-1.7-6.2-5.4-11.6-10.6-15.4-4.8-3.5-10.6-5.4-16.5-5.4-9 0-17.5 4.3-22.8 11.6-2 2.8-3.5 5.9-4.4 9.2H99c-9 0-17.5 4.3-22.8 11.6-9.1 12.6-6.3 30.2 6.2 39.3.4.3.8.5 1.1.8-4.4 11.6-.6 25.2 9.8 32.8 4.8 3.5 10.6 5.4 16.5 5.4 6.5 0 12.7-2.2 17.7-6.2.4.3.7.6 1.1.8 4.8 3.5 10.6 5.4 16.5 5.4 4.7 0 9.2-1.2 13.2-3.3-2.3-2.5-4.3-5.3-5.7-8.3zm32.4-69.7c4-2 7.5-4.9 10.1-8.6.7-.9 1.3-1.9 1.8-2.9-3-3.5-5.3-7.5-6.7-11.8-.3 3.1-1.4 6.1-3.3 8.7-2.3 3.2-5.6 5.5-9.3 6.6 3 2.4 5.4 5 7.4 8zm-55.7-44.9c3.4-4.7 8.9-7.4 14.6-7.4 1.5 0 2.9.2 4.3.5.4.1.8.1 1.2.1 1.1 0 2.1-.3 3-1 1.2-.9 2-2.2 2.1-3.7.2-3.3 1.4-6.6 3.4-9.3 3.4-4.7 8.9-7.5 14.6-7.5 3.8 0 7.5 1.2 10.6 3.5 4.3 3.1 7 8 7.4 13.3.1 1.5.9 2.8 2.1 3.7.2.2.5.3.8.5.5-.9 1.1-1.8 1.8-2.7 1.4-1.9 2.9-3.6 4.6-5.2l.3-.3s0-.5-.2-1.3c-.1-.3-.2-.8-.2-.8-1.7-6.2-5.4-11.6-10.6-15.4-4.8-3.5-10.6-5.4-16.5-5.4-9 0-17.5 4.3-22.8 11.6-2 2.8-3.5 5.9-4.4 9.2H144c-9 0-17.5 4.3-22.8 11.6-3.6 5-5.4 10.9-5.4 16.7 3.3-1.1 6.7-1.8 10.2-2 .3-3 1.4-6 3.3-8.7z"/><path fill="#C9B182" d="M172.5 57.3c3.8 0 7.4 1.2 10.5 3.4 2.4 1.8 4.3 4 5.5 6.6-.2-4.5.5-9.1 2.1-13.4-.5-.5-1.1-.9-1.7-1.3-4.8-3.5-10.5-5.4-16.4-5.4-8.9 0-17.4 4.3-22.7 11.5-2.2 3.1-3.8 6.5-4.6 10.1.9.6 1.9 1.2 2.8 1.8 2.5 1.8 4.8 4 6.7 6.4-.5-4.4.7-8.8 3.3-12.4 3.4-4.5 8.8-7.3 14.5-7.3z"/></svg>