<svg xmlns="http://www.w3.org/2000/svg" viewBox="0 0 112.2 112.2"><defs><style>.cls-1{fill:#4d76a1}.cls-2{fill:#fff}</style></defs><title>Вконтакте</title><g id="Слой_2" data-name="Слой 2"><g id="Capa_1" data-name="Capa 1"><circle id="_Контур_" data-name="&lt;Контур&gt;" class="cls-1" cx="56.1" cy="56.1" r="56.1"/><path class="cls-2" d="M54 80.7h4.4a3.71 3.71 0 0 0 2-.88 3.22 3.22 0 0 0 .6-1.93s-.09-5.91 2.66-6.78 6.17 5.71 9.85 8.24c2.78 1.91 4.9 1.49 4.9 1.49l9.84-.14s5.15-.32 2.71-4.36c-.2-.33-1.42-3-7.31-8.46-6.17-5.72-5.34-4.8 2.09-14.7 4.53-6 6.33-9.71 5.77-11.29s-3.87-1.1-3.87-1.1l-11.08.07a2.51 2.51 0 0 0-1.43.25 3.1 3.1 0 0 0-1 1.19A64.13 64.13 0 0 1 70 50.93c-4.93 8.38-6.9 8.82-7.71 8.3-1.87-1.21-1.41-4.87-1.41-7.47 0-8.12 1.23-11.5-2.4-12.38a18.91 18.91 0 0 0-5.17-.51c-4 0-7.3 0-9.19.94-1.26.62-2.23 2-1.64 2.07a5 5 0 0 1 3.27 1.64c1.13 1.54 1.1 5 1.1 5s.65 9.55-1.52 10.74c-1.49.81-3.54-.85-7.94-8.45a70.63 70.63 0 0 1-4-8.19 3.29 3.29 0 0 0-.91-1.23 4.59 4.59 0 0 0-1.7-.69l-10.52.07s-1.58 0-2.16.73 0 1.88 0 1.88 8.24 19.28 17.57 29C44.26 81.29 54 80.7 54 80.7z"/></g></g></svg>