<svg xmlns="http://www.w3.org/2000/svg" xmlns:xlink="http://www.w3.org/1999/xlink" viewBox="0 0 425.2 425.2"><defs><path id="a" d="M-478.7-337H904V762.2H-478.7z"/></defs><clipPath id="b"><use xlink:href="#a" overflow="visible"/></clipPath><path clip-path="url(#b)" d="M281.9 163.8c-1.6 0-4.7-1.6-4.7-3.1L207.9 40.9c-1.6-1.6-1.6-4.7 0-6.3 1.6-1.6 3.1-3.1 4.7-3.1h138.6c1.6 0 4.7 1.6 4.7 3.1 1.6 1.6 1.6 4.7 0 6.3l-69.3 119.7c0 1.6-1.6 3.2-4.7 3.2M223.6 44.1l58.3 100.8 58.3-100.8H223.6z"/><defs><path id="c" d="M-478.7-337H904V762.2H-478.7z"/></defs><clipPath id="d"><use xlink:href="#c" overflow="visible"/></clipPath><path clip-path="url(#d)" d="M143.3 163.8c-1.6 0-3.1-1.6-4.7-3.1L69.3 40.9c-1.6-1.6-1.6-4.7 0-6.3 0-1.6 3.1-3.1 4.7-3.1h138.6c1.6 0 4.7 1.6 4.7 3.1 1.6 1.6 1.6 4.7 0 6.3l-67.7 119.7c-1.6 1.6-3.1 3.2-6.3 3.2zM85 44.1l58.3 100.8 58.3-100.8H85z"/><defs><path id="e" d="M-478.7-337H904V762.2H-478.7z"/></defs><clipPath id="f"><use xlink:href="#e" overflow="visible"/></clipPath><path clip-path="url(#f)" d="M143.3 163.8H6.3c-1.6 0-4.7-1.6-4.7-3.1-1.6-1.6-1.6-4.7 0-6.3L69.3 34.6c0-1.6 3.1-3.1 4.7-3.1s4.7 1.6 4.7 3.1L148 152.8c1.6 1.6 1.6 3.1 1.6 4.7 0 3.1-1.6 6.3-6.3 6.3m-126-12.6h116.5L74 50.4 17.3 151.2z"/><defs><path id="g" d="M-478.7-337H904V762.2H-478.7z"/></defs><clipPath id="h"><use xlink:href="#g" overflow="visible"/></clipPath><path clip-path="url(#h)" d="M281.9 163.8H143.3c-1.6 0-3.1-1.6-4.7-3.1-1.6-1.6-1.6-4.7 0-6.3l69.3-119.7c1.6-1.6 3.1-3.1 4.7-3.1s4.7 1.6 4.7 3.1l69.3 118.1c1.6 1.6 1.6 3.1 1.6 4.7 0 3.1-1.6 6.3-6.3 6.3m-127.6-12.6h116.5L212.6 50.4l-58.3 100.8z"/><defs><path id="i" d="M-478.7-337H904V762.2H-478.7z"/></defs><clipPath id="j"><use xlink:href="#i" overflow="visible"/></clipPath><path clip-path="url(#j)" d="M418.9 163.8h-137c-1.6 0-4.7-1.6-4.7-3.1 0-1.6-1.6-4.7 0-6.3l69.3-119.7c0-1.6 3.1-3.1 4.7-3.1s4.7 1.6 4.7 3.1l67.7 118.1c1.6 1.6 1.6 3.1 1.6 4.7 0 3.1-3.1 6.3-6.3 6.3m-126-12.6h115L351.2 50.4l-58.3 100.8z"/><defs><path id="k" d="M-478.7-337H904V762.2H-478.7z"/></defs><clipPath id="l"><use xlink:href="#k" overflow="visible"/></clipPath><path clip-path="url(#l)" d="M214.2 393.7c-1.6 0-3.1 0-4.7-1.6L1.6 162.2C0 159.1 0 157.5 0 154.3c1.6-3.1 3.1-4.7 6.3-4.7h412.6c3.1 0 4.7 1.6 6.3 4.7 0 3.1 0 4.7-1.6 7.9L218.9 392.1c-1.6 1.6-3.2 1.6-4.7 1.6zM20.5 163.8L214.2 378l190.6-214.2H20.5"/><defs><path id="m" d="M-478.7-337H904V762.2H-478.7z"/></defs><clipPath id="n"><use xlink:href="#m" overflow="visible"/></clipPath><path clip-path="url(#n)" d="M214.2 393.7c-3.1 0-4.7-1.6-6.3-4.7l-69.3-229.9c-1.6-3.1 0-6.3 3.1-7.9s6.3 0 7.9 4.7l69.3 229.9c1.6 3.1 0 6.3-3.1 7.9h-1.6"/><defs><path id="o" d="M-478.7-337H904V762.2H-478.7z"/></defs><clipPath id="p"><use xlink:href="#o" overflow="visible"/></clipPath><path clip-path="url(#p)" d="M214.2 393.7h-1.6c-3.1-1.6-4.7-4.7-4.7-7.9l67.7-229.9c1.6-3.1 4.7-4.7 7.9-4.7 3.1 1.6 4.7 4.7 4.7 7.9L220.5 389c-1.6 3.1-3.2 4.7-6.3 4.7"/></svg>