<svg xmlns="http://www.w3.org/2000/svg" viewBox="0 0 425.2 425.2"><path fill="#C9B182" d="M373 152.6l-.3-.7c-.2-.5-.6-.8-1.1-1-1.3-4.9-3.5-10.1-6.5-15-5.3-8.7-12.4-15.6-19.8-19.6-1.2-.6-2.4-1.1-3.5-1.6 3-1.6 6.6-3.8 9.1-6.3.1-.1.2-.3.3-.4.1-.2.3-.3.5-.5 3.3-4.3 2.5-11-2.1-18.9-4.2-7.2-11.3-14.8-20-21.4-2.5-1.9-24.8-18.5-34.6-13.5-1.6.8-3.5 2.5-3.9 6.1-1 .5-1.8 1.2-2.5 1.9-4.7-10.9-19.5-20.1-38.6-23 0-1.2-.5-2.6-1.9-4.1.4-.9.7-1.7.8-2.4.4-2.4-.4-4.8-2-6.5-6.3-6.3-28.9-7.5-47.3-6-14.6 1.2-28.2 3.9-38.3 7.7-10.9 4-16.6 8.9-16.5 14.1v.1c0 .7-.1 4.4.3 8.2-2.4-4.7-6-9-10.3-10.4-.5-.4-1.1-.7-1.6-.8-7.4-2.7-22.6 4.9-33.7 13C90.8 58 83.4 65.2 78.8 72c-6.5 9.6-5.5 14.9-3.4 17.7.1.2.3.3.5.5.1.1.1.2.2.3.5.5 1 1.1 1.6 1.7 3.4 3.7 8.6 9.1 16.7 11v.3c-7.7.6-17.1 4.7-25.3 11.4-8.1 6.6-14.1 14.8-17.1 23-2.3 6.5-2.5 12.5-.5 17.3 1 2.8 2.2 5.4 3.4 7.7-9.3 19.6-3.6 29.2 1 36.9 3.1 5.2 5.3 8.9 3.2 14.7-8.1 22.4 9.8 30.8 22.8 36.9 5.6 2.7 11 5.1 12.8 8 7.8 12 16.9 14.7 25.7 16.1.3 4.3.9 8.1 1.5 10.7.8 3.5 2.1 7.1 5 7.2h.2c2.8 0 3.8-3.2 4.2-4.2 1-2.9 2.4-6 4.1-9.1 1.8 1.5 3.2 3.4 4.3 6 1.7 3.9 6.4 7.3 13.1 9.3.9.3 1.9.5 2.8.7l30.8 46.1-20.5 36.8c-3 5.6-3.6 9-2.1 11.4 1.6 2.6 4.7 2.5 7 2.5h1.8c.7.1 2.5 2.3 3.5 3.6 2.7 3.3 6 7.4 10.7 6.6 3.4-.5 6 .8 8.9 2.2 2.9 1.5 6.2 3.1 10.7 3.1.6 0 1.2 0 1.8-.1 3.9-.4 7.4-1.9 10.4-3.2 3.2-1.4 6-2.6 8-1.9 5.6 1.9 11.4-1.9 15.2-4.4.7-.4 1.3-.9 1.8-1.2l.6-.4c3.6-2.1 11.9-7 7-18.2l-15-31.8c13 2 18.7 5.1 19.4 15.2.7 10.5 7.6 19 13.6 20.4.5.1 1.1.2 1.6.2 2 0 3.7-.9 4.7-2.7.7-1.2.3-2.7-.9-3.4-1.2-.7-2.7-.3-3.4.9 0 .1-.1.2-.8.1-3.1-.7-9.1-6.8-9.8-15.9-1-14.6-11.7-18.1-25-20-.4-.2-.9-.3-1.4-.2l.6-.9c23-16.4 27.7-10.6 36.2-.1 2.6 3.2 5.5 6.8 9.2 10.1 6 5.3 10.7 7.8 14.8 7.8.5 0 .9 0 1.4-.1 4.9-.7 7.6-4.9 10.1-9 .5-.7.9-1.4 1.4-2.1.8-1.1.4-2.7-.7-3.5s-2.7-.4-3.5.7c-.5.7-1 1.5-1.4 2.2-2.1 3.4-4 6.4-6.6 6.7-2.8.4-6.9-1.8-12.2-6.5-3.4-3-6.1-6.3-8.7-9.5-8.4-10.3-15.3-16.3-31.9-7.7l29.8-40c.3 0 .7.1 1 .1 10.3 0 15.7-7.6 21.4-15.5 1.4-2 2.9-4 4.5-6.1 1.7.1 3.4.1 5.1.1 1.4 0 2.7 0 4-.1 6.8-.3 8.9-.7 9-3.3 0-2.5-2.7-2.7-3.6-2.8-2.1-.1-3.8-1.4-5.5-3.3 1.3-1 2.6-2 4-2.9 7.2-4.5 12.8-5.2 18.3-5.9 7.6-.9 14.7-1.8 22.4-13.4 9.1-13.8 8.1-20.7 7.4-25.7-.6-4.5-1-7.3 7.3-14.6 18.8-16.3 11.2-31.6 5-43.9zm-12.1-14.1c6.9 11.2 9.1 24.2 5.1 29.7-1.4 1.9-5.2 4.6-10.3 4.2-6.5-.4-12.9-5.7-18.4-15.4-6.1-10.7-6.1-17.7-4.1-20.7 1.4-2.1 3.6-2.3 5.2-2.1 7.6.9 14.3 9.1 16.3 16.5.9 3.3.6 5.4-.1 6-1.9 1.5-2.8 1.1-3.1 1-2.5-.9-4.7-6.2-5.5-9.7-.3-1.3-1.6-2.2-3-1.9s-2.2 1.6-1.9 3c.3 1.1 2.7 11.2 8.7 13.3 1.8.6 4.6.8 7.9-1.8 2.6-2.1 3.3-6.1 1.8-11.2-2.5-8.9-10.5-18.9-20.5-20.1-4.2-.5-7.8 1-9.9 4.2-3.7 5.6-2.3 15 3.9 25.9 7 12.3 14.4 16.5 20 17.6-.7.3-1.4.5-2.2.5h-.1c-5.9 0-15.2-8.1-22-19.2-9.6-15.7-10.4-33.5-1.7-38.9 1.8-1.1 3.8-1.6 6-1.6 3 0 6.4 1 10 2.9 6.6 3.5 13 9.8 17.9 17.8zM247.5 246.7c-20.9 0-37.8-17-37.8-37.8 0-14.7 9.5-28 22.1-31 1.8-.4 4.6-.8 7.8-.8 7 0 16.2 1.6 22.7 7 5.7 4.8 8.4 11.8 7.8 20.9-.5 9.4-4.1 16.5-10.2 20.1-5.3 3.2-12 3.4-18 .6-10.5-4.9-12.9-13.8-11.6-20.5 1.1-5.8 4.8-9.9 9.3-10.2 3.5-.2 8.1 0 9.6 2.5 1.9 3-.6 8.8-1.7 10.6-.7 1.2-.3 2.7.9 3.4s2.7.3 3.4-.9c.6-1 5.4-9.7 1.6-15.7-2.3-3.7-7.1-5.3-14.2-4.9-6.8.5-12.4 6.2-13.9 14.3s1.3 19.8 14.4 25.9c7.5 3.5 15.9 3.2 22.7-.9 7.5-4.5 12-13.1 12.6-24.1.6-10.8-2.6-19.2-9.6-25-1.6-1.4-3.4-2.5-5.2-3.5 4.8-.2 9.2 1 12.9 3.8 7.3 5.3 12.1 16.4 12.1 28.3.1 20.9-16.8 37.9-37.7 37.9zm4.4 29.3c-.8 6.1-1.6 12.4.9 19 .1.2.1.4.2.5-3.3 0-14.9-5.3-27.3-15.6-13.3-11-20.7-22-20-29.8 4.8-2.8 9-6.4 11.5-11.1 6.6 6.6 15.4 11.1 25.2 12.3 11.8 7.5 10.8 15.1 9.5 24.7zm-80.6-25c-.1 0-.1 0 0 0-13.1-2.8-23.7-11.7-26.8-23.7v-.1c.1-.2.2-.4.2-.6 1.4-4.5 1.3-9.1-.2-13.7 2.3-8.9 8.8-16.7 17.8-21.6 2.9.4 5.8.7 8.8.7 7.9 0 15.3-1.5 22-4.1 5.6 1.7 10.5 4.5 13.8 8.2-1.4 4-2.1 8.3-2.1 12.7 0 6.5 1.5 12.6 4.1 18.1-4 6.7-11.2 10.4-21.4 11.1-10.1.7-17.8-2-21.9-7.5-2.9-4-3.5-9.2-1.6-14 4-10.1 13.4-13 20.2-12.3 5.4.5 9.4 3.1 10.1 6.6.5 2.7.8 6.4-1.2 8-2.8 2.4-9.2.8-11.2 0-1.3-.5-2.7.2-3.2 1.5s.2 2.7 1.5 3.2c1.1.4 10.7 3.8 16.2-.9 3-2.6 4-6.9 2.8-12.8-1.1-5.7-6.8-9.9-14.5-10.6-9.2-.9-20.6 3.6-25.3 15.5-2.5 6.4-1.7 13.5 2.2 18.8 4.6 6.3 12.6 9.6 22.9 9.6 1.1 0 2.2 0 3.3-.1 12.8-.9 19.8-6.1 23.7-11.2.7 1.1 1.4 2.1 2.2 3.1-3.9 9.7-17.1 15.3-28.6 16.7-4.8.6-9.5.3-13.8-.6zm-51.6-7.8c-8.4 2.8-17.5 2.2-25.4-1.7-8-4-13.9-10.8-16.8-19.2-2.8-8.4-2.2-17.5 1.7-25.4 3.9-8 10.8-13.9 19.2-16.8 3.2-1.1 6.5-1.6 9.7-1.6 9.2 0 17.9 4.1 22.3 11.3 2.8 4.5 7.3 17.1 3.4 27.2-2.4 6.1-7.5 10.2-15.2 12.4-7.9 2.2-14.9 1.2-19.6-2.8-4.1-3.5-6.2-9-5.5-14.7 1.1-10 7.8-14.5 13.7-15.4 5.1-.7 9.5 1.2 10.9 4.8 1.2 2.8 2.2 6.6.7 8.5-1.9 2.3-7.4 1.9-9.1 1.5-1.3-.3-2.7.6-2.9 2-.3 1.4.6 2.7 2 2.9 1 .2 9.8 1.8 14-3.2 2.5-3.1 2.6-7.7.1-13.6-2.4-5.7-8.9-8.8-16.2-7.8-7.4 1.1-16.5 6.9-17.9 19.7-.8 7.4 1.9 14.5 7.3 19.1 6 5.1 14.6 6.5 24.1 3.8 9.3-2.6 15.5-7.8 18.5-15.4.6-1.4 1-2.9 1.3-4.4 1.2 3.6 1.3 7.2.1 10.8-2.6 7.6-10.5 14.7-20.4 18zm-57.8-78.5c2.4.8 5 1.2 7.9 1.2 1.6 0 3.3-.1 5.1-.4 8.6-1.3 17.8-5.7 25.9-12.3 6.4-5.3 13.3-12.8 16.5-20.1 1.1 3.4 2.2 7.1 3 11 .1.3.2.5.3.7-.3 1.8-.5 3.6-.5 5.5 0 5.4 1.3 10.5 3.5 15.2-1.4 3.2-4.6 7-8.9 8.8-5.8-1.1-12-.8-17.9 1.2-1.4.5-2.7 1-4 1.6-14.9.2-24.5-3.5-30.9-12.4zM94.7 98c-3.7-1-6.5-2.8-8.9-4.9 3.2-.2 7-1.1 11.2-2.7-1.1 2.5-1.9 5.1-2.3 7.6zm4.7 5.5c-.9-12.4 11.4-28.2 30-38.3 15.6-8.4 33.4-10.4 40.5-4.6 2.4 2 5.8 7.4 5 14.2-1 8.9-8.7 17.1-22.3 23.9-12.8 6.3-23.4 7.8-28.6 3.9-2.8-2.1-2.9-5.3-2.5-7.6 2.1-11.3 15.3-19.1 24-21 4.1-.9 7.5-.5 8.5.9 2 2.8 1.3 4.4 1.1 4.9-1.5 3.7-9.4 6.3-14 7.1-1.4.2-2.3 1.5-2 2.9.2 1.4 1.5 2.3 2.9 2 1.5-.3 14.6-2.7 17.7-10.1.9-2.1 1.3-5.5-1.6-9.6-2.3-3.3-7.1-4.3-13.6-2.9-11.7 2.5-25.5 12.1-27.9 24.9-1 5.1.6 9.7 4.4 12.5 2.8 2.1 6.4 3.1 10.8 3.1 6.4 0 14.3-2.2 23-6.5 18.1-9 23.6-19.2 24.9-26.6 1.1 1.5 1.7 3.2 1.6 5-.3 9.1-14.2 21.2-27.7 28.5-12.5 6.7-25.8 9.8-36.5 8.4-1.1-1.5-2.7-2.9-5.1-4.1-1.6-4.5-4.7-7.8-7.5-9.3-1.6-.9-3.3-1.4-5.1-1.6zm50.5-54.6c2.2 1.3 5.1 2.5 8.6 3.5-2.5-.1-5.2.1-7.9.5-.3-1.2-.5-2.6-.7-4zm56.4 5.5c.1 1.2.4 2.5.8 3.8-2.5 4.6-2.9 9.7-1.9 13 .3 1.1.8 2.2 1.4 3.3-.1 0-.3 0-.4.1-7.9 1-14.7 3.6-20 7.2.1-3.3-1-7.9-6.5-11.8-.8-5.8-3.7-10.7-6.7-13.2-1.2-1-2.5-1.8-4.1-2.4 5.5.7 11.5 1.1 18 1.1 5 0 10.2-.2 15.5-.7 1.3-.1 2.6-.3 3.9-.4zm76.3 128.7c-1.7-2.4-3.7-4.5-6.1-6.3 4.1 1 8.2 1.4 12.1 1.4 3.4 0 6.7-.4 9.8-1.1-4.4 3.1-9.5 5.3-15.8 6zm-73.7 8.1c-2.7-2.5-5.8-4.6-9.5-6.2 11.4-6.3 19.5-16.3 21.9-27.8 3.7.9 6.7 1.2 9.5 1.2 1.2 0 2.4-.1 3.6-.2-.3 4.9.1 9.6 1 14-1.8.2-3.4.4-4.8.7-9.3 2.3-17.1 9.2-21.7 18.3zm-68.7 13.5c-.6-7.2-3.2-13.8-5.5-17.6-3.1-5-7.9-8.7-13.5-11 2.2-1.7 3.9-3.6 5.3-5.7 6.2 9.2 16.5 16.2 28.8 19.5-6.2 4.4-10.9 10.2-13.7 16.7-.6-.6-1-1.3-1.4-1.9zm35.5-104.5c.3 5 2.9 9.9 7.3 14.1-2.3.3-4.8.7-7.4 1.4-7.2-1.4-14.3-1.6-19.7-1.1 7.1-4 14.3-9 19.8-14.4zM123.3 136c-1.3-4.6-2.8-8.8-4.2-12.3 1 .1 2 .1 3 .1 4 0 8.2-.5 12.5-1.4-4.8 3.7-8.7 8.4-11.3 13.6zm1.7 14.2c0-14.3 11.6-27.3 26.9-30.2 2.3-.4 5.6-.8 9.5-.8 9.7 0 22.7 2 30.6 9 5.1 4.5 7.4 10.6 6.9 18.2-.6 8.1-4 14.4-10 18.2-6.9 4.4-16.4 5.2-24.9 2-12-4.5-15.3-12.7-14.3-18.8.9-6.1 5.8-10.7 11.9-11 6.8-.4 11.2.7 12.5 3.1 1.6 2.9-1.2 7.9-2.3 9.5-.8 1.1-.5 2.7.6 3.5s2.7.5 3.5-.6c.6-.9 6-8.7 2.6-14.8-2.4-4.3-8-6.1-17.2-5.6-8.4.5-15.2 6.7-16.5 15.2-1.2 8.1 2.7 18.7 17.5 24.3 9.9 3.7 21.2 2.8 29.3-2.4 5.1-3.3 11.4-9.8 12.3-22.1.6-9.2-2.2-16.7-8.6-22.3-2.6-2.3-5.5-4.1-8.7-5.5 7.3-.2 13.6 1.7 18.7 5.6 7.3 5.6 11.9 15.5 11.9 25.7 0 20.3-20.7 36.9-46.1 36.9-25.4-.2-46.1-16.7-46.1-37.1zm116.4-19l-.1.1c0 .1-.1.2-.1.3-.7 1.4-1.3 2.7-1.7 3.9-2.3 5.7-3.9 11.7-4.6 17.7-4 .3-7.6.3-12.8-1 0-.7.1-1.3.1-2 0-8.4-2.8-16.7-7.5-23.1 3.6.5 7.4.7 11.2.7 6.8 0 13.4-.8 19.6-2.3-1.8 1.9-3.1 3.8-4.1 5.7zm-.9 40.9c-1.5-6.6-1.5-14.4 0-22.3 3.6 8.4 11.8 16.7 22.6 22.1-3.7-.2-7.7.2-11.8 1.5-3.7-.8-7.4-1.2-10.8-1.3zm64.1-41.4c9.2 9.5 12.9 21.1 8.5 30.3-6.4 13.2-27.6 16.3-47.1 6.8-13.9-6.7-23.5-18.9-22.4-28.3.1-.7.3-1.4.5-2.3l1.5-3.6c1.7-3.2 4.5-6.6 8.6-8.7 2.8-1.5 5.9-2.2 9.3-2.2 5.2 0 11 1.7 17.4 5.1 10.2 5.4 16.1 12.2 16.3 18.4.1 3.4-1.7 6.4-4.9 8.3-8.2 4.8-19 1.8-25.5-3.7-3.5-3-5.3-6.3-4.5-8.5 1-2.6 2.2-4.1 3.8-4.4 3.8-.8 9.4 4.3 11.1 6.2.9 1 2.5 1.1 3.5.2 1-.9 1.1-2.5.2-3.5-.9-.9-8.5-9.1-15.7-7.7-3.4.7-5.9 3.2-7.5 7.6-1.6 4.3.7 9.5 6 14 7.6 6.4 20.6 10.4 31.3 4.2 4.8-2.8 7.5-7.4 7.4-12.7-.2-8.1-7.1-16.4-18.9-22.7-15.1-8-25.4-6.1-31.3-3-.1.1-.2.1-.4.2.8-2 2.2-3.6 4-4.7 6.7-4.1 20.5-2.6 33.6 3.7 5.9 3 11.1 6.8 15.2 11zm5.5-1.2c1.9-1.5 4.4-3.5 7.3-5.4-1.5 4-1.9 8.9-1.3 14.2-1.6-3.1-3.6-6-6-8.8zm-36.5-20.1c-.3 0-.5-.1-.8-.1 2.1-3.3 3.2-6.8 3.2-10.3 0-3.4-1-6.9-2.7-10 4.7-1.9 8.6-4.4 11.5-7.3-.6 9.4-2.7 20.9-11.2 27.7zM271 99c0 3.4-1.4 6.6-4 9.8-5.2-.2-10.1.7-14 3.1-3.1 2-5.3 4.8-6.4 8.4-11.5 3.2-25.6 3.6-37.6 1l-.6-.6c-3.8-3-9.6-5.9-17.4-6.5l-.1-.1c-6.6-4.3-10.2-9.6-10.2-15 0-9.1 11.3-17.5 26.2-19.5 10.7-1.4 34.3-.5 43 7.9 2.5 2.5 3.6 5.3 3.3 8.8-.4 3.9-2.4 7.1-5.8 9.5-6.6 4.6-18.4 6-28.6 3.3-10.8-2.8-14.3-7.5-13.9-10.9.4-3.4 4.6-7.1 11.7-7.4 11.2-.4 12.6 2 12.7 2.2.4 1-1.1 3.3-2.3 4.5-1 1-1 2.5-.1 3.5s2.5 1 3.5.1c.6-.5 5.4-5.4 3.5-10.1-1.7-4-7.2-5.7-17.5-5.3-8.8.3-15.8 5.3-16.5 11.9-.3 2.7.1 11.7 17.6 16.3 9.7 2.5 23.6 2.2 32.7-4.1 4.7-3.3 7.4-7.8 7.9-13.1.5-5-1.1-9.4-4.7-12.9-2.1-2-4.7-3.6-7.7-4.9 7.5.5 13.9 2.8 18.5 6.6 4.3 3.7 6.8 8.6 6.8 13.5zm-18.5-24.1c-4.4-.9-9.2-1.2-14.4-.9-.2-.1-.3-.2-.5-.3-5.5-1.7-8.4-4.2-8.4-5.8 0-2.8 1.2-3.5 1.5-3.8 2.9-1.8 10 .3 13.7 2.1 1.2.6 2.7.1 3.3-1.2.6-1.2.1-2.7-1.2-3.3-1.2-.6-12.3-5.7-18.5-1.8-1.7 1.1-3.8 3.4-3.9 8 0 2.4 1.4 4.7 4 6.7-5.7-.6-11.2-.7-15.8-.5V74c-1.1-1.4-1.8-2.7-2.2-4.1-.7-2.6-.3-8 3.5-12.3 5.3-5.9 15.2-7.8 28.6-5.6 14.8 2.4 21.4 7.7 22.7 11.8.9 2.8-.7 5-2.1 6.3-2.4 2.3-5.9 3.9-10 4.6-.1.1-.2.2-.3.2zm32.7 154.3c3.3-6 5.1-12.9 5.1-20.3 0-6.5-1.4-14.3-4.9-21.1 1-.2 2-.4 2.9-.6 1.9 7.3 6.1 15 12.1 21.8 8.9 10.2 19.5 16.3 28.5 17.3-13.1 6.9-32.5 10.3-43.7 2.9zm53.8-10.3c-7.2 6.2-23.1.2-34.8-13.3-5.5-6.3-9.4-13.3-11.1-20 8.4-3.3 14.7-9.3 19.7-15.5 2.1 1.1 4.1 2.5 6 4.2 5.9 5.1 16.6 18.4 16.2 27.3-.1 2.5-1.2 4.5-3.2 5.9-2.3 1.6-5 2.1-7.9 1.3-5.6-1.4-11.9-7.2-15.3-13.9-2.9-5.9-3.2-10.7-.7-12.5 1.9-1.3 5.8-.8 9.1 2.7 5.3 5.6 4.8 7.5 4.8 7.5-.2.3-1.7.7-3.2.6-1.4-.1-2.6.9-2.7 2.3-.1 1.4.9 2.6 2.3 2.7.6.1 6.2.4 8-3.4 2-4.2-2.3-9.5-5.7-13.1-4.7-5-11.3-6.4-15.6-3.4-1.8 1.2-7.1 6.2-.9 18.8 3.3 6.8 10.4 14.5 18.5 16.6 1.3.3 2.6.5 3.9.5 2.9 0 5.7-.9 8.1-2.6 3.3-2.3 5.1-5.7 5.3-9.7.1-1.2 0-2.4-.3-3.6 2.1 3.5 3.2 7 3.3 10.4.4 4.1-1.1 7.8-3.8 10.2zm-4.9-36.3c-.4 0-.8.1-1.2.2-3.6-5.3-7.8-9.8-10.7-12.3-2-1.7-4.1-3.2-6.3-4.4.6-.9 1.3-1.9 1.8-2.9 1.7-3.5 2.4-7.2 2.3-11 1.2 2.9 2.7 5.9 4.5 8.8 4.9 7.9 12.4 16.8 20.1 20.2-3.2.9-6.9 1.7-10.5 1.4zm-6.5-68.9c-8.1 1.9-16.5 8.5-20.9 12.1-4.2-4.1-9.4-7.7-15.3-10.6-3.6-1.7-7.7-3.3-12-4.5 8.4-8.8 10-21.7 10.4-31.2 4.1 6.2 10.6 12.6 17 17.5 8.7 6.6 17.9 11.4 26 13.5 1.5.4 2.9.7 4.2.9-1.4.7-2.5 1.2-3 1.4-2.2-.1-4.4.3-6.4.9zm-37-45.8c.1-.9 1-3 3.6-4 .9-.4 2.1-.7 3.7-.7 4.3 0 11.2 2.1 21.9 10.6 12.4 9.9 14.5 16.1 13.9 18.1-.2.7-1 1.1-2.4 1.2-6.7.5-16.2-5.4-21.8-11.2-3-3.2-3.9-5.3-3.9-5.7.4-.8.8-.9 1-.9 2.5-.3 7.8 4.6 10.6 8 .9 1.1 2.5 1.2 3.5.3 1.1-.9 1.2-2.4.3-3.5-1.4-1.7-8.8-10.4-14.9-9.8-1.5.1-3.5.9-4.9 3.5-1 2-.6 4.5 1.4 7.5 4.8 7.3 18.5 17.5 29 16.7 3.5-.3 6-2 6.8-4.7 1.8-5.7-3.8-14-15.6-23.4-11.9-9.5-20.2-11.9-25.8-11.7h.1c4.1-2.1 16.9 3.6 29.3 13 8.1 6.2 14.8 13.3 18.7 20 3.4 5.9 4.3 10.8 2.4 13.4-1.9 2.5-7 3-13.5 1.2-7.5-2-16.1-6.5-24.3-12.7-12.5-9.6-19.7-20.6-19.1-25.2zm-5.5 2.7c-.8 5.9-6.1 11.1-14.7 14.2-.9-1.1-1.9-2.1-3.1-3-2-1.7-4.3-3.1-6.8-4.2 2.2-1 4.1-2.3 5.7-3.8 3.4-3.2 4.7-7.4 3.4-11.4-2.3-7.3-12-12.9-26.7-15.3-17.5-2.8-26.8 1.3-31.8 5.9.1-1.3.5-2.5 1.3-3.5 4.3-5.6 18.9-8.1 34.9-6.1 22.1 2.8 39.4 15.3 37.8 27.2zM163 32.1c9.7-3.6 22.8-6.2 37-7.4 22.1-1.8 39.8 1 43.4 4.6.2.2.8.9.6 2.2-.3 2-2.5 4.1-6 5.9-.2.1-.3.3-.5.4-9.9-.1-19.6 1.6-25.5 5.6-1.7.2-3.5.3-5.4.4-24.6 1.6-31-2.2-31.4-3.2 0-.1.3-.8 1.6-1.6 11-7.9 39.7-8.2 43.5-5.4-.6 1.6-9.5 2.9-19.7 2.1-1.4-.1-2.6.9-2.7 2.3-.1 1.4.9 2.6 2.3 2.7 4.6.4 19.9 1.1 23.9-4 1.1-1.4 1.4-3.2.8-5-.5-1.5-1.9-2.6-4.2-3.4-8.6-2.8-35.6-1.5-46.8 6.6-4.1 3-3.9 5.9-3.3 7.3 2 5.6 14 6.9 25.1 6.9 4.1 0 8-.2 11.3-.4h.4c-.1.2-.2.4-.3.7-1.7.2-3.3.3-5 .5-14.1 1.2-27.5.7-37.7-1.2-10.5-2-14.4-5.1-14.6-7.1-.2-2.2 3.1-5.8 13.2-9.5zm-21.1 22.6c-2.5.7-5 1.6-7.4 2.6 2.5-3.5 3.6-6.5 3.9-9 1.3 1.9 2.5 4.1 3.5 6.4zm-59 20c4.3-6.3 11.2-13.1 19.5-19.2 12.9-9.4 25.1-13.7 29-12.3.1.1.3.1.5.3h.1c.6.4 1.2 1.3 1.4 2.6.3 2.5-.7 9.7-17.5 21.5-13.7 9.6-19.8 9.7-20.8 8.9-.2-.2-.2-.9 0-1.8 2.8-9.5 20.2-20.2 23.8-19.6.1.2.1.3.1.3-.3 2-6 5.8-10.8 8.1-1.3.6-1.8 2.1-1.2 3.3.6 1.3 2 1.8 3.3 1.2 3-1.4 12.8-6.3 13.7-11.8.3-1.8-.4-3.6-1.8-4.9-1.3-1.2-3.4-1.5-6.1-.7-8.1 2.2-22.8 13-25.7 22.8-1.3 4.4.8 6.6 1.8 7.3 2.3 1.7 6.1 1.5 10.9-.2-.7.9-1.4 1.8-2 2.7-11.7 5.7-19.8 6.1-21.7 3.5-1.5-2-.1-6.6 3.5-12zm-26.2 64.8c2.6-7.3 8.2-14.7 15.6-20.8 7.9-6.5 17.4-10.4 24.2-10.4 2.2 0 4 .4 5.5 1.2 2.2 1.2 5.5 4.9 5.9 10.2.5 6.8-4 14-13 21-12.6 9.7-19 7.8-20.6 7-2.4-1.1-3-3.5-3-5.2-.2-7.9 7.2-15.9 14.4-19 3.3-1.5 5.6-1.4 6.4-.7 1.8 1.8 1.6 2.9 1.5 3.2-.6 2.9-6.4 6-9.2 7-1.3.5-1.9 1.9-1.5 3.2.5 1.3 1.9 1.9 3.2 1.5 1.1-.4 11-4.2 12.3-10.6.4-1.9.2-4.8-2.9-7.9-2.5-2.4-6.8-2.5-11.8-.3-8.6 3.8-17.6 13.4-17.4 23.7.1 4.4 2.2 7.9 5.8 9.6 6.2 3 15.6.2 25.8-7.6 11.6-8.9 14.7-17.1 15-23 .3.8.7 1.7 1 2.6.8 6.1-6.1 16.7-16.5 25.2-7.4 6.1-15.7 10.1-23.4 11.2-7.3 1.1-13-.4-16.2-4.4-3.2-3.9-3.6-9.8-1.1-16.7zm42.2 117.3c-2.6-4.1-8.3-6.8-14.9-9.8-13.2-6.2-26.8-12.6-20.3-30.7 2.9-8.1-.4-13.6-3.6-19-4.2-7-8.4-14.2-2.1-29.3 6.2 8.4 14.8 12.8 27.1 13.8-4.3 3.5-7.9 7.8-10.5 12.9-4.5 9.2-5.2 19.5-2 29.2C76 233.6 82.8 241.4 92 246c5.4 2.7 11.1 4 17 4 4.1 0 8.3-.7 12.3-2 .7-.2 1.3-.5 2-.7-2.5 6.7-3.2 15.4-3 23.3-7.9-1.5-15-3.9-21.4-13.8zm28.2 29.5c-1.5-5.5-2.9-18.3-1.1-29.8 1.1-6.7 3.1-11.5 5.8-13.8 3.6-2.5 7-5.5 9.5-9.2 3.7 8.6 10.8 15.4 19.7 19.4-17.9 5.5-29.2 20.4-33.9 33.4zm17.2-2.1c-1.5-3.6-3.6-6.3-6.2-8.3 6.8-9.7 17.6-18.3 32.5-20 3.1.6 6.2 1 9.5 1 1.8 0 3.7-.1 5.6-.3 4.7-.5 10.1-1.8 15.1-3.9.7 8.7 7.5 17.9 15.7 25.7-9.3.9-21.7 2.9-28.4 7.2-10 6.6-21.2 7.5-29.6 6.1-.6-.5-1.4-.6-2.2-.4-.7-.2-1.4-.3-2-.5-6.1-1.9-9.1-4.7-10-6.6zm66.1 60.5c1.7 0 3.4-.1 5.2-.3h.2c.2 0 .4-.1.7-.1 4-.4 8.1-1.3 12.1-2.6v.6c0 .2.1.3.1.5 0 .1 0 .2.1.3l.5 1.1c-14.4 6-30.8 2.2-37.5-1.3.1-.1.1-.3.1-.4v-.7c5 1.7 11.5 2.9 18.5 2.9zm31.4 48.3l-.7.4c-.6.4-1.3.8-2 1.3-3.2 2.1-7.6 4.9-10.9 3.8-3.9-1.3-7.6.3-11.6 2.1-2.8 1.2-5.8 2.5-8.9 2.8-4 .4-6.8-1-9.8-2.6-3.2-1.6-6.9-3.5-11.9-2.7-1.9.3-4.1-2.5-6.1-4.9-2.2-2.7-4.2-5.2-7-5.4-.7-.1-1.5-.1-2.3 0-.8 0-2.4 0-2.7-.1 0-.1-.4-1.4 2.3-6.4l19.1-34c2 1.1 4.6 2.1 7.5 3-.4.3-.7.7-.9 1.3l-9.8 36.2c-.4 1.3.4 2.7 1.8 3.1.2.1.4.1.7.1 1.1 0 2.1-.7 2.4-1.8l9.8-36.2c.2-.6.1-1.1-.1-1.6 3.4.7 7.1 1.2 11 1.2v17c0 1.4 1.1 2.5 2.5 2.5s2.5-1.1 2.5-2.5v-17.1c4.9-.4 9.9-1.5 14.8-3.6l15.3 32.4c2.8 6.4-.5 9-5 11.7zm-7.8-59c-.1 0-.2 0-.3.1-4.6 2.5-9.4 4.1-14.1 4.9l11.3-31.4c.5-1.3-.2-2.7-1.5-3.2s-2.7.2-3.2 1.5L214 339.6c-3.3.2-6.5.1-9.5-.2v-.5l-7.4-45c-.2-1.4-1.5-2.3-2.9-2.1-1.4.2-2.3 1.5-2.1 2.9l7.2 43.9c-5.6-1.1-9.9-2.9-12.1-4.4-.1-.1-.2-.1-.3-.1l-24.8-37c1 .1 2.1.1 3.1.1 8 0 17.1-2 25.4-7.5 7.1-4.7 23.3-6.3 30.7-6.8 6.7 5.6 13.6 10.2 18.7 13 6.7 3.6 10.6 4.6 13 4.6 2.1 0 3-.8 3.4-1.2 1.1-.9 2.1-2.8.8-6.1-.9-2.2-1.2-4.4-1.3-6.6 3.4.8 7 1.6 10.9 2.7h.2L234 334zm57-62.1c-6.8 9.4-11.2 15.7-22.7 12.6-4.2-1.1-8.3-2.1-12-2.9.1-1.6.3-3.2.6-4.9 1.1-8.1 2.2-17-6.2-25.1 3.6-.3 7.2-1 10.5-2.1 3.1 11.6 17.2 17.1 32.5 18.8l-2.7 3.6zm-18.4-15.2c-3.8-2.5-6-5.5-6.8-9.2 6.7-3.2 12.5-8.1 16.7-14.1l1.5.9c6.6 5.4 10.7 12.5 14.3 18.6 2.5 4.2 4.8 8.2 7.5 10.9-9.3 0-24.2-1.2-33.2-7.1zm92.1-63.5c-9.6 8.5-9.8 12.9-8.9 19 .6 4.7 1.4 10.1-6.7 22.3-6.4 9.7-11.6 10.3-18.8 11.2-5.7.7-12.2 1.5-20.3 6.6-1.5.9-2.9 2-4.3 3.1-1-1.5-2-3.2-3-5-2.3-3.9-4.9-8.4-8.4-12.7 2.3.4 4.6.6 7.1.6 15.5 0 32.9-7.1 41.1-15.8 3.7-3.3 5.8-8.4 5.7-14-.2-7.2-3.9-14.4-10.6-20.9 8.8-.6 16.5-5.3 17.7-6.1 1.7-.8 3.3-2.2 4.8-4.5 4.5-.9 8.1-3.4 9.9-5.9 1.4-1.9 2.3-4.5 2.7-7.3 3.5 9.1 4 18.7-8 29.4z"/></svg>