<svg xmlns="http://www.w3.org/2000/svg" xmlns:xlink="http://www.w3.org/1999/xlink" viewBox="0 0 425.2 425.2"><defs><path id="a" d="M-447.2-277.1H872.4v979.4H-447.2z"/></defs><clipPath id="b"><use xlink:href="#a" overflow="visible"/></clipPath><path clip-path="url(#b)" d="M351.9 280c10.3-7.3 19.1-16.1 26.4-26.4 24.9-33.7 29.3-74.8 11.7-123.2l-2.9-7.3-8.8-1.5c-14.7-1.5-27.9-1.5-42.5 1.5-1.5-13.2-4.4-24.9-8.8-36.7l-1.5-2.9h-2.9c-26.4-2.9-49.9 5.9-63 13.2-20.5-24.9-42.5-41.1-44-41.1l-4.4-4.4-2.9 2.9c-16.1 11.7-30.8 26.4-44 41.1-13.3-7.2-35.3-16-63.1-13.1h-2.9l-1.5 4.4c-4.4 13.2-7.3 24.9-8.8 36.7-14.7-2.9-27.9-2.9-42.5-1.5l-8.8 1.5-2.9 7.3c-17.6 48.4-13.2 89.4 11.7 123.2 7.3 10.3 16.1 19.1 27.9 26.4C33.8 296.2 6 330 4.5 332.9L0 338.7l4.4 2.9c2.9 1.5 48.4 32.3 105.6 32.3 52.8 0 95.3-36.7 102.6-44 8.8 7.3 51.3 44 102.6 44 57.2 0 102.6-30.8 104.1-32.3l4.4-2.9-4.4-4.4c0-2.9-27.8-38.1-67.4-54.3m24.9-146.6h1.5v1.5c16.1 44 13.2 82.1-10.3 111.4-7.3 10.3-19.1 20.5-30.8 29.3-7.3-1.5-14.7-2.9-22-2.9-32.3 0-61.6 14.7-80.6 26.4 24.9-22 61.6-64.5 61.6-114.4 0-11.7-1.5-23.5-5.9-33.7 20.5-11.7 51.3-22 86.5-17.6m-60.1-39.6c2.9 10.3 5.9 20.5 7.3 32.3-13.2 2.9-24.9 8.8-36.7 14.7-5.9-13.2-13.2-24.9-20.5-35.2 11.8-7.4 29.4-13.2 49.9-11.8m-209.7 0c20.5-1.5 39.6 4.4 49.9 10.3-8.8 11.7-16.1 23.5-22 36.7-11.7-5.9-23.5-11.7-36.7-14.7 1.5-11.7 4.4-22 8.8-32.3M54.2 246.3c-22-29.3-24.9-67.4-8.8-111.4v-1.5h1.5c35.2-4.4 66 7.3 85 17.6-4.4 11.7-5.9 23.5-5.9 33.7 0 46.9 33.7 88 58.6 111.4-19.1-11.7-45.5-23.5-74.8-23.5-7.3 0-16.1 1.5-23.5 2.9-13-8.7-23.3-17.4-32.1-29.2M110 362.2c-42.5 0-79.2-19.1-92.4-26.4 11.7-13.2 49.9-49.9 92.4-49.9s79.2 27.9 92.4 38.1c-13.3 10.3-49.9 38.2-92.4 38.2M211.1 305c-14.7-11.7-74.8-61.6-74.8-120.2s60.1-108.5 74.8-120.2c14.7 11.7 74.8 61.6 74.8 120.2S225.8 293.2 211.1 305m104.1 57.2c-42.5 0-79.2-27.9-92.4-38.1 13.2-10.3 49.9-38.1 92.4-38.1s80.6 36.7 92.4 49.9c-13.2 7.2-49.8 26.3-92.4 26.3"/></svg>