<svg id="Слой_1" xmlns="http://www.w3.org/2000/svg" viewBox="0 0 112.2 112.2"><style>.st0{fill:#333}.st1{fill:#fff}</style><title>Вконтакте1</title><g id="Слой_2"><g id="Capa_1"><circle id="_Контур_" class="st0" cx="56.1" cy="56.1" r="56.1"/><path class="st1" d="M54 80.7h4.4c.7-.1 1.4-.4 2-.9.4-.6.6-1.2.6-1.9 0 0-.1-5.9 2.7-6.8 2.8-.9 6.2 5.7 9.9 8.2 2.8 1.9 4.9 1.5 4.9 1.5l9.8-.1s5.2-.3 2.7-4.4c-.2-.3-1.4-3-7.3-8.5-6.2-5.7-5.3-4.8 2.1-14.7 4.5-6 6.3-9.7 5.8-11.3s-3.9-1.1-3.9-1.1l-11.1.1c-.5-.1-1 0-1.4.3-.4.3-.8.7-1 1.2-1.2 3-2.5 5.9-4.1 8.6-4.9 8.4-6.9 8.8-7.7 8.3-1.9-1.2-1.4-4.9-1.4-7.5 0-8.1 1.2-11.5-2.4-12.4-1.7-.4-3.4-.6-5.2-.5-4 0-7.3 0-9.2.9-1.3.6-2.2 2-1.6 2.1 1.3.1 2.4.7 3.3 1.6 1.1 1.5 1.1 5 1.1 5s.7 9.5-1.5 10.7c-1.5.8-3.5-.8-7.9-8.5-1.5-2.6-2.8-5.4-4-8.2-.2-.5-.5-.9-.9-1.2-.5-.3-1.1-.6-1.7-.7l-10.5.1s-1.6 0-2.2.7 0 1.9 0 1.9 8.2 19.3 17.6 29c8.4 9.1 18.1 8.5 18.1 8.5z"/></g></g></svg>