<svg xmlns="http://www.w3.org/2000/svg" width="416.32" height="417.258" viewBox="0 0 416.32 417.258"><path fill-rule="evenodd" clip-rule="evenodd" fill="#333" d="M356.086 61.163C316.711 21.742 264.347.023 208.557 0 93.604 0 .046 93.552 0 208.54c-.015 36.758 9.588 72.635 27.839 104.264L-1.749 420.875l110.558-29.002c30.461 16.615 64.759 25.373 99.663 25.385h.086c114.941 0 208.507-93.561 208.554-208.552.023-55.725-21.65-108.123-61.026-147.543zM208.559 382.037h-.071c-31.104-.012-61.612-8.369-88.226-24.162l-6.33-3.757-65.607 17.21 17.511-63.966-4.122-6.559c-17.352-27.598-26.516-59.496-26.503-92.25.038-95.573 77.8-173.329 173.415-173.329 46.3.016 89.822 18.07 122.551 50.836 32.727 32.764 50.74 76.316 50.723 122.634-.038 95.58-77.799 173.343-173.341 173.343zm95.082-129.825c-5.211-2.608-30.831-15.213-35.608-16.954-4.776-1.738-8.25-2.607-11.724 2.608-3.473 5.216-13.46 16.955-16.501 20.433-3.039 3.477-6.079 3.913-11.289 1.304-5.211-2.608-22.002-8.11-41.906-25.865-15.492-13.818-25.95-30.882-28.99-36.1-3.04-5.216-.324-8.036 2.285-10.635 2.345-2.335 5.212-6.087 7.817-9.13 2.606-3.042 3.474-5.217 5.211-8.693 1.737-3.479.869-6.522-.434-9.13-1.303-2.608-11.724-28.259-16.067-38.694-4.23-10.16-8.526-8.784-11.725-8.945-3.036-.151-6.514-.183-9.988-.183-3.474 0-9.12 1.304-13.896 6.52-4.776 5.218-18.238 17.825-18.238 43.473 0 25.651 18.672 50.429 21.278 53.907 2.605 3.479 36.745 56.113 89.02 78.685 12.433 5.369 22.14 8.576 29.707 10.977 12.484 3.967 23.844 3.407 32.823 2.065 10.012-1.495 30.831-12.605 35.174-24.777 4.341-12.175 4.341-22.608 3.039-24.781-1.303-2.172-4.777-3.476-9.988-6.085z"/></svg>