<svg xmlns="http://www.w3.org/2000/svg" viewBox="0 0 425.2 425.2"><path fill="#CAB183" d="M289.7 333.3c-1-.7-2.5-.4-3.3.7-.5.7-.9 1.4-1.3 2.1-2 3.2-3.7 6-6.2 6.2-2.6.4-6.4-1.7-11.4-6.1-3.2-2.8-5.7-5.9-8.1-8.9-7.8-9.6-14.3-15.2-29.7-7.2l10.8-14.5c-1.4-.7-2.7-1.4-4-2.1L221.4 324c-.1 0-.2 0-.3.1-4.3 2.3-8.8 3.8-13.1 4.6l10.5-29.3c.2-.6.2-1.2-.1-1.8-1.4-.1-2.8-.1-4.2-.2-.1.1-.1.2-.2.3l-11.3 31.5c-3.1.2-6.1.1-8.9-.2v-.5l-5.2-31.7h-4.8l5.1 31.4c-5.2-1-9.2-2.7-11.3-4.1-.1-.1-.2-.1-.3-.1l-10.9-16.2c-1.2.9-2.5 1.8-3.8 2.5l14.2 21.3-19 34.3c-2.8 5.2-3.4 8.4-2 10.6 1.5 2.4 4.4 2.3 6.5 2.3h1.7c.7.1 2.3 2.1 3.3 3.4 2.5 3.1 5.6 6.9 10 6.2 3.2-.5 5.6.7 8.3 2.1 2.7 1.4 5.8 2.9 10 2.9.6 0 1.1 0 1.7-.1 3.6-.4 6.9-1.8 9.7-3 3-1.3 5.6-2.4 7.5-1.8 5.2 1.8 10.6-1.8 14.2-4.1.7-.4 1.2-.8 1.7-1.1l.6-.4c3.4-2 11.1-6.5 6.5-17l-14-29.7c12.1 1.9 17.4 4.8 18.1 14.2.7 9.8 7.1 17.7 12.7 19 .5.1 1 .2 1.5.2 1.9 0 3.5-.8 4.4-2.5.7-1.1.3-2.5-.8-3.2-1.1-.7-2.5-.3-3.2.8 0 .1-.1.2-.7.1-2.9-.7-8.5-6.3-9.1-14.8-.9-13.6-10.9-16.9-23.3-18.6-.4-.2-.8-.3-1.3-.2l.6-.8c21.4-15.3 25.8-9.9 33.8-.1 2.4 3 5.1 6.3 8.6 9.4 5.6 4.9 10 7.3 13.8 7.3.5 0 .8 0 1.3-.1 4.6-.7 7.1-4.6 9.4-8.4.5-.7.8-1.3 1.3-2 .5-.9.1-2.4-.9-3.2zm-107.5-1.4v-.7c4.7 1.6 10.7 2.7 17.3 2.7 1.6 0 3.2-.1 4.8-.3h.2c.2 0 .4-.1.7-.1 3.7-.4 7.6-1.2 11.3-2.4v.6c0 .2.1.3.1.5 0 .1 0 .2.1.3l.5 1c-13.4 5.6-28.7 2.1-35-1.2v-.4zm51.2 36.2c2.6 6-.5 8.4-4.7 10.9l-.7.4c-.6.4-1.2.7-1.9 1.2-3 2-7.1 4.6-10.2 3.5-3.6-1.2-7.1.3-10.8 2-2.6 1.1-5.4 2.3-8.3 2.6-3.7.4-6.3-.9-9.1-2.4-3-1.5-6.4-3.3-11.1-2.5-1.8.3-3.8-2.3-5.7-4.6-2.1-2.5-3.9-4.8-6.5-5-.7-.1-1.4-.1-2.1 0-.7 0-2.2 0-2.5-.1 0-.1-.4-1.3 2.1-6l17.8-31.7c1.9 1 4.3 2 7 2.8-.4.3-.7.7-.8 1.2l-9.1 33.8c-.4 1.2.4 2.5 1.7 2.9.2.1.4.1.7.1 1 0 2-.7 2.2-1.7l9.1-33.8c.2-.6.1-1-.1-1.5 3.2.7 6.6 1.1 10.3 1.1v15.9c0 1.3 1 2.3 2.3 2.3s2.3-1 2.3-2.3v-15.9c4.6-.4 9.2-1.4 13.8-3.4l14.3 30.2z"/><g fill="#CAB183"><path d="M200.9 46.3v.3c-.2.4-.7.7-1.4 1.1 1.3 0 2.6.3 3.8.6.7-.2 1.4-.4 2.1-.5.4-1.2.2-2.6-.5-3.8-.7-1.5-2.5-2.4-5.1-2.5-7.8-.7-24.2 4.1-29.8 11.7-.4.5-.7.9-.8 1.4.8.1 1.7.2 2.5.5.7.2 1.4.5 2.1.7 5.6-7.3 24.1-11.2 27.1-9.5zm102.5 119.5c3.5.5 6.9 6.8 7.7 9 .5 1.1 1.9 1.8 3 1.3s1.8-1.9 1.3-3-4.6-10.7-11.3-11.7c-.8-.1-1.7-.1-2.5 0 0 1.6-.1 3.2-.2 4.8.7-.4 1.4-.4 2-.4z"/><path d="M322.1 193.4c5.1-.9 9-4.1 10.5-8.8 2.4-7.2-1-16.6-9.3-25.9-8.4-9.3-16.1-12.3-22-12.8.1.7.1 1.5.1 2.1 0 .7.1 1.6.1 2.3 1.5.2 3 .6 4.5 1.1 4.6 1.7 9.1 5 13.6 10 7.2 8 10.2 15.9 8.4 21.4-1 3-3.5 5-6.9 5.7-8.4 1.5-16.5-4-20.6-10.5-.3 2.1-.6 4.3-.9 6.4 5.2 6.2 13.4 10.7 22.5 9zM202.8 337c-.6-.7-1-1.5-1.6-2.2-.9-.1-1.9-.2-2.8-.3 1.4.9 2.9 1.7 4.4 2.5z"/><path d="M392.4 212.8v-.7c0-.5-.3-.9-.7-1.2.5-4.7.2-10-.9-15.2-1.9-9.3-5.9-17.6-11.1-23.5-.8-.9-1.8-1.8-2.5-2.5 3.2-.5 7-1.2 10-2.6.1-.1.3-.2.4-.3.2-.2.4-.2.6-.3 4.3-2.7 5.7-8.9 4.2-17.3-1.4-7.6-5.1-16.6-10.7-25.2-1.6-2.4-15.9-24.2-26-22.8-1.7.2-3.8 1.1-5.4 4.1-1 .1-2 .5-2.8.8-.7-11.1-10.6-23.9-26.5-32.4.4-1 .4-2.4-.4-4.2.7-.7 1.1-1.3 1.5-1.9 1.1-2 1.2-4.3.3-6.3-3.5-7.6-22.9-15.8-39.5-20.3-13.1-3.6-25.9-5.6-36-5.5-10.8 0-17.3 2.5-18.9 7.1v.1c-.2.7-1.5 3.8-2.3 7.3-.6-4.8-2.4-9.8-5.7-12.4-.3-.5-.7-.9-1.1-1.2-5.6-4.8-21.4-2.9-33.7.7-9.7 2.8-18.5 6.8-24.6 11.3-3.4 2.5-5.7 4.8-7.1 6.9.4 0 .7-.1 1-.1 1.6 0 3.1.3 4.5.7 1.1-1.2 2.6-2.5 4.4-3.8 5.8-4.1 14-7.9 23.2-10.6 14.3-4.1 26.4-4 29.4-1.5.1.1.2.2.4.5h.1c.4.6.7 1.5.4 2.7-.3 1.1-1.1 3.1-4 5.3 1.7.6 3.4 1.2 4.9 1.9 1.2-1.3 2.1-2.5 2.7-3.7.5 1.8.7 3.7.9 5.7 1.2.8 2.3 1.8 3.4 2.8l.5.5c1.1-.2 2.2-.4 3.4-.4 4.8 0 9.2 2.1 12.3 5.6 3.5 3.1 5.6 7.5 5.6 12.3 0 3.6-1.2 6.9-3.2 9.7 0 0 0 .1-.1.1 1.2.9 2.3 1.9 3.5 2.9.1 0 .2 0 .3-.1.3-.4.5-.7.7-1 .1.3.2.7.2.9 1.5-.2 3-.4 4.6-.4-.3-2-1-4.1-2.6-6.3 1.1-5.3.2-10.5-1.7-13.7-.7-1.3-1.6-2.3-2.8-3.5 4.6 2.3 9.7 4.7 15.4 6.7 4.4 1.6 9 3.1 13.8 4.3 1.2.4 2.3.6 3.5.9-.3 1.1-.5 2.3-.5 3.5-3.6 3.3-5.6 7.6-5.8 10.8-.1.7 0 1.3 0 2.1 5.5 2.9 10.2 6.7 14 11.1 8.5 3.8 17 9.2 20 15.4 1.4 3 1.5 5.8.1 8.8-1.3 2.7-3.5 4.7-6.2 5.8.3 1.5.7 3 .8 4.6 4.4-1.6 7.6-4.5 9.6-8.5 2.1-4.2 2.1-8.6 0-12.8-1.2-2.4-3-4.7-5.2-6.7 6.4 2.8 11.3 6.9 14.1 11.7 2.6 4.6 3.2 9.7 1.7 14-1.1 3-3.4 5.3-6.6 7.3-4.4-1.8-8.9-2.6-13.1-1.8.2 1.6.4 3.1.6 4.6.1 0 .3-.1.4-.1 7.2-1.5 18.8 4.3 28.3 14 4.2 4.5 7.6 9.5 9.8 14.5 5 11.3 4.6 22.6-2.2 29.3-9 8.7-26.1 6.1-39.7-5.6-.1.5-.2.9-.3 1.4-.4 1.8-.7 3.4-1 5.2 0 0-.3 2.1-.5 3 .1.1.2.2.2.3 4.7 7 5.4 18.3 1.6 28.6-3 8.4-8.9 14.9-16.1 18.9-2.9 3.1-6.2 5.9-9.7 8.3 5.6-1 11-3.3 15.7-6.5l1 1.3c4.1 6.8 5.4 14.4 6.6 20.9.8 4.5 1.6 8.7 3.1 11.9-8.1-3-20.8-8.8-26.9-16.8-2.1-2.8-3.1-5.6-3.1-8.4-1.5.8-2.9 1.7-4.4 2.4 1.5 9.4 11 17.3 22.3 22.8-1.2.7-2.3 1.5-3.5 2.3-9 6.1-14.8 10.2-23.9 3.8-3.4-2.3-6.6-4.5-9.6-6.3.6-1.4 1.3-2.7 2.1-4.1 2.3-4.5 4.8-9.2 4.8-14.8-1.3.6-2.6 1.1-3.8 1.7-.1.2-.1.4-.2.6-.5 1.2-1 2.4-1.7 3.5-.8 2.2-2 4.4-3.2 6.7-2.6 5.1-5.3 10.4-5.3 17v.5c-2.7-.9-10.2-8.2-17.3-19.6-1.6-1-3-2.1-4.4-3.4l-1.8 2.4c4 6.8 8.4 12.8 11.8 16.8 4.8 5.3 7.8 7.5 9.9 8.2.5.2.8.3 1.2.3 1.3-1.6 2.9-2.9 4.8-3.8.1-.5.1-.9.1-1.5-.1-2.2.4-4.2.9-6.2 2.7 1.8 5.6 3.6 8.7 5.9.1 0 .1 0 .2.1l-.6.4c.7.2 1.5.3 2.2.6 1 .4 2.1.9 3 1.5l.2-.2c.3.1.6.3.8.4 9 3.3 16.2-1.7 23.7-6.7 1.9-1.3 3.8-2.6 5.9-3.9 1.5.7 3 1.2 4.5 1.7 1.2.5 2.3.8 3.5 1.2 6.1 1.9 8 2.2 9 0 .8-2.1-1.5-3.3-2.2-3.6-1.8-.7-2.9-2.4-3.7-4.7 1.5-.5 2.9-.9 4.5-1.3 7.7-1.7 12.9-.5 17.9.7 6.9 1.7 13.4 3.1 23.9-4.6 12.4-9.1 13.7-15.6 14.7-20.1.9-4.1 1.5-6.7 11.1-10.4 20.6-8.6 18.9-24.5 17.4-37.3zm-6.1-16.2c2.4 12 .3 24.2-5 27.7-1.9 1.2-6.1 2.3-10.4.4-5.6-2.4-9.5-9.1-11.2-19.4-2-11.3.3-17.4 3-19.5 1.9-1.4 3.9-.8 5.2-.2 6.3 3.2 9.6 12.5 9 19.7-.3 3.2-1.2 4.9-2 5.2-2.1.7-2.8.1-3.1-.1-1.9-1.6-2.1-6.9-1.7-10.3.2-1.2-.7-2.4-2.1-2.6-1.3-.2-2.4.7-2.6 2.1-.1 1-1.2 10.6 3.4 14.5 1.4 1.1 3.7 2.1 7.5.9 3-1 4.8-4.3 5.1-9.2.7-8.6-3.2-20-11.6-24.2-3.5-1.8-7.2-1.6-10 .6-5 3.7-6.8 12.4-4.8 24 2.2 13.1 7.4 19 11.9 21.8-.7 0-1.4 0-2.1-.3h-.1c-5.1-1.9-10.7-11.9-13.1-23.9-3.4-16.8 1.6-32.6 10.9-34.6 2-.4 3.8-.2 5.8.6 2.6.9 5.3 2.9 7.8 5.7 4.9 5 8.4 12.6 10.2 21.1zm-39.2-14.4c-.4-3.3-1.2-6.4-2.4-9.6 2.1-.7 4.9-1.7 8.1-2.4-2.6 3-4.5 7.1-5.7 12zm.1-69.9c.4-.7 1.9-2.3 4.5-2.3.9-.1 2.1.1 3.5.6 3.7 1.4 9.1 5.4 15.8 16.3 7.7 12.6 7.6 18.7 6.4 20.3-.4.6-1.2.7-2.5.3-6.1-1.7-12.5-9.9-15.5-16.8-1.6-3.7-1.7-5.9-1.6-6.2.6-.6 1-.6 1.1-.5 2.3.6 5.4 6.5 6.7 10.4.5 1.2 1.8 1.9 3 1.4s1.8-1.7 1.4-3c-.7-2-4.4-11.9-9.9-13.3-1.3-.4-3.4-.4-5.4 1.5-1.5 1.4-2 3.7-1.2 7 1.9 7.9 10.6 21.3 20 23.9 3.2.8 5.9.2 7.5-2 3.4-4.4 1.1-13.5-6.2-25.5-7.4-12-13.8-16.8-18.7-18.5 4.3-.6 13.6 8.6 21.5 20.7 5.1 8 8.8 16.4 10 23.5 1.1 6.2.3 10.8-2.1 12.5-2.4 1.6-7.1.4-12.2-3.3-6-4.1-12-10.8-17.3-18.9-7.9-12.2-10.7-24.2-8.8-28.1zM229.4 54.5c.1-1.1.4-2.4.7-3.7 1.5 1.9 3.6 3.8 6.4 5.8-2.2-.9-4.6-1.5-7.1-2.1zm46 13.8c-12.8-3.5-24.3-8.2-32.6-13.1-8.6-5.1-11-9-10.5-10.9.6-2 4.6-4.1 14.6-4.1 9.6-.1 21.9 1.9 34.8 5.3 20 5.5 34.6 13.6 36.6 17.9.1.3.4 1-.2 2.1-.9 1.7-3.5 2.8-7.2 3.3-.2 0-.4.2-.6.2-8.7-3.3-17.7-4.8-24.1-3.3-1.6-.4-3.2-.8-4.8-1.4-22.1-6.4-26.5-11.8-26.5-12.9 0-.1.6-.6 2-.9 12.1-3.5 37.4 5.5 39.8 9.1-1 1.2-9.2-.5-17.9-4.5-1.2-.6-2.6 0-3.1 1.1-.6 1.2 0 2.6 1.1 3.1 3.9 1.9 17.1 7.3 22.2 4.1 1.4-.8 2.2-2.3 2.3-4.1 0-1.5-.8-2.9-2.6-4.3-6.7-5.1-30.7-12.5-43.1-9-4.6 1.3-5.3 3.9-5.2 5.3 0 5.5 10.1 10.5 19.8 14.1 3.6 1.3 7.1 2.4 10.1 3.3l.4.1c-.2.2-.3.3-.5.6-1.8-.2-3.2-.7-4.8-1.1zm36.6 38c-.1.1-.3.1-.4.1-3.5-2.2-7.6-4-12.3-5.4-.2-.2-.2-.3-.4-.5-4.3-3.3-6.1-6.3-5.5-7.7.9-2.4 2.1-2.7 2.5-2.9 3.1-.7 8.7 3.4 11.4 6.2.8.9 2.3.9 3.3 0 .9-.8.9-2.3 0-3.3-.8-.9-9-9-15.7-7.5-1.9.5-4.4 1.8-6 5.8-.7 2.1-.3 4.6 1.4 7.2-4.8-2.3-9.6-4.2-13.7-5.5v-.1c-.6-1.6-.7-3-.7-4.3.2-2.5 2.3-7.1 7-9.7 6.5-3.4 15.9-2 26.9 4.2 12.2 6.8 16.3 13.6 16.1 17.6-.1 2.7-2.2 4.2-3.8 4.8-2.8 1.3-6.3 1.6-10.1 1zm5.8 4.9c2.2-.2 4.3-.7 6.2-1.5 4-1.7 6.4-4.9 6.6-8.9.3-7.1-6.4-15.1-18.5-21.9-14.5-8-23.9-7.5-29.7-4.9.5-1.1 1.2-2.1 2.2-2.6 5.6-3.5 19.1-1 32.5 5.8 18.5 9.5 29.7 26 24.4 35.9-2.6 4.9-8.9 7.7-17.4 7.7-.5-1.2-1-2.4-1.8-3.6-1.1-2.3-2.7-4.2-4.5-6zm.6 31.7c2.9-2.2 4.9-4.9 6.1-8 1.1-3 1.3-6.3.8-9.6 4.8-.2 9-1.1 12.4-2.7-3.5 8-9 17.4-18.6 20.7-.2-.1-.4-.3-.7-.4zm14.5 11.2a77.1 77.1 0 0 0-9-7.7c10.2-5 15.7-15.9 19.1-24.1 1.6 6.7 5.2 14.5 9.3 20.8 5.5 8.6 12 15.7 18.5 20.1 1.2.8 2.3 1.6 3.4 2.1-1.5.2-2.6.3-3.1.3-1.9-.7-3.9-1.1-5.9-1.2-7.7-.9-17.2 2.1-22.2 3.9-2.5-5-5.9-9.8-10.1-14.2zm7.6 50.4c2.6-2.5 4.4-5.5 5.5-8.9.1 2.9.5 6.1 1.1 9.1 1.8 8.5 5.5 18.6 11.2 24.2-3.1-.3-6.6-.7-9.6-2.1-.4-.1-.7-.2-1.1-.2-1.5-5.8-3.7-11.1-5.4-14.2-1.2-2.1-2.6-4.1-4.1-5.9.7-.7 1.7-1.3 2.4-2zm-14.6 13.7c2.1-.6 5.3 1.1 7.1 5.3 2.9 6.6 1.8 8.1 1.8 8.1-.3.2-1.7.1-3-.5-1.2-.6-2.6 0-3.1 1.1-.6 1.2 0 2.6 1.1 3.1.5.3 5.3 2.3 8.1-.5 3.1-3.1 1-9-.8-13.3-2.5-5.8-7.6-9-12.3-8 3.3-1.3 6.4-2.9 9.2-4.6 1.5 1.7 2.8 3.5 3.9 5.6 3.5 6.3 8.7 21.4 5.5 29.1-.9 2.1-2.5 3.5-4.7 4.1-2.5.7-5 .3-7.4-1.4-4.5-3-8.1-10.1-9-17.1-.5-5.9.8-10.2 3.6-11zm-8.1 11.6c.7 7 4.5 16 10.9 20.4 1 .7 2.1 1.3 3.3 1.7 2.5.9 5.3 1 7.9.3 3.6-.9 6.2-3.4 7.7-6.8.5-1 .7-2.1.9-3.3.7 3.7.6 7.2-.5 10.2-.9 3.7-3.5 6.5-6.6 7.7-8.3 3.2-20.3-7.2-26.2-22.8-2.8-7.3-4-14.6-3.4-21.1 3.9-.1 7.6-.8 11.1-2.1-2.5 1.5-6.3 5.4-5.1 15.8zm-7.5-21.4c3 1.1 6 1.8 9 2.1-4.8 1.3-10 1.6-15.8.2-.7-2.6-1.8-5.1-3.4-7.5 3.3 2.3 6.8 4 10.2 5.2zM291 251.9c4.8-4.2 8.6-9.7 10.9-16.1 2.1-5.7 3.4-13 2.4-20 .9.2 1.9.3 2.7.4-.7 7 .6 15.1 3.6 22.9 4.6 11.7 11.8 20.5 19.5 24.2-13.5 1.9-31.6-1.3-39.1-11.4zm81.1-6.1c-11.1 4.4-12.7 8.2-13.9 13.8-.9 4.3-2 9.3-13 17.4-8.7 6.4-13.4 5.3-20 3.8-5.2-1.2-11.2-2.6-19.9-.7-1.6.3-3.2.8-4.8 1.3-.4-1.7-.7-3.5-1-5.3-.7-4.2-1.6-9-3.3-13.8 1.9 1.1 3.8 2 6.1 2.8 13.6 4.9 31.1 4.3 41-.7 4.3-1.7 7.7-5.5 9.4-10.4 2.1-6.3 1.2-13.9-2.6-21.7 7.9 2.2 16.1.7 17.4.3 1.8-.2 3.6-.8 5.7-2.4 4.2.7 8.2-.4 10.5-2.1 1.9-1.2 3.5-3.2 4.7-5.5.3 9.1-2.3 17.7-16.3 23.2z"/></g><path fill="#CAB183" d="M288.3 106.6l-.6-.5c-.4-.4-.8-.5-1.3-.5-3-3.6-6.9-7.3-11.3-10.3-7.8-5.3-16.5-8.5-24.3-9-1.2-.1-2.4 0-3.5 0 2-2.5 4.1-5.8 5.3-8.9 0-.1.1-.4.1-.5 0-.2.1-.4.2-.7 1.1-4.9-2.1-10.4-9-15.2-6.3-4.5-15.3-8.2-25.3-10.4-2.9-.7-28.2-6.2-34.6 1.9-1 1.3-2.1 3.5-.9 6.7-.7.8-1 1.7-1.4 2.6-8.2-7.5-24.3-9.6-41.7-4.7-.5-1-1.4-2.1-3.2-2.7 0-.9-.1-1.7-.3-2.3-.6-2.2-2.1-3.9-4.2-4.8-7.7-2.9-27.4 4.8-42.5 13.1C77.9 67 67.4 74.5 60.2 81.7c-7.7 7.6-10.6 14-8.6 18.4v.1c.3.6 1.6 3.7 3.5 6.8-3.8-3.1-8.6-5.3-12.8-4.8-.6-.2-1.2-.2-1.7-.1-7.4.6-17.3 12.9-23.6 24.1-4.9 8.8-8.4 17.7-9.7 25.3-1.9 10.6 1 14.7 3.9 16.3.2.1.4.1.7.2.1 0 .2.1.3.2.7.2 1.3.6 2.1.8 4.3 1.9 10.8 4.4 18.5 2.9l.1.3c-6.3 3.4-12.7 10.5-17.1 19.4-4.4 8.8-6.2 18-5.7 26.1.6 6.4 2.7 11.6 6.2 14.9 2 2 3.9 3.7 5.9 5.2-.4 20.2 8.2 26.2 15.1 31 4.7 3.3 7.9 5.5 8.4 11.3 1.8 22.1 20.1 22.4 33.6 22.6 5.8.1 11.3.1 14 1.9 11.3 7.2 20 6 28.1 3.7 1.9 3.5 3.9 6.5 5.4 8.5 2.1 2.7 4.5 5.2 7 4.2.1 0 .1 0 .2-.1 2.4-1.1 2-4.2 2-5.2-.3-2.9-.3-6.1 0-9.3 2.1.6 4 1.7 6 3.5 3 2.6 8.2 3.7 14.7 2.9.8-.1 1.8-.3 2.6-.5l.5.3c.5-.4 1-.7 1.7-.9 1.4-.7 2.8-.8 4-.8l-.3-.2c.9-.3 1.9-.7 2.7-1.1 6.8-3.1 13.7-8.3 18.6-16.1 4.2-6.7 17.3-14.4 23.5-17.6 7.8 2.1 15.5 3.5 20.9 3.8 7.1.5 10.8-.2 12.8-1.1 1.8-.8 2.2-1.9 2.4-2.3.6-1.2.7-3.2-1.7-5.5-1.6-1.5-2.7-3.3-3.6-5.1 3.1-.6 6.3-1.3 9.9-1.9.4-.3.8-.6 1.3-.7 1.5-.7 2.9-.9 4.3-.7l.1-.3c.3-.1.7-.2.9-.3 8.8-4 10.4-12.5 12.2-21.4.4-2.2.9-4.5 1.5-6.9 1.5-.6 2.9-1.2 4.4-1.9 1.2-.6 2.3-1 3.4-1.6 5.7-2.9 7.3-4 6.3-6.2-.9-2.1-3.4-1.2-4.1-1-1.9.7-3.7.3-6-.7.7-1.3 1.4-2.7 2.2-4 4.4-6.6 8.9-9.3 13.2-12 6.1-3.7 11.7-7.2 13.9-20 2.4-15.2-1.1-20.7-3.6-24.7-2.2-3.6-3.6-5.8.6-15.2 9.3-21.4-3-31.5-13-39.6zm-37.8-15.4c7 .5 14.8 3.4 22.1 8.2 10.2 6.9 17.1 17.1 15.8 23.2-.5 2.1-2.6 5.9-7.1 7.6-5.7 2.1-13.1.1-21.5-6-9.3-6.7-12-12.7-11.5-16 .4-2.3 2.1-3.4 3.6-3.8 6.8-2.1 15.7 2.2 20.2 7.7 2.1 2.4 2.6 4.4 2.2 5.1-1 2.1-2 2.1-2.2 2.1-2.4.2-6.3-3.5-8.4-6.2-.7-1-2.2-1.2-3.3-.5-1.1.8-1.2 2.2-.5 3.3.7.8 6.6 8.5 12.5 7.9 1.8-.2 4.2-1.1 6.1-4.6 1.4-2.8.5-6.4-2.8-10.2-5.6-6.6-16.2-12-25.2-9.1-3.7 1.2-6.2 3.8-6.8 7.4-1 6.2 3.8 13.6 13.2 20.5 10.7 7.7 18.6 8.5 23.8 7.3-.5.6-1 .9-1.7 1.3h-.1c-5 2.2-16-1-26.1-7.8-14.2-9.6-21.7-24.4-16.4-32.4 1.1-1.6 2.6-2.8 4.5-3.6 2.5-1.3 5.8-1.7 9.6-1.4zm26.9 67.2c3.2 2.1 5.4 4.8 6.8 7.6 2 3.4 2.1 7.1.7 10.2-3.7 8-19.6 9-34.7 2.1-7.1-3.3-13.1-7.6-17.2-12.7 2.7-2.8 4.8-6 6.5-9.2-.9 2.7-.9 8.1 7.2 14.8 5.4 4.5 14.5 8.3 22.1 7 1.2-.3 2.4-.6 3.5-1.1 2.4-1.1 4.5-3 5.9-5.3 2-3.3 2.1-6.8.7-10.3-.2-1.2-.8-2.2-1.5-3.1zm-163-56.2c.7.8 1.5 1.6 2.4 2.2-.1 0-.3.1-.3.3-6.3 3.9-11.1 8.7-14.2 13.8-1.2-2.8-3.9-6.3-10.1-7.6-2.9-4.7-7.3-7.6-10.8-8.7-1.4-.4-2.8-.6-4.4-.5 4.9-1.5 10.2-3.5 15.7-6 4.3-2 8.6-4.1 12.9-6.5 1-.6 2.1-1.2 3.2-1.9.6 1 1.3 2 2.1 2.9-.2 5.1 1.4 9.5 3.5 12zm4.7 6.5c8.6-5.3 28.9-13.6 39.5-9.9 3.1 1.1 5.1 3.1 6.2 6.2 1.1 3.5.7 7-1.3 10.3-3.8 6.4-13.3 12.2-23 13.8-10.3 1.8-15-.8-16-3.9-.9-3.1 1.2-7.8 7.1-10.8 9.3-4.7 11.5-3.2 11.7-3 .7.7.4 3.3-.2 4.7-.5 1.2.1 2.5 1.3 3 1.1.5 2.5-.1 3-1.3.3-.7 2.5-6.6-.9-9.9-3-2.7-8.3-2.1-16.9 2.2-7.4 3.6-11.4 10.6-9.4 16.5.7 2.4 4.6 9.9 21.3 7.1 9.2-1.6 20.9-7.2 26.2-16 2.7-4.6 3.3-9.5 1.7-14.2-1.5-4.5-4.6-7.6-9-9.1-2.5-.9-5.4-1.2-8.4-1.2 6.5-2.4 12.9-3 18.3-1.5 5 1.5 9 4.7 11 8.9 1.3 2.9 1.4 6.2.4 9.9-4.5 1.9-8.3 4.5-10.7 8-1.9 2.9-2.6 6.2-2.2 9.6-8.6 7.2-20.3 13-31.5 15.3l-.7-.3c-4.4-1.1-10.4-1.3-17.3 1.2h-.1c-7.3-1.1-12.4-4.2-14.5-8.8-3.8-7.9 2.5-19.4 14.4-26.8zm26.7-30.5c-1.2-.1-12.7-.1-16.4 5.6-1 1.6-2 4.4-.2 8.3.9 2.1 3 3.4 6 4.1-5 1.7-9.8 3.7-13.6 5.7v-.1c-1.5-.7-2.6-1.6-3.4-2.6-1.6-2-3.4-6.7-1.8-11.7 2.2-7.1 9.9-12.5 22.1-15.8C152 68 159.6 70 162.2 73c1.9 2.1 1.3 4.5.7 6.2-1.1 2.9-3.5 5.6-6.7 7.7 0 .1-.1.3-.2.3-4.1.9-8.3 2.5-12.6 4.8-.2 0-.4-.1-.6-.1-5.3.7-8.8-.4-9.3-1.7-1.1-2.4-.4-3.5-.2-3.8 1.8-2.6 8.6-3.6 12.4-3.5 1.2.1 2.3-.9 2.3-2.3.2-1.3-.9-2.4-2.2-2.4zm33.3 12.9c3.3-3.5 5.6-7.1 7-10.6 3.1 8.2 5.8 18.7 1.1 27.9-.3.1-.5.1-.7.2.5-3.6.1-7-1.2-10s-3.6-5.6-6.2-7.5zm25.5 19.8c6.2.3 12 1.5 17.2 3.4 11.5 4.6 19.1 13 18.9 22.5-.4 13.7-17.2 24.4-37.4 23.9-14.4-.4-27.2-7-29.9-15.4-.2-.7-.3-1.3-.5-2.1l-.1-3.6c.2-3.4 1.3-7.4 3.9-10.7 1.8-2.3 4.2-4.1 7.1-5.4 4.4-2 10-2.8 16.8-2.3 10.7.7 18.4 4.2 20.9 9.3 1.4 2.9 1 6.1-.9 9-5.1 7.3-15.5 8.9-23.1 6.7-4.1-1.2-6.9-3.3-7.1-5.5-.2-2.6.3-4.3 1.5-5.2 2.9-2.1 9.6 0 11.8 1 1.1.5 2.5 0 3.1-1.2.5-1.1 0-2.5-1.2-3.1-1.1-.4-10.7-4.5-16.3-.5-2.6 1.9-3.8 5-3.4 9.3.3 4.3 4.3 7.8 10.4 9.6 9 2.5 21.5.9 28.2-8.5 3-4.2 3.5-9.1 1.4-13.6-3.3-6.8-12.3-11.2-24.8-12-15.9-.9-24 4.6-27.7 9.5 0 .1-.1.2-.3.3-.1-2.1.5-3.9 1.6-5.5 4-6.1 16.3-10.2 29.9-9.9zm29.8 5.5c-2.5-2.1-5.4-3.7-8.5-5.1 1-2.1 2.4-4.7 4.1-7.4.3 3.9 1.9 8.2 4.4 12.5zm24.9 50.1c.6-.2 5.4-2.1 5.5-6 .1-4.4-5.6-7.2-9.9-9-5.8-2.4-11.8-1.1-14.4 2.9 1.5-3.2 2.5-6.5 3.4-9.8 2.2.1 4.5.6 6.7 1.2 7 2.1 21.2 9.2 24.2 17 .8 2.1.7 4.3-.5 6.2-1.3 2.2-3.5 3.7-6.2 4.1-5.3.9-12.9-1.5-18.4-5.9-4.8-3.9-6.8-7.8-5.4-10.4 1.1-1.9 4.7-2.9 8.8-1.2 6.6 2.7 7 4.5 7 4.5-.1.4-1.2 1.2-2.5 1.8-1.2.5-1.9 1.8-1.4 3 .6 1.4 1.9 2.1 3.1 1.6zm-25-10.3c-2.5 4.3-6.1 8.2-11.1 11.2-2.3-1.4-4.8-2.4-7.6-3 3.8-.7 7.5-2 10.8-3.4 3-1.4 5.6-3 7.9-4.8zm-55.4 20.1c-1.5.8-2.7 1.7-3.8 2.4-7 5.5-11 14.4-11.4 23.9-3.3-1.1-6.7-1.7-10.4-1.6 7.3-9.7 10.3-21.4 7.9-32.1 3.4-.7 6.2-1.6 8.5-2.6 1-.5 2-1 3-1.6 1.7 4.4 3.8 8.2 6.2 11.6zm-7.7-16c-3.3 1.8-6.3 3.2-11.3 4.1-.3-.6-.4-1.1-.7-1.8-3.3-7.2-8.8-13.1-15.3-16.7 3.3-.9 6.5-2.2 9.8-3.7 5.8-2.6 11.1-5.9 15.8-9.5-.8 2.3-1.2 4.4-1.3 6.4v.4c-.1 1.5-.1 2.8.1 4 .3 5.8 1.2 11.5 2.9 16.8zm3.4-5c6.2 5.8 16.4 9.6 27.7 10.1-3.3 1.2-6.4 3.2-9.4 5.8-3.4.7-6.7 1.9-9.7 3.1-3.8-5.1-6.8-11.7-8.6-19zm-62.4-8c-1.9 1.1-3.8 2.4-5.8 4-6.6 1.6-12.8 4.1-17.2 6.6 4.5-6.2 8.7-13.1 11.3-19.9 2.2 4.3 6.3 7.4 11.7 9.3zm-16.5 12.5c8.2-3.7 20-7.1 29.5-4.1 6.1 1.9 10.4 6.2 12.9 12.8 2.6 7.1 2.1 13.8-1.5 19.3-4.2 6.4-11.9 10.7-20.4 11.3-11.9.8-17.9-4.8-19.4-10.4-1.6-5.5.8-11.3 5.9-13.9 5.6-3 9.8-3.7 11.8-2.1 2.5 1.9 2.1 7.2 1.7 9-.3 1.2.7 2.5 1.9 2.7 1.2.3 2.5-.7 2.7-1.9.2-1 1.8-9.7-3.4-13.6-3.7-2.7-9.1-2.1-16.8 1.9-6.9 3.6-10.4 11.6-8.1 19.3 2.1 7.4 9.5 14.8 24.2 13.9 9.8-.7 19.1-5.8 24-13.3 3.1-4.8 5.9-12.7 2-23.5-3.1-8-8.3-13.3-15.9-15.7-3.1-.9-6.2-1.4-9.5-1.3 6.2-3 12.2-3.8 18-2.4 8.4 2 16 8.6 20 17.3 7.8 17.3-3.4 39.3-24.9 49-21.6 9.6-45.6 3.5-53.4-13.7-5.5-12.1-.7-27.7 11.2-36 1.6-1.4 4.2-3.1 7.5-4.6zm-25.9 29c-2.9-3.4-5.8-6.4-8.3-8.9.9-.3 1.8-.7 2.6-1 3.4-1.6 6.8-3.5 10.1-6-2.7 5-4.2 10.4-4.4 15.9zm.6 8c.2.2.4.4.6.5.5 1.7.9 3.3 1.7 4.8 2.1 4.6 5.1 8.4 8.9 11.6 0 3.3-1.2 7.7-4.2 10.9-5.3 1.3-10.5 3.9-14.7 7.9-1 .9-1.9 1.9-2.8 2.9-12.6 5.9-22.2 6.4-31.1 1.4 2.3-.3 4.7-.9 7.2-2.1 1.4-.7 2.8-1.4 4.2-2.3 6.8-4.4 13-11.7 17.3-20.4 3.4-7 6.3-16 6.2-23.4 2.1 2.4 4.5 5.2 6.7 8.2zm15.4 20c8.8 5.4 20.2 7.4 32 5.5-3.5 6.2-5.3 12.9-5.2 19.5-.7-.3-1.3-.7-2-1.1-3.3-5.9-8-10.4-11.5-12.9-4.6-3.1-10.1-4.4-15.7-4.1 1.3-2.4 2-4.6 2.4-6.9zm37.2 41.3c0-.2 0-.4-.1-.6-.6-4.4-2.4-8.2-5.4-11.6-1.5-8.5 1-17.5 6.8-25.2 2.6-.7 5.2-1.7 7.7-2.8 6.7-3.1 12.4-7.2 17.1-11.9 5.4-.7 10.6-.2 14.9 1.7.4 3.9 1.4 7.8 3.1 11.6 2.5 5.5 6.2 10.2 10.4 13.8-.8 7.3-5.5 13.1-13.9 17.6-8.3 4.5-15.9 5.1-21.4 2.1-4-2.2-6.5-6.4-6.7-11.3-.5-10.2 6.3-16.2 12.4-18.2 4.8-1.7 9.1-1 11.1 1.7 1.5 2.1 3.2 5.1 2.1 7.3-1.5 3.1-7.5 4.2-9.5 4.3-1.3.1-2.2 1.2-2.1 2.5.1 1.3 1.2 2.2 2.5 2.1 1.1-.1 10.5-.9 13.4-7 1.6-3.4.7-7.4-2.5-11.9-3.2-4.4-9.6-5.8-16.4-3.5-8.2 2.8-16.1 11-15.5 22.9.4 6.4 3.7 12.1 9.1 15.1 6.3 3.5 14.4 3.3 23.1-.7.9-.5 1.9-.8 2.8-1.4 10.5-5.7 14.5-12.8 15.9-18.6 1 .7 2 1.2 3.1 1.8.5 9.7-8.7 19.6-17.8 25.2-3.8 2.3-7.9 3.9-11.9 4.8-12.6 2.7-25-.8-32.3-9.8 0 .1 0 .1 0 0zm48.3-40.7c-5.7-12.5-2.7-27.4 6.8-34.9 1.4-1 3.6-2.4 6.3-3.7 6-2.7 14.4-4.8 22-2.8 6.7 1.9 11.7 6.8 14.6 14.7 3.2 8.2 2.9 15.6-.9 21-3.3 4.8-8.9 7.6-15 7.5-10.8-.1-16.2-6.7-17.7-13-1.3-5.3.3-10.3 4-12.2 2.9-1.5 6.9-3.1 9.1-1.6 2.8 1.8 2.9 7.7 2.6 9.7-.1 1.3.7 2.4 2.1 2.5 1.3.1 2.4-.7 2.5-2.1.1-1.1.8-10.4-4.7-14-3.4-2.2-8.1-1.8-14 1.3-5.6 3.1-8.1 10.1-6.3 17.5 1.9 7.5 8.8 16.3 22.2 16.4 7.7.1 14.7-3.4 18.9-9.5 4.7-6.7 5.1-15.8 1.4-25.4-3.6-9.4-9.6-15.3-17.8-17.5-1.9-.6-3.8-.8-5.8-.9 4-2.1 8.2-2.7 12.4-1.8 8.2 1.7 16.6 9.2 21.2 19.4 8.1 17.7.4 38.7-17.4 46.7-17.6 8.3-38.5.3-46.5-17.3zm68.4-31c-2.5-5.5-6.7-11.6-12.3-16 .7-.6 1.6-1.1 2.2-1.6 4.4 5.5 11 10.4 18.6 13.9 11.5 5.2 22.8 6.3 30.9 3.7-8.5 10.9-23.6 21.3-36 19.3.6-6.6-.6-13.1-3.4-19.3zm27.1-39.3c-.4.2-.7.4-.9.7-5.1-3.1-10.4-5.3-13.8-6.3-2.3-.7-4.8-1.1-7.1-1.3.2-1 .4-2.1.4-3.2.1-3.6-.7-7-2.2-10.3 2.1 2 4.6 4 7.2 5.8 7.2 4.8 17 9.5 24.8 9.4-2.4 2-5.3 4.1-8.4 5.2zm-81.2-80.7c-.3-.8-.3-2.9 1.5-4.8.7-.7 1.5-1.4 2.9-2.1 3.6-1.7 10.4-2.5 22.7.6 14.4 3.6 18.6 8.1 18.7 10 .1.7-.5 1.3-1.6 2-5.5 3-15.9 1.7-22.8-1.1-3.8-1.6-5.3-3-5.5-3.4 0-.8.4-1.1.5-1.1 2.1-1.2 8.4.9 12.1 2.7 1.2.6 2.6.1 3.1-1.1.6-1.2.1-2.5-1.1-3.1-1.9-.9-11.5-5.4-16.4-2.6-1.2.7-2.6 2.1-2.8 4.8-.1 2.1 1.2 4 4.1 5.9 6.9 4.4 22.5 7.7 31.1 3 2.9-1.6 4.3-4 4-6.6-.7-5.5-8.6-10.4-22.3-13.9-13.7-3.5-21.6-2.3-26.3 0 2.7-3.4 15.8-3.5 29.9-.3 9.2 2.1 17.7 5.6 23.6 9.8 5.1 3.7 7.8 7.6 7.2 10.4-.7 2.9-4.8 5.2-11 6.2-7.2 1.2-16.1.7-25.5-1.4-14.4-3.1-24.8-9.7-26.1-13.9zm3.9 10.2c5.9 3.7 13.9 6.6 21.2 8.3 9.9 2.2 19.6 2.8 27.3 1.5 1.4-.3 2.7-.6 3.9-.8-.9 1.1-1.7 2-2.1 2.3-1.9.7-3.6 2-5.1 3.3-6.2 4.8-10.7 13.6-13.1 18.4-5.1-1.9-10.9-2.9-17.1-3.1-3.7-.1-7.8.2-11.9.8 3.8-10.8.1-22.4-3.1-30.7zm-50-14.3c19.9-6.2 39.3-2.1 42.6 8.6 1.6 5.3-.9 11.7-7 17.7-1.2-.6-2.4-1-3.8-1.4-2.3-.7-4.8-.9-7.4-.9 1.5-1.7 2.6-3.5 3.4-5.4 1.7-4 1.1-8.1-1.5-11-4.8-5.3-15.2-6.3-28.5-2.7-15.9 4.4-22.3 11.5-24.7 17.3-.4-1.1-.6-2.3-.3-3.5 1.4-6.4 12.8-14.2 27.2-18.7zm-76 22.9c6.8-6.8 17-14.1 28.5-20.5 18.1-10.1 34.2-14.5 38.6-12.8.3.1 1 .5 1.4 1.7.6 1.8-.6 4.5-2.8 7.4-.1.2-.1.4-.3.6-8.5 3.7-16 9-19.5 14.5-1.4.8-2.9 1.6-4.5 2.4-20.2 10.7-27.1 10-27.8 9.2 0-.1-.1-.8.7-2 6.3-10.9 30.6-22.3 34.9-21.4.1 1.6-7 6.2-15.9 9.3-1.2.5-1.9 1.8-1.4 3s1.8 1.9 3 1.4c4.1-1.4 17.3-6.7 18.7-12.6.4-1.6 0-3.3-1.2-4.6-1-1.1-2.6-1.5-4.8-1.3-8.4.9-30.8 12.4-37.2 23.6-2.3 4.1-1 6.5 0 7.5 3.8 4 14.5.5 24-3.8 3.5-1.6 6.7-3.3 9.4-4.7l.4-.2v.7c-1.4.8-2.7 1.5-4 2.3-11.5 6.4-23.1 11.2-32.4 13.5-9.8 2.5-14.4 1.4-15.3-.3-1.1-1.5.4-5.8 7.5-12.9zm4 19c-2.1.8-4.4 2.1-6.5 3.4-.7-.9-1.4-2.1-2.1-3.2 2.4.4 5.2.3 8.6-.2zm12.9 2.5c2.8.7 7.7 4 9.7 10.2 2.6 7.9-.8 17.9-9.7 28.9-8.5 10.3-16.9 15.7-22.8 14.4-3.2-.7-4.5-3.4-5-5.5-2.6-10.4 5.6-22.1 12.3-27 3.2-2.3 6.2-3.4 7.6-2.5 2.8 1.6 2.8 3.3 2.8 3.7.2 3.7-5.6 9-9.1 11.4-1.1.7-1.4 2.1-.6 3.3.7 1.1 2.1 1.4 3.3.6 1.1-.8 11.4-7.9 11.1-15.4 0-2.1-1-5.1-5-7.6-3.3-2-7.6-.9-12.7 2.8-9 6.6-17 20.1-14.1 31.9 1.1 4.8 4.3 8 8.6 9 3.2.7 6.6.2 10.4-1.5 5.4-2.4 11.3-7.4 17.1-14.4C96 134.2 96.8 123.5 95 116.7c1.5.8 2.7 2.1 3.3 3.6 3.3 7.8-3.9 23.5-12.6 34.9-8 10.5-18.1 18.3-27.8 21.2-1.5-.8-3.5-1.4-5.9-1.5-3.1-3.2-7-4.8-10-5-1.7-.2-3.4.1-4.9.6-5.5-10.2-1.2-28.3 10.7-44.1 9.9-13.2 24.3-21.8 32.6-19.7zm-31.5 1.8c1.9 1.1 3.7 2.5 5.4 4.1-1.9 1.6-3.6 3.3-5.3 5 .8-4 .6-6.9-.1-9.1zm-35.4 55.3c-2.1-1.1-2.6-5.6-1.7-11.6 1.2-7 4.5-15.5 9.1-23.8 7.4-13 16-21.3 19.9-21.6.1 0 .3 0 .6.1h.1c.7.1 1.5.7 2.1 1.7 1.2 2.1 3.2 8.5-6.6 25-7.9 13.4-13 15.8-14.3 15.6-.3-.1-.6-.7-.7-1.5-1.1-9.2 9.5-25.1 12.9-25.9.2.1.2.2.2.2.6 1.8-2.9 7.3-6.1 11-.8 1-.7 2.5.3 3.3 1 .8 2.4.7 3.3-.3 2.1-2.3 8.5-10.3 7.1-15.3-.5-1.7-1.8-2.9-3.5-3.4-1.6-.6-3.5 0-5.4 1.8-6.1 4.9-14.4 19.9-13.1 29.3.6 4.2 3.3 5.3 4.4 5.5 2.6.6 5.8-1.1 9.1-4.4-.3 1-.5 2.1-.7 3.1-7.6 9.2-14.3 12.7-17 11.2zm7.9 3c2.6-1.4 5.5-3.6 8.5-6.6 0 2.5.4 5 .9 7.4-3.4.5-6.5 0-9.4-.8zm-6.8 50.6c-.6-7.2 1.3-15.7 5.2-23.7 4.2-8.6 10.8-15.6 16.5-18.2 1.9-.8 3.5-1.2 5.1-1.1 2.3.2 6.5 2.1 9 6.4 3.1 5.6 2 13.4-3 22.8-7 13.1-13.1 14-14.8 13.9-2.4 0-3.9-1.8-4.6-3.3-3.2-6.6 0-16.3 4.9-21.7 2.2-2.5 4.2-3.4 5.1-3.1 2.2.8 2.5 1.9 2.5 2.1.7 2.7-3.2 7.6-5.1 9.5-.9.9-.8 2.3 0 3.3.9.9 2.3.8 3.3 0 .7-.7 7.7-7.8 6.3-13.7-.4-1.8-1.7-4.2-5.5-5.6-3.1-1.1-6.7.5-10.2 4.3-5.9 6.5-9.8 18.2-5.7 26.9 1.8 3.7 4.9 5.9 8.6 5.9 6.4.2 13.3-5.9 19-16.4 6.4-12 5.9-20.1 3.9-25.3l1.9 1.9c3 4.8 1.2 16.5-4.3 27.8-3.9 8-9.4 14.6-15.6 18.6-5.8 3.7-11.2 4.7-15.5 2.5-3.8-2.1-6.4-7-7-13.8zm104.5 86.8c-7.3 1.8-14.3 2.4-23.5-3.5-3.8-2.5-9.7-2.6-16.4-2.6-13.6-.2-27.6-.4-29.1-18.3-.7-8-5.6-11.4-10.4-14.7-6.2-4.3-12.6-8.9-13.1-24.1 8.5 4.8 17.5 5.1 28.3 1.3-2.3 4.7-3.7 9.7-3.9 15-.3 9.5 3.1 18.6 9.5 25.5 6.6 6.9 15.4 10.9 25 11.3 5.6.2 11-.8 15.9-3.2 3.5-1.6 6.8-3.8 9.7-6.4.6-.5.9-.9 1.4-1.4.6 6.9 3.4 14.5 6.6 21.1zm-11-23c-6.1 5.6-14 8.6-22.2 8.3-8.3-.3-15.9-3.8-21.6-9.8-5.6-6.1-8.6-14-8.3-22.2.2-8.3 3.8-15.9 9.8-21.6 2.3-2.1 4.9-3.8 7.6-5.1 7.8-3.5 16.8-3.4 23.3 1 4.1 2.7 12.8 11.7 13.3 21.8.3 6.1-2.4 11.6-8.1 16.4-5.9 4.9-12.2 6.7-17.7 5.1-4.8-1.4-8.8-5.2-10.4-10.4-2.9-9 1-15.3 5.7-18.4 4.1-2.5 8.5-2.6 11.1-.1 2.1 2 4.4 4.8 3.8 7-.7 2.7-5.6 4.5-7.2 4.8-1.2.3-2.1 1.6-1.7 2.8.3 1.3 1.6 2.1 2.8 1.7.9-.2 9-2.2 10.6-8.1.9-3.6-.7-7.6-5.1-11.6-4.2-3.9-10.9-4-16.8-.4-5.9 3.8-11.4 12.2-7.6 23.6 2.1 6.6 7.2 11.6 13.5 13.4 7.1 2.1 14.9-.1 21.9-6.1 6.9-5.8 10.2-12.6 9.8-20.2 0-1.4-.3-2.9-.6-4.2 2.4 2.6 3.9 5.6 4.3 9.1.9 7.5-3.2 16.6-10.2 23.2zm22.8 33.7c-3.4-4.1-9.5-14.5-12.4-24.9-1.7-6.2-1.8-11-.4-14 2.1-3.5 3.8-7.4 4.6-11.5 6.4 5.9 15.1 9 24.2 8.9-13.1 11.7-17 28.7-16 41.5zm51.6-24.1c-6 9.4-15.1 14.5-22.8 16.6-.7-.2-1.4 0-2.1.5-.7.1-1.3.3-1.9.4-5.9.7-9.5-.5-11-1.8-2.7-2.5-5.5-4-8.5-4.7 2.1-10.8 7.9-22.3 19.9-29.5 2.9-.7 5.7-1.5 8.5-2.8 1.5-.7 3.1-1.5 4.7-2.4 3.8-2.2 7.9-5.4 11.3-9.1 3.9 7.1 13.2 12.3 23.2 15.8-7.5 4.3-17.3 10.8-21.3 17zm29.7-19.3c-15.6-4.2-26-10.7-28.4-17.6 3-4.2 5.2-8.9 5.5-13.9 8.1 3.1 17.3 3.5 26.1.7 12.9 1.9 15 8.7 17.6 17.3 1.7 5.5 3.4 11.2 8.1 15.8.2.1.3.3.4.4-2.9 1.3-14.8 1.3-29.3-2.7zm52.3-31.9c-2.1 10.6-3.5 17.6-14.5 19.5-4 .7-7.8 1.4-11.3 2.1-.6-1.4-.9-2.8-1.4-4.4-2.1-7.3-4.7-15.3-14.9-18.9 3-1.7 5.7-3.6 8.1-5.8 7.1 8.7 21.2 7.9 34.9 3.5-.2 1.2-.5 2.6-.9 4zm-21.4-5.9c-4.2-.7-7.2-2.3-9.3-5.2 4.5-5.3 7.5-11.7 8.8-18.4l1.6.2c7.6 2.1 13.9 6.5 19.3 10.3 3.7 2.6 7.3 5.1 10.5 6.3-7.9 3.7-21 8.4-30.9 6.8zm53.8-89.3c-4.8 10.9-3.4 14.7-.3 19.6 2.3 3.7 5 8 2.9 21.5-1.7 10.7-5.9 13.2-11.7 16.8-4.6 2.8-9.8 6-14.7 13.4-.9 1.3-1.7 2.8-2.4 4.3-1.4-.9-2.9-2-4.5-3.1-3.5-2.4-7.4-5.2-12-7.6 2.1-.6 4.1-1.3 6.2-2.2 13.1-6 25.2-18.7 28.8-29.3 1.9-4.2 1.7-9.3-.6-14.1-3-6.1-8.9-10.7-17.1-13.7 7.3-3.9 11.9-10.8 12.7-12 1.1-1.3 2-3.2 2.3-5.7 3.5-2.5 5.6-6 6.2-8.9.5-2.1.2-4.7-.6-7.3 6.7 6.6 10.8 14.6 4.8 28.3z"/></svg>