<svg id="Слой_1" xmlns="http://www.w3.org/2000/svg" viewBox="0 0 89.8 89.8"><style>.st0{fill:#fff}.st1{fill:#e805ae}</style><title>Инстаграмм наведённый</title><g id="Слой_2"><g id="Layer_1"><circle class="st0" cx="44.9" cy="44.9" r="41.8"/><path class="st1" d="M58.3 23.9H31.5c-4.3 0-7.7 3.5-7.7 7.7v26.8c0 4.3 3.5 7.7 7.7 7.8h26.8c4.3 0 7.7-3.5 7.7-7.8V31.6c0-4.3-3.5-7.7-7.7-7.7zm-13.4 35C37.2 58.9 31 52.7 31 45s6.2-13.9 13.9-13.9S58.8 37.3 58.8 45s-6.2 13.9-13.9 13.9zM59.2 34c-1.8 0-3.3-1.5-3.3-3.3s1.5-3.3 3.3-3.3 3.3 1.5 3.3 3.3S61 34 59.2 34z"/><path class="st1" d="M44.9 37c-4.4 0-8 3.6-8 8s3.6 8 8 8 8-3.6 8-8-3.6-8-8-8z"/><path class="st1" d="M44.9 0C20.1 0 0 20.1 0 44.9s20.1 44.9 44.9 44.9 44.9-20.1 44.9-44.9S69.7 0 44.9 0zm27 58.4c0 7.5-6.1 13.6-13.6 13.6H31.5c-7.5 0-13.6-6.1-13.6-13.6V31.6C17.9 24.1 24 18 31.5 18h26.8c7.5 0 13.6 6.1 13.6 13.6v26.8z"/></g></g></svg>