<svg xmlns="http://www.w3.org/2000/svg" id="Слой_1" viewBox="0 0 546.00001 403.50833" width="546" height="403.508"><style id="style3">.st0{stroke-miterlimit:10}.st0,.st1,.st2{stroke:#000}.st1{fill:none;stroke-miterlimit:10;stroke-width:3}.st2{stroke-width:.25}</style><title id="title5">Лого</title><g id="Слой_2" transform="translate(-169.3 -59.292)"><g id="название"><path class="st0" d="M178.8 322.4v-32.3h16.5c1.6 0 3.2.3 4.7.9 1.4.5 2.6 1.3 3.7 2.3 1 .9 1.8 2 2.3 3.2.6 1.1.9 2.4.9 3.6 0 1.2-.2 2.3-.7 3.4-.4 1.1-1.1 2.1-1.9 3-.9.9-1.9 1.6-3 2.2-1.2.6-2.5 1-3.8 1.1l9.9 12.5h-3.3l-9.6-12.2h-12.8v12.2l-2.9.1zm2.8-14.3h13.9c2.3 0 4.5-.9 6.2-2.5 1.5-1.4 2.3-3.4 2.3-5.5 0-1-.2-2.1-.7-3-.5-1-1.1-1.8-1.9-2.5-.8-.7-1.8-1.3-2.8-1.8-1.1-.4-2.3-.7-3.4-.7h-13.6v16z" id="path9" stroke="#000" stroke-miterlimit="10"/><path class="st0" d="M317.3 322.6c-5 .1-9.8-1.8-13.4-5.1-1.6-1.5-2.9-3.2-3.8-5.2-.9-1.9-1.3-3.9-1.3-6s.5-4.3 1.4-6.2c1-2 2.3-3.8 3.9-5.2 1.7-1.6 3.7-2.8 5.9-3.6 2.4-.9 4.9-1.4 7.4-1.3 2.6 0 5.2.5 7.6 1.4 2.2.9 4.2 2.1 5.9 3.8 1.6 1.5 2.9 3.3 3.8 5.3 1.8 3.9 1.8 8.3-.1 12.2-1 2-2.3 3.7-3.9 5.2-1.7 1.5-3.7 2.8-5.9 3.6-2.4.7-5 1.1-7.5 1.1zm-15.7-16.3c0 1.8.4 3.7 1.1 5.3.8 1.7 1.9 3.3 3.3 4.5 1.5 1.4 3.2 2.4 5 3.2 2 .8 4.2 1.2 6.4 1.2s4.4-.4 6.5-1.2c1.8-.8 3.5-1.9 4.9-3.3 1.3-1.3 2.4-2.9 3.2-4.6 1.5-3.3 1.5-7.2-.1-10.5-.8-1.7-1.9-3.3-3.3-4.5-3-2.8-7-4.4-11.2-4.4-2.2 0-4.4.4-6.5 1.2-1.9.8-3.6 1.9-5 3.3-1.3 1.3-2.4 2.9-3.2 4.6-.7 1.6-1.1 3.4-1.1 5.2z" id="path11" stroke="#000" stroke-miterlimit="10"/><path class="st0" d="M429 290.1l13.9 17.9 13.9-17.9h3.2l-15.7 20.1v12.2h-2.9v-12.3l-15.6-20h3.2z" id="path13" stroke="#000" stroke-miterlimit="10"/><path class="st0" d="M565.1 290.1h2.5l16.8 32.3h-3l-5.5-10.6h-19l-5.5 10.6h-3.1l16.8-32.3zm9.9 19.7l-8.7-16.9-8.8 16.9H575z" id="path15" stroke="#000" stroke-miterlimit="10"/><path class="st0" d="M676.7 322.4v-32.3h2.9v30.2h23.7v2.1h-26.6z" id="path17" stroke="#000" stroke-miterlimit="10"/><path class="st0" d="M186.5 373h18.2c1.5 0 3.3 0 5.4-.1 2.2-.1 4.7-.2 7.6-.3 0 .6-.1 1.2-.2 1.8-.1.7-.2 1.3-.2 2 0 1.3.1 2.5.4 3.8-.7 0-1.4 0-2.3-.1-.9-.1-1.8-.2-2.9-.3-1.1-.1-2.1-.2-3.1-.3-1-.1-2-.1-3.1-.1l-12.7-.4h-9.3l-.6 19v12.9h12.9l6.7-.4 5.7-.4 5.5-.2c-.1.7-.2 1.2-.3 1.7-.1.4-.1.7-.1 1.1-.1.3-.2.7-.2 1 0 .1.2 1.4.6 3.8-2.4-.3-4.5-.5-6.3-.6-1.9-.1-3.5-.2-4.9-.2l-6.9-.2h-12.6v10.1l.2 32.7h-11.5l.8-15.8.2-43.4-.2-11.1c0-1.5-.2-6.9-.6-16.2l13.8.2z" id="path19" stroke="#000" stroke-miterlimit="10"/><path class="st0" d="M247.1 426.5v18.2c0 1.1.1 2.1.2 3.2v5.5c7.8 0 15.5-.2 23-.6.8 0 2.2-.1 4.2-.3 2-.2 4.6-.4 7.9-.7-.1.8-.2 1.5-.3 2.1-.1.6-.1 1.1-.1 1.7 0 .4 0 .9.1 1.3.1.6.2 1.4.3 2.5l-9.1-.2c-3.4-.1-6.4-.2-9-.3-2.6-.1-4.8-.1-6.6-.1h-2.3c-.9 0-1.9.1-3.3.2h-7.6c-1 0-2.1.1-3.1.2H236l.8-15.8v-54.5c0-5.5-.2-10.9-.6-16h12.1l-.8 19.4c-.1 3.2-.3 6.4-.4 9.6-.1 3.2-.2 6.4-.2 9.6v3.3c0 1.3.1 2.7.2 4.3v7.4z" id="path21" stroke="#000" stroke-miterlimit="10"/><path class="st0" d="M357.3 377c15.4 8.2 23.2 21 23.2 38.4.1 8.6-2 17.2-6.1 24.8-4 7.1-10 12.8-17.2 16.6-7 3.7-15.3 5.5-25 5.5-9.9 0-18.5-2-25.9-6.1-7.4-4.1-13.1-10.5-17.2-19.2-.6-1.3-1.1-2.7-1.4-4.1-.4-1.6-.9-3.6-1.4-6-.4-3.2-.6-6.3-.6-9.5 0-13.7 4.8-24.9 14.3-33.5 8.9-8.1 20.5-12.4 32.5-12.3 9.8 0 18.1 1.8 24.8 5.4zm2.8 11.5c-3.1-3.9-7.1-7-11.7-9.1-4.6-2.2-9.6-3.2-14.6-3.2-7.6-.1-15.1 2.2-21.2 6.7-5.2 3.9-9.1 9.3-11.3 15.4-2.3 6.7-3.4 13.7-3.4 20.8 0 11.5 3 20.8 9.1 27.9 10.4 11.8 27.5 14.9 41.4 7.5 4.8-2.7 8.9-6.5 12.1-11 3.2-4.7 5.4-10 6.4-15.6.8-3.8 1.2-7.6 1.2-11.4.1-5.2-.5-10.4-1.6-15.4-1.2-4.6-3.4-9-6.4-12.6z" id="path23" stroke="#000" stroke-miterlimit="10"/><path class="st0" d="M456.3 398.8l15.8 47.2.4 1h1l4.8-14.5 14.6-47.7 3-10.7c.9.1 1.7.2 2.5.3.7.1 1.4.1 1.9.1s1.1 0 1.9-.1c.8-.1 1.5-.2 2.5-.3-.8 1.9-1.7 4.2-2.7 6.9-1 2.8-2.1 5.9-3.5 9.5l-24.2 70.1c-1.4-.3-2.8-.4-4.2-.4-1.5 0-2.9.1-4.4.4-.3-.4-.5-.9-.5-1.4 0-.5-.2-1-.5-1.4l-19-58.6-3.6-9.3-24.8 70.7c-1.3-.2-2.7-.2-4-.2-1.6 0-3.2 0-4.8.2-1.1-3.4-2-6.5-2.8-9.2-.8-2.7-1.5-5.1-2.2-7.2l-22.6-70.1c1.5.1 2.7.2 3.9.3 1.1.1 2.1.1 3.1.1.7 0 1.5 0 2.4-.1.9-.1 2-.2 3.2-.3.3.8.5 1.7.8 2.7.3 1 .6 2.1 1 3.5l.9 3.9c.3 1.2.7 2.5 1.1 3.7l7.5 25.7 10.5 33.5h1l15.6-46.3c.3-.7.7-1.9 1.2-3.7.5-1.8 1.3-4.2 2.4-7.2.9-2.9 1.8-5.5 2.7-7.9.8-2.1 1.4-4.3 1.9-6.5l.2-1.2h8.1c.3.8.5 1.5.7 2 .2.5.4 1 .5 1.4l6.7 21.1z" id="path25" stroke="#000" stroke-miterlimit="10"/><path class="st0" d="M534.1 372.9h18.2c1.5 0 3.3 0 5.5-.1s4.7-.2 7.6-.3c0 .6-.1 1.2-.2 1.8-.1.7-.2 1.3-.2 2 0 1.3.1 2.5.4 3.8-.7 0-1.4 0-2.3-.1-.9-.1-1.8-.2-2.9-.3-1.1-.1-2.1-.2-3.1-.3-1-.1-2-.1-3.1-.1l-12.7-.4H532l-.6 19v12.9h12.9l6.7-.4 5.7-.4 5.5-.2c-.1.7-.2 1.2-.3 1.7-.1.4-.1.7-.1 1.1-.1.3-.2.7-.2 1 0 .1.2 1.4.6 3.8-2.4-.3-4.5-.5-6.3-.6-1.9-.1-3.5-.2-5-.2l-6.9-.2h-12.6v32.4c0 1.8.1 3.3.2 4.6 3.8 0 7.6-.1 11.4-.2l11.4-.4 5.6-.4c1.9-.1 3.9-.3 5.8-.6v4.4c0 1.1.1 2.1.2 3.2l-8.7-.2c-3.4-.1-6.4-.2-9-.3-2.6-.1-4.8-.1-6.6-.1h-2.3c-.9 0-2 .1-3.3.2h-7.6c-1 0-2.1.1-3.1.2h-5.3l.8-15.8.2-43.4-.2-11.1c0-1.5-.2-6.9-.6-16.2l13.8.2z" id="path27" stroke="#000" stroke-miterlimit="10"/><path class="st0" d="M584.4 372.6l9.9.4 16.8-.4c2.8-.1 5.7 0 8.5.3 2.5.3 4.9.8 7.3 1.5 4.2 1.2 7.8 4.2 9.7 8.1 1.7 3 2.5 6.3 2.6 9.7 0 6.9-2.5 12.3-7.5 16.2-4.9 4.1-11 6.7-18.4 7.9l26.1 33.1 6.1 7.1 2.2 2.8c-.6 0-1.1 0-1.7-.1-.6-.1-1.3-.2-2.1-.3-.7 0-1.5 0-2.2-.1-.7-.1-1.2-.1-1.6-.1-.5 0-1 0-1.5.1-.7.1-1.4.1-2.1.1-.7.1-1.3.2-1.9.3-.6.1-1.1.1-1.7.1-.3-.4-.7-1-1.2-1.7s-1.3-1.7-2.2-2.9l-4.4-6.1-15-19.4-10.1-11.9h-4.8V433l.4 26.3c-1.2-.1-2.3-.2-3.3-.3-1-.1-1.8-.1-2.5-.1s-1.5 0-2.5.1-2.2.2-3.7.3c0-2.2.1-4.6.3-7.1.2-2.5.3-5 .3-7.5l.6-44.4-.8-24.5.4-3.2zm11.3 5.2l-.4 34.9h3c.6.1 1.2.2 1.8.2h1.2c1.8 0 3.6-.1 5.3-.2 1.7-.1 3.4-.3 5.2-.6 4.6-.7 8.7-3 11.9-6.3 2.9-3.3 4.5-7.5 4.4-11.9 0-4.8-1.4-8.5-4.2-11.3-2.6-2.6-6-4.3-9.7-4.8-1-.1-2.1-.2-3.2-.2h-11c-1.5-.1-2.9 0-4.3.2z" id="path29" stroke="#000" stroke-miterlimit="10"/><path class="st0" d="M662.1 442.7h1.4c1.5 2.1 2.9 4 4.3 5.6 1.3 1.6 2.8 2.9 4.5 4.1 3 2.1 6.9 3.2 11.7 3.2 4.8.1 9.4-1.9 12.7-5.4 3.2-3.5 5-8.1 5-12.9 0-7-4.2-12.3-12.7-16-1.1-.4-2.1-.8-3.1-1.3s-2.1-1-3.3-1.5c-2.4-1.1-4.5-2-6.3-2.9-1.8-.8-3.6-1.8-5.3-2.9-5.9-4-8.9-9.8-8.9-17.4 0-7.8 2.6-13.7 7.9-17.8 5.2-4.2 11.9-6.3 20.2-6.3 7.5 0 13.6 2 18.2 5.9-1.5 3.4-2.7 6.9-3.6 10.5h-1.2c-1.2-3.3-3.3-6.2-6-8.3-2.7-2.1-6.1-3.2-9.6-3.2-4.3-.1-8.4 1.4-11.5 4.4-3.1 2.8-4.7 6.8-4.6 10.9-.2 4.5 1.8 8.9 5.4 11.7.7.7 1.4 1.2 2.3 1.7l2.7 1.5c1.1.5 2 1 2.8 1.3l2.2.9c1.2.5 2.3 1 3.4 1.4 1.1.4 1.9.7 2.4 1 1 .5 2.1 1 3.2 1.4.9.3 1.8.7 2.6 1.2 4.1 2.4 6.8 4.2 8 5.5 3.5 4.3 5.2 8.8 5.2 13.4.1 5.4-1.3 10.7-4.2 15.3-2.8 4.4-6.8 7.8-11.5 9.9-5 2.1-10.4 3.2-15.9 3.2-3.9 0-7.8-.6-11.5-1.8-3.4-.9-6.6-2.7-9.1-5.1 1.2-3.7 2-7.4 2.2-11.2z" id="path31" stroke="#000" stroke-miterlimit="10"/></g><g id="палка"><path class="st1" id="line34" fill="none" stroke="#000" stroke-width="3" stroke-miterlimit="10" d="M169.3 345.8h546"/></g><g id="Слой_8"><path class="st2" d="M608.3 113.8c1.5-1.8 3.1-3.5 4.6-5v-1.1c-2.2.4-4.5.9-6.9 1.5-10.8 2.6-20.9 7.3-30 13.7-4.2 3.1-8.1 6.5-11.7 10.3-3.1 3.3-6 6.9-8.5 10.8-3.4-9.8-7.5-19.2-12.3-28.4l-1.8-3.3-1.4.6-4.1 1.6c-6.5 2.6-13.5 5.6-20.5 9-7.7 3.5-14.8 8.3-21 14-3.5 3.1-6.6 6.6-9 10.6-1 1.6-1.8 3.4-2.6 5.1-.8-9.5-2.6-18.9-5.2-28.1-5.5-19.2-13.3-32.4-20.7-44.5-4.4-7.3-9.2-14.3-14.3-21.1-5.1 6.8-9.9 13.8-14.3 21.1-7.3 12.1-15.2 25.3-20.7 44.5-2.6 9.2-4.4 18.6-5.2 28.1-.7-1.8-1.6-3.5-2.6-5.1-2.4-4-5.5-7.5-9-10.6-6.2-5.7-13.3-10.5-21-14-7-3.4-14-6.4-20.5-9l-4.1-1.6-1.4-.6-1.8 3.3c-4.9 9.1-9 18.6-12.4 28.4-2.5-3.8-5.4-7.4-8.5-10.7-3.6-3.8-7.4-7.2-11.6-10.3-9.1-6.4-19.2-11.1-30-13.7-2.4-.6-4.7-1.1-6.9-1.5v1.1c1.5 1.5 3 3.2 4.6 5 5.1 6 9.9 13.8 10.6 23.3.4 6.1-.5 12.1-2.7 17.8-.2.4-.4.8-.5 1.3-1.9 5-5.1 11.8-9.2 23.8-6 17.8.2 36.4.9 38.6 5.4 15.6 17.3 28.7 30.1 34.2l.9.4c5.3 2 10.9 3 16.6 2.9 4.6.1 9.2-.4 13.7-1.2 23.4-5.2 33.4-9.8 48.2-17.5.7-.4 1.5-.8 2.2-1.2 9.5-5.6 15.2-8.4 33.1-17 3.5-1.8 7-3.3 10.7-4.6 3.4-1.2 7-2 10.6-2.3 3.6.3 7.2 1.1 10.6 2.3 3.7 1.3 7.2 2.8 10.7 4.6 17.9 8.7 23.6 11.4 33.1 17 .7.4 1.5.8 2.2 1.2 14.8 7.7 24.8 12.3 48.2 17.5 4.5.9 9.1 1.3 13.7 1.2 5.7.1 11.3-.9 16.6-2.9l.9-.4c12.9-5.4 24.7-18.6 30.2-34.2.8-2.2 7-20.8.9-38.6-4.1-12-7.2-18.9-9.2-23.8-.2-.4-.3-.9-.5-1.3-2.2-5.7-3.1-11.7-2.7-17.8 1-9.6 5.8-17.3 10.9-23.4zm-197.5 30.9c2-13.6 6.3-26.7 12.7-38.9 5.2-9.7 11.7-18.6 19.4-26.5 7.7 7.9 14.3 16.8 19.4 26.5 6.4 12.2 10.7 25.3 12.7 38.9.6 3.6 1 7.1 1.3 10.3-8.4-17-19.7-32.4-33.4-45.6-13.7 13.1-25 28.6-33.4 45.6.3-3.2.7-6.6 1.3-10.3zm3.5 72.3l-1.7 1.1c-8.2 4.9-17 9-26.1 12-8.5 2.9-19.7 6.6-34.6 5.9-8.1-.3-17.1-.7-26.9-6.4-8.3-4.9-14.8-12.3-18.8-21-3.2-7.1-4.8-14.8-4.7-22.6-.2-7.3 1.1-8.1 1.6-21.4.3-8 .5-12.1-.5-17.2-.4-2.3-1.7-8.3-6.6-17-3-5.3-6.4-10.2-10.4-14.8 3.9 1.1 7.6 2.4 11.3 4 3.1 1.3 6.1 2.9 9 4.7 6.8 4.3 12.6 10 17 16.7 2 3.1 3.7 6.4 5.1 9.8-2.5 7.2-4.6 14.5-6.2 21.9-1.1 5.2-2.1 10.9-.4 17.7 4.1 16 20.1 27 31.8 29.7 3 .6 6 1.1 9.1 1.4 5.4.5 10.9.5 16.4 0 7.9-.5 15.8-1.5 23.6-2.8 3.7-.6 8.3-1.5 13.8-2.7l-1.8 1zm7.1-8c-13.3 1.9-23.9-4.9-31.1-9.5-9.1-6-16.9-14-22.6-23.3-5.7-9.1-8.3-17.3-10.6-26.1-2.2-8.4-4.7-19.1-6.9-32 4.1 1.4 8.2 3 12.1 4.8 9.1 4.4 17.7 9.8 25.4 16.3 4.3 3.6 7.4 6.7 9.9 11 1.1 1.9 2.5 4.8 5 14.1.4 1.6.8 3 1 4.2 2 8.7 1.3 9.4 3.2 15.2 3.3 9.5 8.7 18.1 15.9 25.2-.4 0-.9.1-1.3.1zm29.3.4c-7.4-1.2-15-.6-22.2 1.5-2.3-2.3-4.5-4.9-6.4-7.5-3.1-4.2-6.8-9.4-8.1-17-.5-2.4-.6-4.9-.4-7.4.7-5.8 3.8-10 6.7-13.4 6.9-8.2 16.5-16.2 22.6-21 6.1 4.8 15.7 12.9 22.6 21 2.9 3.4 6 7.6 6.7 13.4.3 2.5.2 5-.4 7.4-1.4 7.6-5 12.7-8.1 17-1.9 2.7-4.1 5.2-6.4 7.5-2.1-.6-4.4-1.1-6.6-1.5zm13.8-.4c-.5-.1-.9-.1-1.4-.2 7.1-7.1 12.6-15.7 15.9-25.1 2-5.8 1.2-6.5 3.2-15.2.3-1.2.6-2.6 1-4.2 2.4-9.4 3.8-12.2 5-14.1 2.5-4.3 5.5-7.4 9.9-11 7.8-6.4 16.3-11.9 25.4-16.3 4-1.8 8-3.4 12.2-4.8-2.2 12.9-4.6 23.6-6.8 32-2.3 8.9-4.9 17-10.6 26.1-5.8 9.3-13.5 17.3-22.6 23.3-7.4 4.6-17.9 11.4-31.2 9.5zm125.3-78.5c-4.9 8.7-6.2 14.6-6.6 17-1 5-.8 9.2-.5 17.2.5 13.3 1.8 14.2 1.7 21.4.1 7.8-1.5 15.5-4.7 22.6-4 8.7-10.6 16.1-18.8 21-9.7 5.7-18.7 6-26.8 6.4-14.9.6-26.1-3-34.6-5.9-9.1-3-17.8-7.1-26.1-12l-1.7-1.2-1.6-1c5.4 1.2 10.1 2.1 13.8 2.7 7.8 1.3 15.7 2.3 23.6 2.8 5.4.5 10.9.5 16.4 0 3-.3 6.1-.8 9.1-1.4 11.7-2.7 27.7-13.6 31.8-29.7 1.7-6.7.8-12.4-.3-17.7-1.6-7.4-3.7-14.7-6.2-21.9 1.4-3.4 3.1-6.7 5.1-9.8 4.4-6.7 10.2-12.4 17-16.7 2.9-1.8 5.9-3.4 9-4.7 3.7-1.6 7.4-2.9 11.3-4-4.4 4.6-7.9 9.6-10.9 14.9z" id="path37" stroke="#000" stroke-width=".25"/></g></g></svg>