<svg xmlns="http://www.w3.org/2000/svg" viewBox="0 0 73.219467 90.099998" width="73.219" height="90.1"><path d="M29.195 67c0 .1.1.1.1.2l.1.1.1.1.1.1s.1 0 .1.1c.1 0 .1 0 .2.1h13c.1 0 .1 0 .2-.1 0 0 .1 0 .1-.1 0 0 .1 0 .1-.1l.1-.1.1-.1.1-.1 10.2-19.9c.3-.7.1-1.5-.6-1.8-.7-.3-1.5-.1-1.8.6l-9.5 19h-4V54.5c0-.8-.6-1.4-1.4-1.4-.8 0-1.4.6-1.4 1.4V65h-4l-9.3-19.1c-.3-.7-1.2-1-1.8-.6-.7.3-1 1.2-.6 1.8l9.8 19.9zm13.6 8.4h-12.4c-.8 0-1.4.6-1.4 1.4v11.9c0 .8.6 1.4 1.4 1.4.8 0 1.4-.6 1.4-1.4V78.1h3.4v10.5c0 .8.6 1.4 1.4 1.4.8 0 1.4-.6 1.4-1.4V78.1h3.4v10.5c0 .8.6 1.4 1.4 1.4.8 0 1.4-.6 1.4-1.4V76.8c0-.8-.7-1.4-1.4-1.4zm-.3-5.2h-11.8c-.8 0-1.4.6-1.4 1.4 0 .8.6 1.4 1.4 1.4h11.9c.8 0 1.4-.6 1.4-1.4-.1-.8-.7-1.4-1.5-1.4zm5.8.4s-.1-.1 0 0l-.1-.1h-2.1l-.1.1-.1.1-.1.1v1.7l1.5 9.1c.1.7.7 1.2 1.4 1.2h.2c.7-.1 1.3-.8 1.1-1.6l-.8-4.9 3 3.1c.3.3.6.4 1 .4.3 0 .7-.1 1-.4.5-.5.5-1.4 0-1.9l-5.9-6.9zm-18.8-49.1c1-.5 1.9-1.3 2.6-2.2.2-.2.3-.5.5-.7-.8-.9-1.4-1.9-1.7-3-.1.8-.4 1.6-.9 2.3-.6.8-1.4 1.4-2.4 1.7.7.4 1.4 1.1 1.9 1.9zm-3.2-11.1c1 0 1.9.3 2.7.9.6.5 1.1 1 1.4 1.7 0-1.2.1-2.3.5-3.5-.1-.1-.3-.2-.4-.3-1.2-.9-2.7-1.4-4.2-1.4-2.3 0-4.5 1.1-5.8 3-.6.8-1 1.7-1.2 2.6.2.1.5.3.7.5.6.5 1.2 1 1.7 1.6-.1-1.1.2-2.3.9-3.2.8-1.2 2.2-1.9 3.7-1.9zm-11.2-.5c.9-1.2 2.3-1.9 3.8-1.9.4 0 .7 0 1.1.1h.3c.3 0 .5-.1.8-.2.3-.2.5-.6.5-1 .1-.9.4-1.7.9-2.4.9-1.2 2.3-1.9 3.8-1.9 1 0 1.9.3 2.7.9 1.1.8 1.8 2.1 1.9 3.4 0 .4.2.7.5 1 .1 0 .1.1.2.1.1-.2.3-.5.5-.7.4-.5.8-.9 1.2-1.3l.1-.1s0-.1-.1-.3v-.2c-.4-1.6-1.4-3-2.7-4-1.3-.9-2.8-1.4-4.3-1.4-2.3 0-4.5 1.1-5.9 3-.5.7-.9 1.5-1.1 2.4h-.4c-2.3 0-4.5 1.1-5.9 3-.9 1.3-1.4 2.8-1.4 4.3.8-.3 1.7-.5 2.6-.5.1-.8.4-1.6.9-2.3zm3.8 13.2c-1.2-.9-2.7-1.4-4.2-1.4-2.3 0-4.5 1.1-5.8 3-1.1 1.6-1.6 3.5-1.3 5.4.3 1.9 1.3 3.6 2.9 4.7 1.2.9 2.7 1.4 4.2 1.4 2.3 0 4.5-1.1 5.8-3 2.3-3.2 1.6-7.8-1.6-10.1zm-.5 8.6c-.9 1.2-2.3 1.9-3.7 1.9-1 0-1.9-.3-2.7-.9-1-.7-1.7-1.8-1.8-3-.2-1.2.1-2.4.8-3.4.9-1.2 2.3-1.9 3.7-1.9 1 0 1.9.3 2.7.9 2 1.4 2.4 4.3 1 6.4zm35.5-18.2c-.4-1.7-1.3-3.2-2.8-4.3-1.2-.9-2.7-1.4-4.2-1.4-2.3 0-4.5 1.1-5.8 3-1.1 1.6-1.6 3.5-1.3 5.4.3 1.9 1.3 3.6 2.9 4.7.4.3.7.5 1.1.7.1-.1.1-.2.2-.3.5-.7 1.1-1.3 1.7-1.8-.5-.1-1-.4-1.5-.7-1-.7-1.7-1.8-1.8-3-.2-1.2.1-2.4.8-3.4.9-1.2 2.3-1.9 3.7-1.9 1 0 1.9.3 2.7.9 1.4 1 2.1 2.8 1.8 4.4.7-1 1.5-1.7 2.5-2.3zm-18.7 5c.1.1.2.1.3.2-.4 1-.5 2-.4 3.1.5-.1 1.1-.2 1.6-.2.3 0 .7 0 1 .1-.1-1 .1-2 .7-2.8.2-.3.3-.7.1-1.1-.2-.4-.4-.7-.7-.8-.3-.1-.7-.3-1-.5-2.1-1.5-2.5-4.4-1-6.5.9-1.2 2.3-1.9 3.8-1.9.4 0 .7 0 1.1.1h.3c.3 0 .5-.1.8-.2.3-.2.5-.6.5-1 .1-.9.4-1.7.9-2.4.9-1.2 2.3-1.9 3.8-1.9 1 0 1.9.3 2.7.9 1.1.8 1.8 2.1 1.9 3.4 0 .4.2.7.5 1 .2.2.5.2.8.2h.3c.4-.1.7-.1 1.1-.1 1 0 1.9.3 2.7.9 1.1.8 1.8 2 1.9 3.3.9 0 1.8.2 2.6.5 0-2.2-1-4.4-3-5.9-1.3-.9-2.7-1.4-4.3-1.4h-.4c-.4-1.6-1.4-3-2.7-4-1.3-1-2.7-1.5-4.3-1.5-2.3 0-4.5 1.1-5.9 3-.5.7-.9 1.5-1.1 2.4h-.4c-2.3 0-4.5 1.1-5.9 3-2.3 3.2-1.6 7.8 1.7 10.1zm19.1 16.3c1.2.9 2.7 1.4 4.2 1.4 2.3 0 4.5-1.1 5.8-3 1.1-1.6 1.6-3.5 1.3-5.4-.3-1.9-1.3-3.6-2.9-4.7-1.2-.9-2.7-1.4-4.2-1.4-2.3 0-4.5 1.1-5.8 3-1.1 1.6-1.6 3.5-1.3 5.4.4 1.9 1.4 3.5 2.9 4.7zm.6-8.6c.9-1.2 2.3-1.9 3.7-1.9 1 0 1.9.3 2.7.9 1 .7 1.7 1.8 1.8 3 .2 1.2-.1 2.4-.8 3.4-.9 1.2-2.3 1.9-3.7 1.9-1 0-1.9-.3-2.7-.9-1-.7-1.7-1.8-1.8-3-.3-1.2 0-2.4.8-3.4zm15.3-5.5c-1.3-.9-2.7-1.4-4.3-1.4h-.4c-.4-1.6-1.4-3-2.7-4-1.3-.9-2.7-1.4-4.3-1.4-2.3 0-4.5 1.1-5.9 3-.5.7-.9 1.5-1.1 2.4h-.4c-2.3 0-4.5 1.1-5.9 3-.6.9-1 1.8-1.2 2.8.3.4.6.9.8 1.4.6.1 1.1.2 1.7.3-.1-1 .2-2.1.9-3 .9-1.2 2.3-1.9 3.8-1.9.4 0 .7 0 1.1.1h.3c.3 0 .5-.1.8-.3.3-.2.5-.6.5-1 .1-.9.4-1.7.9-2.4.9-1.2 2.3-1.9 3.8-1.9 1 0 1.9.3 2.7.9 1.1.8 1.8 2.1 1.9 3.4 0 .4.2.7.5 1 .2.2.5.2.8.2h.3c.4-.1.7-.1 1.1-.1 1 0 1.9.3 2.7.9 2.1 1.5 2.5 4.4 1 6.5-.5.7-1.2 1.3-2 1.6-.4.1-.6.4-.7.8-.1.4-.1.8.1 1.1 1 1.6.9 3.7-.2 5.2-.9 1.2-2.3 1.9-3.8 1.9-1 0-1.9-.3-2.7-.9-.3-.2-.6-.5-.8-.8-.2-.3-.6-.5-1-.5s-.7.2-1 .5a4.6 4.6 0 0 1-3.6 1.7c-.7 0-1.3-.1-1.9-.4-.2.5-.5.9-.8 1.3-.2.3-.4.6-.7.8 1 .6 2.2.9 3.4.9 1.7 0 3.3-.6 4.6-1.6.1.1.2.1.3.2 1.3.9 2.7 1.4 4.3 1.4 2.3 0 4.5-1.1 5.9-3 1.5-2 1.8-4.6.9-6.9.7-.5 1.4-1.1 1.9-1.8 2.4-3.1 1.7-7.7-1.6-10zm-49.1 18.8c-.6.3-1.3.4-1.9.4-1 0-1.9-.3-2.7-.9-.3-.2-.6-.5-.8-.8-.2-.3-.6-.5-1-.5s-.7.2-1 .5a4.6 4.6 0 0 1-3.6 1.7c-1 0-1.9-.3-2.7-.9-2-1.4-2.5-4.2-1.2-6.2.2-.3.3-.7.1-1.1-.1-.4-.4-.7-.7-.8-.4-.1-.7-.3-1-.5-2.1-1.5-2.5-4.4-1-6.5.9-1.2 2.3-1.9 3.8-1.9.4 0 .7 0 1.1.1h.3c.3 0 .5-.1.8-.3.3-.2.5-.6.5-1 .1-.9.4-1.7.9-2.4.9-1.2 2.3-1.9 3.8-1.9 1 0 1.9.3 2.7.9 1.1.8 1.8 2.1 1.9 3.4 0 .4.2.7.5 1 .2.2.5.2.8.2h.3c.4-.1.7-.1 1.1-.1 1 0 1.9.3 2.7.9 1.3 1 2 2.5 1.9 4 .5-.2 1.1-.3 1.7-.3.2-.5.5-1 .8-1.4-.4-1.7-1.3-3.3-2.8-4.4-1.3-.9-2.7-1.4-4.3-1.4h-.4c-.4-1.6-1.4-3-2.7-4-1.3-.9-2.7-1.4-4.3-1.4-2.3 0-4.5 1.1-5.9 3-.5.7-.9 1.5-1.1 2.4h-.4c-2.3 0-4.5 1.1-5.9 3-2.4 3.2-1.6 7.8 1.6 10.2.1.1.2.1.3.2-1.1 3-.2 6.5 2.5 8.5 1.3.9 2.7 1.4 4.3 1.4 1.7 0 3.3-.6 4.6-1.6.1.1.2.1.3.2 1.3.9 2.7 1.4 4.3 1.4 1.2 0 2.4-.3 3.4-.9-.7-.7-1.2-1.5-1.6-2.2zm28.8.2c2.4-3.2 1.6-7.8-1.6-10.2-1.3-.9-2.7-1.4-4.3-1.4h-.4c-.4-1.6-1.4-3-2.7-4-1.3-.9-2.7-1.4-4.3-1.4-2.3 0-4.5 1.1-5.9 3-.5.7-.9 1.5-1.1 2.4h-.4c-2.3 0-4.5 1.1-5.9 3-2.4 3.2-1.6 7.8 1.6 10.2.1.1.2.1.3.2-1.1 3-.2 6.5 2.5 8.5 1.2.9 2.7 1.4 4.3 1.4 1.7 0 3.3-.6 4.6-1.6.1.1.2.1.3.2 1.3.9 2.7 1.4 4.3 1.4 2.3 0 4.5-1.1 5.9-3 1.5-2 1.8-4.6.9-6.9.7-.4 1.3-1 1.9-1.8zm-2.2-1.5c-.5.7-1.2 1.2-2 1.6-.4.1-.6.4-.7.8-.1.4-.1.8.1 1.1 1 1.6.9 3.7-.2 5.2-.9 1.2-2.3 1.9-3.8 1.9-1 0-1.9-.3-2.7-.9-.3-.2-.6-.5-.8-.8-.2-.3-.6-.5-1-.5s-.7.2-1 .5c-.9 1-2.2 1.7-3.6 1.7-1 0-1.9-.3-2.7-.9-2-1.4-2.5-4.2-1.2-6.2.2-.3.3-.7.1-1.1-.2-.4-.4-.7-.7-.8-.3-.1-.7-.3-1-.5-2.1-1.5-2.5-4.4-1-6.5.9-1.2 2.3-1.9 3.8-1.9.4 0 .7 0 1.1.1h.3c.3 0 .5-.1.8-.2.3-.2.5-.6.5-1 .1-.9.4-1.7.9-2.4.9-1.2 2.3-1.9 3.8-1.9 1 0 1.9.3 2.7.9 1.1.8 1.8 2.1 1.9 3.4 0 .4.2.7.5 1 .2.2.5.2.8.2h.3c.4-.1.7-.1 1.1-.1 1 0 1.9.3 2.7.9 2.1 1.4 2.6 4.3 1 6.4zm-6.9-6.2c-1.2-.9-2.7-1.4-4.2-1.4-2.3 0-4.5 1.1-5.8 3-1.1 1.6-1.6 3.5-1.3 5.4.3 1.9 1.3 3.6 2.9 4.7 1.2.9 2.7 1.4 4.2 1.4 2.3 0 4.5-1.1 5.8-3 2.4-3.2 1.7-7.7-1.6-10.1zm-.5 8.6c-.9 1.2-2.3 1.9-3.7 1.9-1 0-1.9-.3-2.7-.9-1-.7-1.7-1.8-1.8-3-.1-1.2.1-2.4.8-3.4.9-1.2 2.3-1.9 3.7-1.9 1 0 1.9.3 2.7.9 2.1 1.4 2.5 4.3 1 6.4z"/></svg>