<?xml version="1.0" encoding="utf-8"?>
<!-- Generator: Adobe Illustrator 17.1.0, SVG Export Plug-In . SVG Version: 6.00 Build 0)  -->
<!DOCTYPE svg PUBLIC "-//W3C//DTD SVG 1.1//EN" "http://www.w3.org/Graphics/SVG/1.1/DTD/svg11.dtd">
<svg version="1.1" id="Capa_1" xmlns="http://www.w3.org/2000/svg" xmlns:xlink="http://www.w3.org/1999/xlink" x="0px" y="0px"
	 viewBox="0 0 425.2 425.2" enable-background="new 0 0 425.2 425.2" xml:space="preserve">
<g>
	<g>
		<path d="M342.8,208.1L320.1,123L16.5,204.7L43.3,305c2.1,8.9,11,13.7,19.9,11.7l4.1-1.4v-92.7v-14.4h14.4
			C81.1,208.1,342.8,208.1,342.8,208.1z"/>
		<path d="M304.3,64.6c-2.1-8.9-11-13.7-19.9-11.7L11.7,125.7c-8.2,2.1-13.7,11-11,19.9l4.8,17.2l303.6-81.1L304.3,64.6z"/>
		<path d="M81.1,222.6v88.6V373h344.1V222.6h-78.3H81.1z M252.8,359.3c-28.2,0-50.8-27.5-50.8-61.1c0-6.9,0.7-13.7,2.7-19.9
			c6.9-24,26.1-41.9,48.1-41.9c14.4,0,27.5,7.6,37.1,19.2c8.9,11,14.4,26.1,14.4,42.6C304.3,331.8,280.9,359.3,252.8,359.3z"/>
		<path d="M254.8,301.6v15.8c2.1,0,3.4-0.7,4.8-1.4c1.4-1.4,2.7-3.4,2.7-6.2c0-2.1-0.7-4.1-2.1-5.5
			C259,303.6,257.6,302.2,254.8,301.6z"/>
		<path d="M244.5,281.6c0,2.1,0.7,4.1,2.7,5.5c0.7,0.7,2.1,1.4,4.1,2.1v-14.4c-2.1,0-4.1,0.7-5.5,2.1
			C244.5,278.2,244.5,279.6,244.5,281.6z"/>
		<path d="M252.8,250.7c-13.7,0-25.4,8.9-31.6,22.7c-3.4,6.9-5.5,15.1-5.5,24c0,26.1,16.5,47.4,37.1,47.4s37.1-21.3,37.1-47.4
			c0-15.8-6.2-29.5-15.8-38.5C268.6,254.2,261,250.7,252.8,250.7z M265.8,323.5c-2.7,2.1-6.9,2.7-11,3.4v8.2h-4.1V327
			c-5.5-0.7-9.6-2.1-11.7-3.4c-4.8-3.4-6.9-8.2-6.9-15.8h11c0.7,3.4,0.7,5.5,1.4,6.9c1.4,2.1,3.4,2.7,6.2,3.4v-17.2l-3.4-0.7
			c-5.5-1.4-8.9-3.4-11-6.2c-2.1-2.7-2.7-6.9-2.7-11c0-2.7,0.7-4.8,1.4-6.9c0.7-2.1,2.1-4.1,3.4-5.5c1.4-1.4,3.4-2.7,5.5-3.4
			c0,0,0.7,0,0.7-0.7c0.7,0,2.1-0.7,2.7-0.7c0.7,0,2.1,0,3.4-0.7v-0.7V261h4.1v4.1v1.4c4.1,0.7,7.6,1.4,10.3,3.4
			c4.8,2.7,6.9,7.6,6.9,13.7h-11c0-2.1-0.7-4.1-1.4-5.5c-0.7-2.1-2.7-2.7-5.5-3.4v15.8c6.2,2.1,11,4.1,13.1,6.2
			c3.4,2.7,5.5,6.9,5.5,11.7C273.4,315.3,270.6,320.1,265.8,323.5z"/>
	</g>
</g>
</svg>
