<?xml version="1.0" encoding="UTF-8" standalone="no"?>
<!-- Generator: Adobe Illustrator 20.1.0, SVG Export Plug-In . SVG Version: 6.00 Build 0)  -->

<svg
   xmlns:dc="http://purl.org/dc/elements/1.1/"
   xmlns:cc="http://creativecommons.org/ns#"
   xmlns:rdf="http://www.w3.org/1999/02/22-rdf-syntax-ns#"
   xmlns:svg="http://www.w3.org/2000/svg"
   xmlns="http://www.w3.org/2000/svg"
   xmlns:sodipodi="http://sodipodi.sourceforge.net/DTD/sodipodi-0.dtd"
   xmlns:inkscape="http://www.inkscape.org/namespaces/inkscape"
   version="1.1"
   id="Слой_1"
   x="0px"
   y="0px"
   viewBox="0 0 32.505841 24"
   xml:space="preserve"
   inkscape:version="0.91 r13725"
   sodipodi:docname="form-order.chosen-product__bonuses-item_free-delivery.svg"
   width="32.50584"
   height="24"><metadata
     id="metadata27"><rdf:RDF><cc:Work
         rdf:about=""><dc:format>image/svg+xml</dc:format><dc:type
           rdf:resource="http://purl.org/dc/dcmitype/StillImage" /><dc:title></dc:title></cc:Work></rdf:RDF></metadata><defs
     id="defs25" /><sodipodi:namedview
     pagecolor="#ffffff"
     bordercolor="#666666"
     borderopacity="1"
     objecttolerance="10"
     gridtolerance="10"
     guidetolerance="10"
     inkscape:pageopacity="0"
     inkscape:pageshadow="2"
     inkscape:window-width="1305"
     inkscape:window-height="744"
     id="namedview23"
     showgrid="false"
     fit-margin-top="0"
     fit-margin-left="0"
     fit-margin-right="0"
     fit-margin-bottom="0"
     inkscape:zoom="5.9"
     inkscape:cx="13.45"
     inkscape:cy="12"
     inkscape:window-x="61"
     inkscape:window-y="24"
     inkscape:window-maximized="1"
     inkscape:current-layer="Слой_1" /><style
     type="text/css"
     id="style3">
	.st0{fill:#666666;}
	.st1{display:none;fill:#666666;}
</style><g
     id="g5"
     transform="translate(-5.7,-8)"><path
       class="st0"
       d="m 14.3,32 c -2.2,0 -4,-1.8 -4,-4 0,-2.2 1.8,-4 4,-4 2.2,0 4,1.8 4,4 0,2.2 -1.8,4 -4,4 z m 0,-6 c -1.1,0 -2,0.9 -2,2 0,1.1 0.9,2 2,2 1.1,0 2,-0.9 2,-2 0,-1.1 -0.9,-2 -2,-2 z"
       id="path7"
       inkscape:connector-curvature="0"
       style="fill:#666666" /><path
       class="st0"
       d="m 31.3,32 c -2.2,0 -4,-1.8 -4,-4 0,-2.2 1.8,-4 4,-4 2.2,0 4,1.8 4,4 0,2.2 -1.8,4 -4,4 z m 0,-6 c -1.1,0 -2,0.9 -2,2 0,1.1 0.9,2 2,2 1.1,0 2,-0.9 2,-2 0,-1.1 -0.9,-2 -2,-2 z"
       id="path9"
       inkscape:connector-curvature="0"
       style="fill:#666666" /><path
       class="st0"
       d="m 5.7,8 18,0 c 1.4,0 2.5,1.1 2.5,2.5 l 0,17.5 c 0,0.6 -0.4,1 -1,1 -0.6,0 -1,-0.4 -1,-1 l 0,-17.5 C 24.2,10.2 24,10 23.7,10 l -18,0"
       id="path11"
       inkscape:connector-curvature="0"
       style="fill:#666666" /><path
       class="st0"
       d="m 7.7,27 3.5,0 c 0.6,0 1,0.4 1,1 0,0.6 -0.4,1 -1,1 l -3.5,0"
       id="path13"
       inkscape:connector-curvature="0"
       style="fill:#666666" /><path
       class="st1"
       d="m 3.7,14 8.5,0 c 0.6,0 1,0.4 1,1 0,0.6 -0.4,1 -1,1 l -8.5,0"
       id="path15"
       inkscape:connector-curvature="0"
       style="display:none;fill:#666666" /><path
       class="st1"
       d="m 6.7,18.2 5.5,0 c 0.6,0 1,0.4 1,1 0,0.6 -0.4,1 -1,1 l -5.5,0"
       id="path17"
       inkscape:connector-curvature="0"
       style="display:none;fill:#666666" /><path
       class="st0"
       d="m 35.8,29 -1.5,0 c -0.6,0 -1,-0.4 -1,-1 0,-0.6 0.4,-1 1,-1 l 1.5,0 c 0.3,0 0.5,-0.2 0.5,-0.5 l 0,-7.2 c 0,-0.5 -0.2,-1 -0.7,-1.4 L 31.4,14.4 C 31.1,14.1 30.7,14 30.2,14 l -5,0 c -0.6,0 -1,-0.4 -1,-1 0,-0.6 0.4,-1 1,-1 l 5,0 c 0.9,0 1.8,0.3 2.4,0.9 l 4.2,3.5 c 0.9,0.7 1.4,1.8 1.4,2.9 l 0,7.2 c 0.1,1.4 -1.1,2.5 -2.4,2.5 z"
       id="path19"
       inkscape:connector-curvature="0"
       style="fill:#666666" /><path
       class="st0"
       d="m 28.3,29 -10,0 c -0.6,0 -1,-0.4 -1,-1 0,-0.6 0.4,-1 1,-1 l 10,0 c 0.6,0 1,0.4 1,1 0,0.6 -0.5,1 -1,1 z"
       id="path21"
       inkscape:connector-curvature="0"
       style="fill:#666666" /></g></svg>