<?xml version="1.0" encoding="UTF-8" standalone="no"?>
<!-- Generator: Adobe Illustrator 20.1.0, SVG Export Plug-In . SVG Version: 6.00 Build 0)  -->

<svg
   xmlns:dc="http://purl.org/dc/elements/1.1/"
   xmlns:cc="http://creativecommons.org/ns#"
   xmlns:rdf="http://www.w3.org/1999/02/22-rdf-syntax-ns#"
   xmlns:svg="http://www.w3.org/2000/svg"
   xmlns="http://www.w3.org/2000/svg"
   xmlns:sodipodi="http://sodipodi.sourceforge.net/DTD/sodipodi-0.dtd"
   xmlns:inkscape="http://www.inkscape.org/namespaces/inkscape"
   version="1.1"
   id="Слой_1"
   x="0px"
   y="0px"
   viewBox="0 0 50.599998 41.000002"
   xml:space="preserve"
   inkscape:version="0.91 r13725"
   sodipodi:docname="form-order.chosen-product__bonuses-item_photo.svg"
   width="50.599998"
   height="41"><metadata
     id="metadata25"><rdf:RDF><cc:Work
         rdf:about=""><dc:format>image/svg+xml</dc:format><dc:type
           rdf:resource="http://purl.org/dc/dcmitype/StillImage" /><dc:title></dc:title></cc:Work></rdf:RDF></metadata><defs
     id="defs23" /><sodipodi:namedview
     pagecolor="#ffffff"
     bordercolor="#666666"
     borderopacity="1"
     objecttolerance="10"
     gridtolerance="10"
     guidetolerance="10"
     inkscape:pageopacity="0"
     inkscape:pageshadow="2"
     inkscape:window-width="640"
     inkscape:window-height="480"
     id="namedview21"
     showgrid="false"
     fit-margin-top="0"
     fit-margin-left="0"
     fit-margin-right="0"
     fit-margin-bottom="0"
     inkscape:zoom="3.097113"
     inkscape:cx="25.25"
     inkscape:cy="19.100002"
     inkscape:window-x="71"
     inkscape:window-y="34"
     inkscape:window-maximized="0"
     inkscape:current-layer="Слой_1" /><style
     type="text/css"
     id="style3">
	.st0{fill:#666666;}
	.st1{display:none;enable-background:new    ;}
	.st2{font-family:'Arial-BoldMT';}
	.st3{font-size:5px;}
</style><g
     id="g5"
     transform="translate(-12,-16.2)"><path
       class="st0"
       d="m 55.6,57.2 -37.3,0 C 15,57.2 12,54.2 12,50.9 l 0,-28 c 0,-3.7 3,-6.7 6.7,-6.7 l 37.2,0 c 3.7,0 6.7,3 6.7,6.7 l 0,27.9 c -0.4,3.4 -3.3,6.4 -7,6.4 z M 18.7,20 c -1.9,0 -3,1.1 -3,3 l 0,27.9 c 0,1.5 1.1,2.6 3,2.6 l 37.2,0 c 1.5,0 3,-1.1 3,-3 l 0,-27.6 c 0,-1.5 -1.1,-3 -3,-3 0,0.1 -37.2,0.1 -37.2,0.1 z"
       id="path7"
       inkscape:connector-curvature="0"
       style="fill:#666666" /></g><g
     id="g9"
     transform="translate(-12,-16.2)"><path
       class="st0"
       d="m 41,49.7 c -7.4,0 -13,-6 -13,-13 0,-7.4 5.6,-13 13,-13 7.1,0 13,6 13,13 0,7 -5.9,13 -13,13 z m 0,-22.3 c -5.2,0 -9.3,4.1 -9.3,9.3 0,5.2 4.1,9.3 9.3,9.3 5.2,0 9.3,-4.1 9.3,-9.3 0,-5.2 -4,-9.3 -9.3,-9.3 z"
       id="path11"
       inkscape:connector-curvature="0"
       style="fill:#666666" /></g><g
     id="g13"
     transform="translate(-12,-16.2)"><path
       class="st0"
       d="m 22.8,29.3 -1.8,0 c -1.1,0 -1.9,-0.7 -1.9,-1.9 l 0,-1.9 c 0,-1.1 0.7,-1.9 1.9,-1.9 l 1.9,0 c 1.1,0 1.9,0.7 1.9,1.9 l 0,1.9 c -0.1,1.1 -1.2,1.9 -2,1.9 z"
       id="path15"
       inkscape:connector-curvature="0"
       style="fill:#666666" /></g><text
     class="st1 st2 st3"
     id="text17"
     style="font-size:5px;font-family:Arial-BoldMT;display:none;enable-background:new"
     x="18.5217"
     y="41">Created by Johan Oosterbaan</text>
<text
     class="st1 st2 st3"
     id="text19"
     style="font-size:5px;font-family:Arial-BoldMT;display:none;enable-background:new"
     x="18.5217"
     y="46">from the Noun Project</text>
</svg>