<?xml version="1.0" encoding="utf-8"?>
<!-- Generator: Adobe Illustrator 17.1.0, SVG Export Plug-In . SVG Version: 6.00 Build 0)  -->
<!DOCTYPE svg PUBLIC "-//W3C//DTD SVG 1.1//EN" "http://www.w3.org/Graphics/SVG/1.1/DTD/svg11.dtd">
<svg version="1.1" id="Слой_1" xmlns="http://www.w3.org/2000/svg" xmlns:xlink="http://www.w3.org/1999/xlink" x="0px" y="0px"
	 viewBox="0 0 425.2 425.2" enable-background="new 0 0 425.2 425.2" xml:space="preserve">
<path fill="#C9B182" d="M381.8,162.3c-2.9-2.9-6.7-8.2-8.7-11.5c-0.7,0.6-1.4,1.2-2.1,1.7c-0.5,2.7-1.8,5.1-3.5,7.1
	c1.8,2.6,4.1,5.6,6.8,9c1.3,2.5,3.8,5,6.3,8.8c-5-3.8-12.6-5-20.1-5c-15.6-1.2-27.8-2.4-43.1-14.5c-4,0.8-8.1,1.2-12.4,1.2
	c-0.8,0-1.6,0-2.3,0c-5.8,4.4-13.3,7-21.5,7c-7.6,0-14.6-2.3-20.3-6.1c-2.2,0.1-4.3,0.2-6.5,0.3c2.4,2.3,5.1,4.2,7.9,5.8
	c-2.5,10.1,2.5,22.6,6.3,32.7l1.3,5c-7.5-7.5-17.6-12.6-25.2-16.4c-13.8-7.5-21.4-11.3-20.1-21.4c1.6-1.6,3.2-3.4,4.7-5.1
	c-2.8,0-5.6-0.1-8.4-0.1c-6.1,5.6-14.6,9-24,9c-13.1,0-24.4-6.7-30.1-16.7c-3.8-1.3-7.5-2.9-11-4.7c-6.3,8.1-16,12.7-26.8,12.7
	c-13.6,0-25.2-7.2-30.7-17.3c-1.1,0-2.2,0-3.3,0c-3.1-0.1-6.2-0.4-9.2-0.9c-3.3,3-7.4,4.7-12.2,5.6c-6.2,1.2-13.5-2.4-18.5-7.2
	c-1.8,1.2-3.6,2.3-5.5,3.3c0,0.1,0.1,0.1,0.1,0.2c-20.1,35.2-16.4,37.7-13.8,40.3c1.3,1.3,1.3,1.3,2.5,1.3c2.5,0,3.8-1.3,5-2.5
	c5-3.8,13.8-5,23.9-6.3l3.8-1.3v211.3c0,35.2,108.2,39,154.7,39c51.6,0,138.4-5,138.4-41.5V179.9c7.5,0,15.1,1.3,22.6,3.8
	c1.3,0,1.3,0,2.5,0c2.5,0,3.8-1.3,3.8-1.3C394.4,178.6,390.6,173.6,381.8,162.3z M141.5,166.1c6.3-2.5,12.6-6.3,17.6-11.3
	c3.8,6.3,7.5,11.3,13.8,15.1c-5,8.8-18.9,12.6-30.2,16.4c-2.5,1.3-5,2.5-7.5,2.5C136.5,183.7,139,174.9,141.5,166.1z M66,168.6
	c-8.8,1.3-17.6,2.5-23.9,6.3c2.5-6.3,7.5-16.4,12.6-26.4c5,3.8,11.3,5,17.6,5c1.3,0,2.5,0,2.5,0c6.3-1.3,11.3-3.8,16.4-7.5
	c2.5,5,5,8.8,8.8,11.3C92.5,164.8,78.6,167.3,66,168.6z M356.6,383.7c0,25.2-67.9,34-130.8,34c-73,0-147.2-10.1-147.2-31.4v-39
	c23.9,22.6,108.2,25.2,147.2,25.2c42.8,0,109.4-3.8,130.8-25.2V383.7z M356.6,332.1c0,25.2-67.9,34-130.8,34
	c-73,0-147.2-10.1-147.2-31.4V174.9c10.1-2.5,20.1-5,27.7-12.6c6.3,3.8,13.8,6.3,22.6,6.3c1.3,0,3.8,0,5-1.3
	c-8.8,25.2-6.3,27.7-3.8,28.9c0,0,1.3,1.3,2.5,1.3s2.5,0,2.5-1.3c1.3-1.3,6.3-2.5,10.1-3.8c11.3-3.8,27.7-7.5,34-20.1
	c5,2.5,10.1,3.8,16.4,3.8c7.5,0,15.1-2.5,21.4-5c1.3,11.3,12.6,16.4,23.9,22.6c7.5,3.8,17.6,8.8,25.2,16.4c3.8,3.8,6.3,6.3,8.8,6.3
	c1.3,0,1.3,0,2.5-1.3c3.8-2.5,2.5-7.5-2.5-17.6c-2.5-7.5-7.5-18.9-7.5-26.4c3.8,1.3,8.8,2.5,13.8,2.5c11.3,0,22.6-5,30.2-11.3
	c16.4,15.1,31.4,17.6,45.3,17.6V332.1z"/>
<g>
	<path fill="#C9B182" d="M366.9,124.3c-4.6-8.2-10.7-14.8-17.1-18.5c-1.2-0.7-2.3-1.2-3.4-1.7c2.5-1.5,5.5-3.4,7.7-5.6
		c0.2-0.1,0.3-0.3,0.5-0.4c0,0,0,0,0,0c0,0,0,0,0,0c0.2-0.2,0.4-0.5,0.6-0.8c2.8-4,2.1-10.3-1.8-17.7c-3.7-6.8-9.8-14-17.3-20.3
		c-2.2-1.8-21.4-17.5-29.9-12.8c-1.4,0.8-3,2.4-3.3,5.7c-1,0.6-1.8,1.3-2.4,2c-1.5-4-4.4-7.9-8.6-11.3c-6.5-5.3-15.3-9.1-25.1-10.7
		c0-1.2-0.4-2.6-1.7-4.1c0.4-0.9,0.6-1.7,0.7-2.4c0.3-2.2-0.3-4.4-1.7-6c-5.4-5.9-25-7.1-41-5.7c-12.7,1.1-24.5,3.7-33.3,7.3
		c-9.5,3.9-14.4,8.4-14.2,13.3c0,0,0,0,0,0c0,0.7-0.1,4.8,0.4,8.8c-2.1-4.9-5.4-9.5-9.4-10.8c-0.4-0.3-0.8-0.5-1.2-0.7
		c-6.3-2.5-19.5,4.6-29.1,12.3c-7.6,6.1-13.9,12.9-17.9,19.3c-4.4,7.1-5.5,12.9-3,16.6c0.1,0.2,0.3,0.3,0.4,0.5
		c0.1,0.1,0.1,0.2,0.1,0.2c0.4,0.5,0.9,1,1.4,1.6c3,3.5,7.4,8.7,14.6,10.4c0,0.2,0,0.4,0.1,0.6c-6.7,0.5-14.9,4.4-22,10.8
		c-7,6.3-12.3,14-14.8,21.7c-2,6.2-2.2,11.8-0.5,16.3c5.2,15.6,13.5,23.3,27.8,25c0,0,0.1,0,0.1,0c0.6,0.1,1.1,0.1,1.7,0.2
		c0,0-0.1,0.1-0.1,0.1c1.4,0.4,2.6,1,3.6,1.8c0.4-0.1,0.8-0.2,1.3-0.3c0,0,0,0,0,0c1.9-1.3,4-2.4,6.2-3.2c2.8-1,5.7-1.5,8.5-1.5
		c2.2,0,4.3,0.3,6.4,0.9c1.3-2.1,3.3-3.8,6.2-4.4c1.3-1.3,2.5-2.8,3.4-4.3c1.2,2,2.6,3.9,4.2,5.7c1.1,0.7,2,1.7,2.7,2.7
		c4.1,3.9,9.1,7,14.7,9.1c0.5,0,1.1-0.1,1.6-0.1c9.9-0.7,18.3,0.1,28.4,1.6c0,0,0,0,0.1,0c1.5-0.4,3-0.9,4.4-1.5
		c1.1-1.2,2.7-2.1,4.8-2.2c1.6-2.4,4.2-3.9,7-4.4c7.6-5.9,13-14.2,14.7-23.5c3.3,0.9,5.9,1.2,8.3,1.2c1.1,0,2.2-0.1,3.3-0.2
		c-0.2,4.6,0,9,0.8,13c1.2,0.8,2,2,2.5,3.4c0.1,0.2,0.3,0.3,0.4,0.5c0.8-0.1,1.6-0.1,2.4-0.1c-0.1-1.1,0.1-2.1,0.4-3.2
		c-0.5,0-1-0.1-1.5-0.1c-1.4-6.5-1.3-14.3,0.1-22.1c3,8.3,10.5,16.6,20.4,21.9c0,0,0.1,0,0.1,0.1c-0.3,0-0.6,0-0.8-0.1
		c0.3,0.3,0.6,0.5,0.8,0.8c0.5,0.2,0.9,0.3,1.3,0.6c0.6,0,1.2,0.1,1.8,0.3c2.6,0.7,5.2,1.3,7.8,1.8c0.4,0,0.8,0.1,1.1,0.2
		c8.6,1.4,17.5,1.3,26-0.5c1.6-1.7,3.1-3.6,4.5-5.4c1.7,1,3.3,2.2,4.9,3.7c2.8,0.6,4.6,3,5.2,5.8c0.1,0.1,0.2,0.3,0.3,0.4
		c4.6,1.6,8.9,3.9,12.8,6.7c6.8-1.1,12.6-4.9,13.6-5.6c1.4-0.8,2.9-2.1,4.2-4.2c3.9-0.9,7-3.2,8.5-5.6
		C375.7,150.8,373.9,136.8,366.9,124.3z M302.1,59.6c0.1-0.9,0.9-2.9,3.3-4c0.8-0.4,1.9-0.6,3.3-0.6c3.7,0,9.8,2,19.2,10.1
		c10.8,9.4,12.7,15.5,12.1,17.4c-0.2,0.8-1,1.2-2.3,1.3c-6.1,0.5-14.8-5.4-19.7-11.4c-2.4-3-2.8-4.6-2.8-4.9c0.4-0.9,0.8-0.9,1-0.9
		c2.2-0.3,6.9,4.4,9.3,7.7c0.7,0.9,1.9,1.1,2.8,0.3c0.9-0.8,1-2.1,0.3-3.1c-1.2-1.6-7.7-9.8-12.8-9.2c-1.2,0.1-2.9,0.8-4.1,3.2
		c-0.9,1.8-0.5,4.1,1.2,6.9c4.1,6.9,16,16.5,25,15.8c3-0.2,5.1-1.8,5.8-4.4c1.5-5.3-3.4-13.3-13.5-22.1c-10.7-9.3-18-11.5-22.9-11
		c0.2-0.2,0.4-0.4,0.5-0.4c3.6-2,14.9,3.4,25.6,12.4c7.1,5.9,12.9,12.6,16.3,19c3.1,5.7,3.8,10.4,2.1,12.9c-0.2,0.3-0.5,0.6-0.7,0.8
		c0,0,0,0,0,0c-2.1,1.7-6,1.9-11.2,0.4c-6.5-1.9-14-6.2-21.1-12.1C307.8,74.6,301.6,64.1,302.1,59.6z M301.5,70.2
		c3.5,6,9.3,12.3,15,17C324,93.4,332,98,339,100c1.5,0.4,2.9,0.7,4.2,0.9c-1.5,0.8-2.7,1.4-3.2,1.6c-2-0.1-3.8,0.2-5.5,0.8
		c0,0,0,0-0.1,0c-7,1.8-14.3,8.2-18.2,11.6c-3.7-3.9-8.2-7.4-13.3-10.1c-3.2-1.7-6.9-3.2-10.7-4.4C299.8,92,301.1,79.3,301.5,70.2z
		 M324.8,127.7c-1.4-3.3-3.4-6.6-5.8-9.6c1.8-1.6,4.2-3.7,7-5.7c-1.1,2.9-1.6,6.4-1.6,10.3C324.4,124.4,324.5,126.1,324.8,127.7z
		 M287,79.6c4.4-1.9,7.9-4.4,10.4-7.4c-0.5,9.1-2.2,20.4-9.9,27.1c-0.3-0.1-0.7-0.1-1-0.2c1.9-3.1,2.9-6.5,2.9-9.9
		C289.4,85.9,288.5,82.6,287,79.6z M264.8,36.1c9.6,1.4,18.4,5,24.7,10.1c6,4.9,8.9,10.6,8.2,16c-0.7,5.7-5.4,10.7-13,13.7
		c-0.8-1-1.7-2-2.7-3c-1.8-1.7-3.9-3.1-6.2-4.2c2-1,3.7-2.2,5.2-3.7c2.9-3,4-6.9,2.9-10.7c-1.9-6.9-10.3-12.1-23-14.4
		c-15.5-2.7-23.6,1.4-27.7,5.8c0-1.5,0.4-2.8,1.2-3.9C238,36.6,250.8,34.2,264.8,36.1z M206.5,89.2c0-8.8,9.9-16.8,23-18.7
		c9.3-1.3,29.9-0.5,37.5,7.6c2.3,2.4,3.2,5.2,2.9,8.6c-0.3,3.7-2.1,6.8-5.2,9.2c-5.8,4.4-16.1,5.7-25,3.2
		c-9.5-2.7-12.6-7.2-12.2-10.6c0.3-3.3,4.1-7,10.3-7.2c9.7-0.4,11,1.8,11.2,2.2c0.4,1.1-0.9,3.3-2.1,4.5c-0.8,0.8-0.8,2.2-0.1,3.1
		c0.8,0.9,2,0.9,2.8,0.1c0.5-0.5,4.7-5,3-9.4c-1.4-3.7-6.2-5.2-15-4.9c-7.6,0.3-13.5,5-14.1,11.1c-0.2,2.5,0.1,11,15.2,15.3
		c8.4,2.4,20.5,2.1,28.3-3.8c4-3.1,6.4-7.3,6.8-12.3c0.4-4.7-0.9-8.8-4.1-12.1c-2-2.1-4.6-3.7-7.5-5.1c7,0.3,12.9,2.5,17.2,6.4
		c3.8,3.5,6,8.2,6,12.9c0,3.3-1.2,6.5-3.6,9.4c-4.5-0.2-8.8,0.6-12.2,2.9c-2.7,1.8-4.6,4.6-5.6,8c-5.7,1.7-11.8,2.6-18.2,2.6
		c-5.1,0-10-0.6-14.7-1.7h-0.1c-0.2-0.2-0.4-0.4-0.6-0.6c-3.3-2.8-8.3-5.6-15.1-6.2c0,0-0.1-0.1-0.1-0.1
		C209.6,99.5,206.5,94.4,206.5,89.2z M209.2,103.8c-2.1,0.2-4.4,0.7-6.9,1.3c-6.7-1.5-13.3-1.5-18.1-1c0.3-0.1,0.5-0.3,0.8-0.4
		c6.3-3.7,12.6-8.6,17.5-13.8C202.7,94.9,205,99.7,209.2,103.8z M205.7,61.7c-0.6-5.5-3.2-10.1-5.8-12.5c-1.4-1.2-3.1-2.2-5-2.9
		c5.2,0.8,11,1.3,17.3,1.3c4.3,0,8.8-0.2,13.4-0.6c1.2-0.1,2.4-0.2,3.6-0.4c0.1,1.2,0.3,2.5,0.8,3.9c-2.2,4.4-2.5,9.1-1.7,12.3
		c0.3,1.1,0.7,2.2,1.3,3.3c-0.2,0-0.4,0-0.6,0.1c-7,1-13,3.6-17.6,7.1c0-0.2,0-0.3,0-0.5C211.4,69.7,210.5,65.4,205.7,61.7z
		 M263.8,54c-1.1-0.6-10.6-5.4-15.9-1.7c-1.5,1-3.3,3.1-3.3,7.4c0,2.4,1.4,4.7,3.9,6.6c-5.2-0.7-10.3-0.8-14.4-0.6
		c0,0,0-0.1-0.1-0.1c-1-1.3-1.6-2.7-2-4c-0.6-2.5-0.3-7.7,3.1-11.9c3.2-3.9,10.2-8,25-5.4c16.3,2.9,19.3,9.4,19.9,11.3
		c0.8,2.8-0.6,4.9-1.9,6.2c-2.2,2.2-5.1,3.7-8.8,4.4c-0.1,0-0.2,0.1-0.4,0.2c-3.8-0.9-8.1-1.2-12.6-0.8c-0.2-0.1-0.3-0.2-0.5-0.3
		c-4.9-1.6-7.5-4.1-7.4-5.7c0-2.8,1.1-3.5,1.4-3.8c2.6-1.8,8.8,0.3,12.1,2c1,0.5,2.2,0.1,2.6-1C265.2,55.8,264.8,54.5,263.8,54z
		 M191.2,25.4c8.5-3.4,19.9-5.9,32.2-7c19.3-1.7,34.7,0.9,37.8,4.4c0.2,0.2,0.8,1,0.6,2.2c-0.2,1.1-1.1,3.4-5.3,5.7
		c-0.2,0.1-0.3,0.3-0.5,0.4c-8.6-0.1-17.1,1.5-22.2,5.3c0,0,0,0,0,0c-1.5,0.2-3.1,0.3-4.7,0.4c-21.4,1.6-27.1-2.1-27.5-3.2
		c0-0.1,0.1-0.7,1.4-1.7c9.8-7.7,35.2-7.7,38-5.1c0,0.2,0,0.3-0.1,0.3c-1.4,2-10,2.7-17.2,2c-1.1-0.1-2.1,0.8-2.1,2
		c-0.1,1.2,0.7,2.2,1.8,2.3c4,0.3,17.2,1.1,20.7-3.7c0.9-1.3,1.2-2.9,0.7-4.6c-0.4-1.4-1.6-2.4-3.5-3.1c-7.4-2.6-30.9-1.4-40.5,6.2
		c-3.5,2.7-3.3,5.4-2.8,6.7c1.7,5.2,12,6.5,21.6,6.5c3.5,0,7-0.2,9.9-0.4c0.2,0,0.4,0,0.6,0c-0.1,0.3-0.3,0.7-0.4,1
		c-1.5,0.2-3,0.3-4.5,0.5c-12.3,1.1-24,0.7-32.8-1.2c-9.2-2-12.7-5-12.8-6.9C179.5,32.6,182.4,29,191.2,25.4z M189.2,45.2
		c-2.7-0.2-5.6-0.1-8.8,0.4c-0.3-1.2-0.5-2.7-0.7-4.3C182,42.8,185.2,44.1,189.2,45.2z M197.4,52.6c2.1,1.9,5.1,7.1,4.4,13.6
		c-0.9,8.5-7.6,16.4-19.5,22.9c-11.1,6.1-20.5,7.4-25,3.7c-2.5-2.1-2.6-5.2-2.2-7.4c1.9-10.9,13.4-18.3,21-20.1
		c3.7-0.9,6.6-0.5,7.6,0.9c1.8,2.8,1.2,4.3,1,4.8c-1.5,4-9.6,6.4-12.3,6.9c-1.1,0.2-1.8,1.3-1.6,2.5c0.2,1.2,1.2,2,2.3,1.8
		c1.3-0.2,12.6-2.6,15.3-9.5c0.7-1.9,1.1-5.1-1.4-9c-2-3.1-6.1-4-11.7-2.7c-10.1,2.4-22,11.4-24.1,23.5c-0.8,4.8,0.5,9,3.7,11.7
		c2.4,2,5.5,2.9,9.3,2.9c5.5,0,12.3-2.1,19.9-6.2c16.1-8.7,20.7-18.6,21.6-25.6c1.2,1.6,1.7,3.3,1.7,5.3c-0.2,7.8-10.2,19-24.2,27.2
		c-10.9,6.4-22.5,9.3-31.9,8c-0.9-1.4-2.3-2.8-4.5-3.9c-1.4-4.2-4-7.4-6.4-8.9c-1.3-0.8-2.8-1.3-4.4-1.5
		c-0.9-11.9,9.8-27.1,26.1-36.7C175.6,48.9,191.2,47,197.4,52.6z M167.4,111c-4.6,3.6-8.3,8.5-10.6,13.9c-1.3-4.9-2.7-9.3-3.9-12.5
		c0.9,0.1,1.9,0.1,2.9,0.1C159.5,112.6,163.4,112,167.4,111z M169.8,40.6c1.3,1.8,2.5,4.1,3.4,6.6c-2.4,0.7-4.8,1.7-7.2,2.8
		C168.6,46.3,169.6,43.2,169.8,40.6z M118.9,78c0,0-0.1-0.1-0.1-0.1c-0.1-0.1-0.2-0.2-0.3-0.3c-1.3-2-0.1-6.4,3.1-11.5
		c3.8-6,9.8-12.5,17-18.3c11.2-9,21.9-13.1,25.4-11.7c0.1,0.1,0.3,0.2,0.5,0.3c0,0,0,0,0,0c0.5,0.4,1.1,1.3,1.3,2.6
		c0.3,2.4-0.6,9.3-15.3,20.6c-12.1,9.3-17.3,9.3-18.3,8.5c-0.3-0.3-0.2-1.2,0-1.9c1.6-5.9,9-12.9,15.2-16.6c3.4-2,5.2-2.3,5.7-2.2
		c0.2,0.3,0.2,0.4,0.2,0.5c-0.3,2-5.2,5.6-9.5,7.8c-1,0.5-1.4,1.8-1,2.9c0.5,1.1,1.6,1.6,2.6,1.1c1.8-0.9,11-5.8,11.8-11.1
		c0.2-1.7-0.3-3.3-1.5-4.5c-1.1-1.1-2.8-1.3-5.2-0.6c-7,2.1-19.7,12.3-22.2,21.5c-1.1,4.1,0.7,6.1,1.5,6.7c2.1,1.6,5.4,1.4,9.9-0.4
		c-0.8,1-1.5,2.1-2.1,3.1C127.5,79.7,121,80,118.9,78z M123.8,83.4c3-0.2,6.6-1.1,10.6-2.8c-1.1,2.6-1.9,5.3-2.2,7.9
		C128.7,87.5,126,85.6,123.8,83.4z M99.8,143.7c-2.8-3.8-3.2-9.5-1-16.1c2.3-7,7.1-14.1,13.6-19.9c6.9-6.2,15.2-9.9,21.1-9.9
		c1.9,0,3.6,0.4,4.9,1.2c1.9,1.2,4.9,4.7,5.3,9.9c0.5,6.5-3.5,13.4-11.4,20.1c-7.4,6.2-14.2,8.7-18.1,6.7c-2.2-1.1-2.7-3.4-2.7-5.1
		c-0.2-7.6,6.3-15.2,12.6-18.2c3-1.4,5-1.3,5.7-0.6c1.7,1.8,1.4,2.9,1.4,3.3c-0.5,2.9-5.7,5.8-8.1,6.8c-1,0.4-1.6,1.7-1.2,2.8
		c0.4,1.1,1.5,1.7,2.6,1.3c1-0.4,9.4-4,10.6-10c0.3-1.8,0.2-4.4-2.5-7.3c-2.1-2.2-5.8-2.3-10.1-0.2c-7.4,3.6-15.2,12.6-15,22.3
		c0.1,4.1,1.9,7.3,5,8.9c5.4,2.8,13.5,0.2,22.2-7.2c10.4-8.8,12.9-16.8,13-22.4c0.1,0.1,0.1,0.3,0.2,0.4c0.3,0.7,0.6,1.6,1,2.7
		c0.7,5.9-5.3,16-14.4,24.1c-6.5,5.8-13.7,9.6-20.5,10.7C107.7,148.9,102.6,147.4,99.8,143.7z M149.3,160.8
		c-5-1.1-10.4-0.8-15.5,1.1c-1.2,0.4-2.3,1-3.5,1.5c-13.3,0.3-21.7-3.3-27.4-12.3c2.2,0.9,4.6,1.4,7.3,1.4c1.4,0,2.9-0.1,4.4-0.4
		c7.4-1.2,15.4-5.4,22.4-11.7c5.7-5.1,11.8-12.4,14.5-19.6c1,3.3,2,7.1,2.8,10.9c0.1,0.3,0.1,0.5,0.3,0.7c-0.3,1.7-0.4,3.5-0.4,5.2
		c0,5.1,1.1,10,3.1,14.4C156,155.4,153.1,159.1,149.3,160.8z M198.3,173.1c-22.2,0-40.2-15.8-40.2-35.2c0-13.7,10.1-26.1,23.5-28.9
		c2-0.4,4.9-0.7,8.3-0.7c8.5,0,19.8,1.9,26.7,8.6c4.5,4.3,6.5,10.2,6.1,17.5c-0.5,7.8-3.5,13.8-8.8,17.5c-6,4.2-14.4,4.9-21.8,1.9
		c-10.5-4.4-13.4-12.2-12.6-18.1c0.8-5.9,5.1-10.3,10.5-10.6c5.9-0.3,9.9,0.7,11.1,3c1.4,2.8-1,7.6-2,9.2c-0.6,1-0.4,2.3,0.5,3
		s2.1,0.5,2.8-0.5c0.5-0.8,5.1-8.1,2.3-13.8c-2-4-7-5.7-14.8-5.3c-7.2,0.4-13.1,6.3-14.2,14.3c-1.1,7.6,2.3,17.5,15.1,22.8
		c8.6,3.5,18.3,2.7,25.3-2.3c4.4-3.1,9.9-9.2,10.6-20.8c0.5-8.7-1.9-15.8-7.4-21c-2.4-2.3-5.2-4.1-8.2-5.5
		c6.6-0.4,12.5,1.4,17.2,5.3c6.4,5.4,10.4,14.8,10.4,24.5C238.6,157.3,220.5,173.1,198.3,173.1z M259.5,120c0,0.1-0.1,0.1-0.1,0.2
		c-0.6,1.3-1.1,2.6-1.5,3.8c-2,5.5-3.4,11.2-4,16.9c-3.6,0.4-6.7,0.3-11.4-1c0-0.7,0.1-1.4,0.1-2.1c0-8.1-2.5-16-6.7-22.1
		c3.3,0.5,6.7,0.8,10.1,0.8c6.1,0,11.9-0.8,17.4-2.3c0,0,0,0.1,0,0.1C261.8,116.1,260.5,118,259.5,120
		C259.6,119.9,259.5,119.9,259.5,120z M322,148.2c-5.6,12.7-24.1,15.6-41.2,6.6c-12.1-6.4-20.6-18.1-19.5-27
		c0.1-0.6,0.3-1.4,0.5-2.2c0.4-1.1,0.8-2.3,1.3-3.4c1.5-3.1,4-6.3,7.5-8.4c2.5-1.4,5.2-2.1,8.1-2.1c4.5,0,9.6,1.6,15.2,4.9
		c8.9,5.2,14.1,11.7,14.2,17.7c0.1,3.3-1.5,6.2-4.4,8c-7.2,4.6-16.7,1.7-22.4-3.5c-3.1-2.9-4.7-6.1-4-8.2c0.9-2.5,2-4,3.5-4.3
		c3.3-0.7,8.3,4.1,9.8,5.9c0.7,0.9,2,0.9,2.8,0.1c0.8-0.8,0.9-2.2,0.1-3.1c-0.7-0.9-7.3-8.6-13.5-7.2c-2.9,0.6-5,3-6.4,7.1
		c-1.3,4,0.6,8.9,5.2,13.1c6.6,6,17.8,9.8,27,3.9c4.1-2.6,6.4-7,6.4-11.8c-0.1-7.7-6.1-15.5-16.3-21.4c-13.1-7.6-21.9-5.7-27-2.8
		c-0.3,0.1-0.5,0.3-0.7,0.4c0.7-2.2,2-3.9,3.8-5.1c6.8-4.6,20-1.4,29.4,3.5C318.3,117.8,327.6,135.5,322,148.2z M340,168.8
		c-0.4,0-0.8,0.1-1.1,0.3c-3.2-5.1-6.9-9.4-9.3-11.8c-1.8-1.7-3.6-3.1-5.6-4.3c0.6-0.9,1.1-1.9,1.6-2.9c1.6-3.6,2.2-7.4,1.9-11.4
		c1.1,3.1,2.6,6.2,4.2,9.2c4.3,7.6,11,16.2,17.8,19.3C346.7,168.3,343.4,169.1,340,168.8z M367.9,155c-1.2,1.8-4.7,4.4-9.1,4.1
		c-5.7-0.4-11.3-5.5-16.2-14.7c-6.7-12.9-4.4-18.4-3.6-19.9c1.2-2,3.2-2.2,4.7-2c6.7,0.9,12.5,8.7,14.3,15.8
		c0.8,3.2,0.5,5.3-0.2,5.9c-1.7,1.4-2.6,1.1-2.9,1c-2.4-0.9-4.4-6.7-4.9-9.4c-0.2-1.2-1.3-1.9-2.4-1.6c-1.1,0.3-1.7,1.4-1.5,2.6
		c0.2,1.1,2.3,10.5,7.5,12.5c1.5,0.6,3.9,0.8,6.7-1.7c2.2-1.9,2.8-5.6,1.6-10.5c-2.1-8.3-9.1-17.8-17.7-19c-3.6-0.5-6.7,1-8.5,3.9
		c-3.2,5.2-1.9,14.1,3.4,24.4c6.3,12,12.9,15.8,17.8,16.7c-0.7,0.5-1.6,0.7-2.4,0.8h-0.1c-5.2,0-13.3-7.7-19.3-18.4
		c-4.2-7.6-6.7-15.7-6.8-22.9c-0.1-6.8,1.8-11.9,5.4-14.3c1.6-1,3.4-1.6,5.4-1.6c2.6,0,5.6,0.9,8.7,2.7c5.8,3.4,11.4,9.4,15.6,17
		C369.5,137.3,371.4,149.7,367.9,155z"/>
</g>
<g>
	<path fill="#C9B182" d="M112.5,89.9c-1.1-1.5-2.7-3-5.2-4.2c-1.6-4.5-4.7-7.9-7.5-9.4c-0.9-0.5-1.9-0.9-3-1.2c-0.6,0-1.1,0-1.7,0
		c-2.2,0-4.4-0.2-6.6-0.5c-7.5,0.9-16.3,4.9-24.2,11.4c-8.1,6.7-14.2,14.9-17.2,23.1c-2.4,6.5-2.5,12.5-0.6,17.4
		c6.2,17.3,16.5,25.4,34.4,26.8c-1,0.8-2,1.6-2.9,2.5c2.8-0.5,5.7-0.9,8.5-0.8c2.2-1.3,4.5-2.5,7-3.3c1.9-0.7,3.9-1.1,5.9-1.3
		c0,0,0,0,0-0.1c0-1.5,0.1-3.1,0.2-4.6c-2.6,0.3-5.1,0.8-7.6,1.6c-1.4,0.5-2.7,1-4,1.6c-15.5,0.3-25.2-3.5-31.8-13.1
		c2.5,0.9,5.3,1.4,8.5,1.4c1.6,0,3.4-0.1,5.1-0.4c8.6-1.3,17.9-5.7,26-12.4c5.9-4.8,12.1-11.5,15.6-18.3c0.1-2.9,0.7-6.1,1.7-13
		c-0.2-1.1-0.4-2.2-0.5-3.4C112.7,89.9,112.6,89.9,112.5,89.9z M93.1,121c-7.5,6.2-15.9,10.2-23.8,11.4c-7.4,1.1-13.3-0.5-16.6-4.5
		c-3.3-4-3.7-10.1-1.2-17.1c2.7-7.4,8.3-14.9,15.8-21.1c8-6.6,17.6-10.6,24.5-10.6c2.2,0,4.1,0.4,5.7,1.2c2.2,1.2,5.7,5,6.1,10.5
		c0.5,6.9-4.1,14.3-13.2,21.3c-8.6,6.6-16.5,9.3-21,7.1c-2.5-1.2-3.1-3.6-3.1-5.4c-0.2-8,7.3-16.2,14.7-19.4
		c3.5-1.5,5.8-1.4,6.6-0.6c1.9,1.9,1.7,3.1,1.6,3.5c-0.6,3-6.6,6.2-9.4,7.2c-1.2,0.4-1.8,1.8-1.4,3c0.4,1.2,1.8,1.8,3,1.4
		c1.1-0.4,11-4.2,12.3-10.6c0.4-1.9,0.2-4.7-2.9-7.7c-2.4-2.4-6.7-2.5-11.7-0.3C70.5,94,61.4,103.6,61.7,114
		c0.1,4.3,2.2,7.8,5.8,9.5c6.2,3,15.6,0.2,25.8-7.6c12.1-9.3,15-17.8,15.1-23.7c0.1,0.1,0.2,0.3,0.3,0.4c0.3,0.7,0.7,1.7,1.1,2.9
		C110.6,101.6,103.6,112.3,93.1,121z"/>
</g>
<g>
	<path fill="#C9B182" d="M137.3,49.1c-0.2-0.3-0.3-0.5-0.3-0.7c-0.1-1.2,1.9-3.4,7.8-5.6c1.4-0.5,3-1,4.7-1.5
		c1.3-1.2,2.9-2.4,4.9-3.9c-3.9,0.8-7.4,1.7-10.4,2.8c-6.3,2.4-9.6,5.2-9.5,8.1c0,0,0,0,0,0c0,0.3-0.1,1.7,0.1,3.4
		C135.3,50.9,136.3,50,137.3,49.1z"/>
	<path fill="#C9B182" d="M96.5,75.1c0,0-0.1-0.1-0.1-0.1c0,0-0.1-0.1-0.1-0.1c-0.1-0.1-0.1-0.1-0.2-0.2c-0.9-1.2-0.1-3.9,2.1-7.1
		c2.5-3.7,6.5-7.6,11.4-11.2c7.5-5.5,14.7-8,17-7.2c0.1,0,0.2,0.1,0.3,0.2c0,0,0,0,0,0c0.4,0.3,0.8,0.8,0.9,1.6
		c0.2,1.5-0.4,5.7-10.2,12.6c-8.1,5.7-11.6,5.7-12.2,5.2c-0.2-0.2-0.2-0.7,0-1.2c1.1-3.6,6-7.9,10.2-10.1c2.3-1.2,3.5-1.4,3.8-1.3
		c0.1,0.2,0.1,0.2,0.1,0.3c-0.2,1.2-3.4,3.4-6.4,4.8c-0.7,0.3-1,1.1-0.7,1.8c0.3,0.7,1.1,1,1.8,0.7c1.2-0.6,7.4-3.5,7.9-6.8
		c0.2-1-0.2-2-1-2.7c-0.7-0.7-1.9-0.8-3.4-0.4c-4.7,1.3-13.2,7.5-14.8,13.1c-0.7,2.5,0.5,3.7,1,4.1c1.4,1,3.6,0.9,6.6-0.2
		c-0.5,0.6-0.9,1.2-1.3,1.8c0.5,0,1,0,1.5-0.1c1-0.5,1.9-0.9,2.9-1.3c1.9-2.2,4.2-4.2,6.8-6.1c1.4-1.3,2.9-2.5,4.4-3.6
		c1.4-1.2,2.8-2.2,4.2-3.2c0.3-0.4,0.6-0.8,0.9-1.2c-0.6,0.2-1.3,0.5-1.9,0.7c1.7-2.3,2.4-4.2,2.5-5.8c0.5,0.7,1.1,1.5,1.5,2.4
		c0.6-0.7,1.3-1.4,1.9-2.1c-1.4-2.4-3.3-4.5-5.5-5.2c-0.3-0.2-0.6-0.3-0.8-0.4c-4.2-1.5-13,2.8-19.5,7.5c-5.1,3.7-9.3,7.9-12,11.8
		c-2.9,4.2-3.6,7.6-2.1,9.9C94.7,75.7,95.6,75.4,96.5,75.1z"/>
</g>
</svg>
