<?xml version="1.0" encoding="utf-8"?>
<!-- Generator: Adobe Illustrator 17.1.0, SVG Export Plug-In . SVG Version: 6.00 Build 0)  -->
<!DOCTYPE svg PUBLIC "-//W3C//DTD SVG 1.1//EN" "http://www.w3.org/Graphics/SVG/1.1/DTD/svg11.dtd">
<svg version="1.1" id="Слой_1" xmlns="http://www.w3.org/2000/svg" xmlns:xlink="http://www.w3.org/1999/xlink" x="0px" y="0px"
	 viewBox="0 0 425.2 425.2" enable-background="new 0 0 425.2 425.2" xml:space="preserve">
<g>
	<path fill="#CAB183" d="M289.7,333.3c-1-0.7-2.5-0.4-3.3,0.7c-0.5,0.7-0.9,1.4-1.3,2.1c-2,3.2-3.7,6-6.2,6.2
		c-2.6,0.4-6.4-1.7-11.4-6.1c-3.2-2.8-5.7-5.9-8.1-8.9c-7.8-9.6-14.3-15.2-29.7-7.2l10.8-14.5l0,0c-1.4-0.7-2.7-1.4-4-2.1l0,0
		L221.4,324c-0.1,0-0.2,0-0.3,0.1c-4.3,2.3-8.8,3.8-13.1,4.6l10.5-29.3c0.2-0.6,0.2-1.2-0.1-1.8c-1.4-0.1-2.8-0.1-4.2-0.2
		c-0.1,0.1-0.1,0.2-0.2,0.3l-11.3,31.5c-3.1,0.2-6.1,0.1-8.9-0.2v-0.5l-5.2-31.7c-1.6,0-3.2,0-4.8,0l5.1,31.4
		c-5.2-1-9.2-2.7-11.3-4.1c-0.1-0.1-0.2-0.1-0.3-0.1l-10.9-16.2c-1.2,0.9-2.5,1.8-3.8,2.5l14.2,21.3l-19,34.3
		c-2.8,5.2-3.4,8.4-2,10.6c1.5,2.4,4.4,2.3,6.5,2.3h1.7c0.7,0.1,2.3,2.1,3.3,3.4c2.5,3.1,5.6,6.9,10,6.2c3.2-0.5,5.6,0.7,8.3,2.1
		c2.7,1.4,5.8,2.9,10,2.9c0.6,0,1.1,0,1.7-0.1c3.6-0.4,6.9-1.8,9.7-3c3-1.3,5.6-2.4,7.5-1.8c5.2,1.8,10.6-1.8,14.2-4.1
		c0.7-0.4,1.2-0.8,1.7-1.1l0.6-0.4c3.4-2,11.1-6.5,6.5-17l-14-29.7c12.1,1.9,17.4,4.8,18.1,14.2c0.7,9.8,7.1,17.7,12.7,19
		c0.5,0.1,1,0.2,1.5,0.2c1.9,0,3.5-0.8,4.4-2.5c0.7-1.1,0.3-2.5-0.8-3.2c-1.1-0.7-2.5-0.3-3.2,0.8c0,0.1-0.1,0.2-0.7,0.1
		c-2.9-0.7-8.5-6.3-9.1-14.8c-0.9-13.6-10.9-16.9-23.3-18.6c-0.4-0.2-0.8-0.3-1.3-0.2l0.6-0.8c21.4-15.3,25.8-9.9,33.8-0.1
		c2.4,3,5.1,6.3,8.6,9.4c5.6,4.9,10,7.3,13.8,7.3c0.5,0,0.8,0,1.3-0.1c4.6-0.7,7.1-4.6,9.4-8.4c0.5-0.7,0.8-1.3,1.3-2
		C291.1,335.6,290.7,334.1,289.7,333.3z M182.2,331.9v-0.5c0-0.1,0-0.1,0-0.2c4.7,1.6,10.7,2.7,17.3,2.7c1.6,0,3.2-0.1,4.8-0.3
		c0.1,0,0.1,0,0.2,0c0.2,0,0.4-0.1,0.7-0.1c3.7-0.4,7.6-1.2,11.3-2.4v0.6c0,0.2,0.1,0.3,0.1,0.5c0,0.1,0,0.2,0.1,0.3l0.5,1
		c-13.4,5.6-28.7,2.1-35-1.2C182.2,332.2,182.2,332,182.2,331.9z M233.4,368.1c2.6,6-0.5,8.4-4.7,10.9l-0.7,0.4
		c-0.6,0.4-1.2,0.7-1.9,1.2c-3,2-7.1,4.6-10.2,3.5c-3.6-1.2-7.1,0.3-10.8,2c-2.6,1.1-5.4,2.3-8.3,2.6c-3.7,0.4-6.3-0.9-9.1-2.4
		c-3-1.5-6.4-3.3-11.1-2.5c-1.8,0.3-3.8-2.3-5.7-4.6c-2.1-2.5-3.9-4.8-6.5-5c-0.7-0.1-1.4-0.1-2.1,0c-0.7,0-2.2,0-2.5-0.1
		c0-0.1-0.4-1.3,2.1-6l17.8-31.7c1.9,1,4.3,2,7,2.8c-0.4,0.3-0.7,0.7-0.8,1.2l-9.1,33.8c-0.4,1.2,0.4,2.5,1.7,2.9
		c0.2,0.1,0.4,0.1,0.7,0.1c1,0,2-0.7,2.2-1.7l9.1-33.8c0.2-0.6,0.1-1-0.1-1.5c3.2,0.7,6.6,1.1,10.3,1.1v15.9c0,1.3,1,2.3,2.3,2.3
		s2.3-1,2.3-2.3v-15.9c4.6-0.4,9.2-1.4,13.8-3.4L233.4,368.1z"/>
</g>
<g>
	<path fill="#CAB183" d="M200.9,46.3c0,0.2,0,0.3,0,0.3c-0.2,0.4-0.7,0.7-1.4,1.1c1.3,0,2.6,0.3,3.8,0.6c0.7-0.2,1.4-0.4,2.1-0.5
		c0.4-1.2,0.2-2.6-0.5-3.8c-0.7-1.5-2.5-2.4-5.1-2.5c-7.8-0.7-24.2,4.1-29.8,11.7c-0.4,0.5-0.7,0.9-0.8,1.4c0.8,0.1,1.7,0.2,2.5,0.5
		c0.7,0.2,1.4,0.5,2.1,0.7C179.4,48.5,197.9,44.6,200.9,46.3z"/>
	<path fill="#CAB183" d="M303.4,165.8c3.5,0.5,6.9,6.8,7.7,9c0.5,1.1,1.9,1.8,3,1.3s1.8-1.9,1.3-3c-0.5-1.1-4.6-10.7-11.3-11.7
		c-0.8-0.1-1.7-0.1-2.5,0c0,1.6-0.1,3.2-0.2,4.8C302.1,165.8,302.8,165.8,303.4,165.8z"/>
	<path fill="#CAB183" d="M322.1,193.4c5.1-0.9,9-4.1,10.5-8.8c2.4-7.2-1-16.6-9.3-25.9c-8.4-9.3-16.1-12.3-22-12.8
		c0.1,0.7,0.1,1.5,0.1,2.1c0,0.7,0.1,1.6,0.1,2.3c1.5,0.2,3,0.6,4.5,1.1c4.6,1.7,9.1,5,13.6,10c7.2,8,10.2,15.9,8.4,21.4
		c-1,3-3.5,5-6.9,5.7c-8.4,1.5-16.5-4-20.6-10.5c-0.3,2.1-0.6,4.3-0.9,6.4C304.8,190.6,313,195.1,322.1,193.4z"/>
	<path fill="#CAB183" d="M202.8,337c-0.6-0.7-1-1.5-1.6-2.2c-0.9-0.1-1.9-0.2-2.8-0.3C199.8,335.4,201.3,336.2,202.8,337z"/>
	<path fill="#CAB183" d="M392.4,212.8v-0.7c0-0.5-0.3-0.9-0.7-1.2c0.5-4.7,0.2-10-0.9-15.2c-1.9-9.3-5.9-17.6-11.1-23.5
		c-0.8-0.9-1.8-1.8-2.5-2.5c3.2-0.5,7-1.2,10-2.6c0.1-0.1,0.3-0.2,0.4-0.3c0.2-0.2,0.4-0.2,0.6-0.3c4.3-2.7,5.7-8.9,4.2-17.3
		c-1.4-7.6-5.1-16.6-10.7-25.2c-1.6-2.4-15.9-24.2-26-22.8c-1.7,0.2-3.8,1.1-5.4,4.1c-1,0.1-2,0.5-2.8,0.8
		c-0.7-11.1-10.6-23.9-26.5-32.4c0.4-1,0.4-2.4-0.4-4.2c0.7-0.7,1.1-1.3,1.5-1.9c1.1-2,1.2-4.3,0.3-6.3
		c-3.5-7.6-22.9-15.8-39.5-20.3c-13.1-3.6-25.9-5.6-36-5.5c-10.8,0-17.3,2.5-18.9,7.1v0.1c-0.2,0.7-1.5,3.8-2.3,7.3
		c-0.6-4.8-2.4-9.8-5.7-12.4c-0.3-0.5-0.7-0.9-1.1-1.2c-5.6-4.8-21.4-2.9-33.7,0.7c-9.7,2.8-18.5,6.8-24.6,11.3
		c-3.4,2.5-5.7,4.8-7.1,6.9c0.4,0,0.7-0.1,1-0.1c1.6,0,3.1,0.3,4.5,0.7c1.1-1.2,2.6-2.5,4.4-3.8c5.8-4.1,14-7.9,23.2-10.6
		c14.3-4.1,26.4-4,29.4-1.5c0.1,0.1,0.2,0.2,0.4,0.5c0,0,0,0,0.1,0c0.4,0.6,0.7,1.5,0.4,2.7c-0.3,1.1-1.1,3.1-4,5.3
		c1.7,0.6,3.4,1.2,4.9,1.9c1.2-1.3,2.1-2.5,2.7-3.7c0.5,1.8,0.7,3.7,0.9,5.7c1.2,0.8,2.3,1.8,3.4,2.8c0.2,0.2,0.3,0.3,0.5,0.5
		c1.1-0.2,2.2-0.4,3.4-0.4c4.8,0,9.2,2.1,12.3,5.6c3.5,3.1,5.6,7.5,5.6,12.3c0,3.6-1.2,6.9-3.2,9.7c0,0,0,0.1-0.1,0.1
		c1.2,0.9,2.3,1.9,3.5,2.9c0.1,0,0.2,0,0.3-0.1c0.3-0.4,0.5-0.7,0.7-1c0.1,0.3,0.2,0.7,0.2,0.9c1.5-0.2,3-0.4,4.6-0.4
		c-0.3-2-1-4.1-2.6-6.3c1.1-5.3,0.2-10.5-1.7-13.7c-0.7-1.3-1.6-2.3-2.8-3.5c4.6,2.3,9.7,4.7,15.4,6.7c4.4,1.6,9,3.1,13.8,4.3
		c1.2,0.4,2.3,0.6,3.5,0.9c-0.3,1.1-0.5,2.3-0.5,3.5c-3.6,3.3-5.6,7.6-5.8,10.8c-0.1,0.7,0,1.3,0,2.1c5.5,2.9,10.2,6.7,14,11.1
		c8.5,3.8,17,9.2,20,15.4c1.4,3,1.5,5.8,0.1,8.8c-1.3,2.7-3.5,4.7-6.2,5.8c0.3,1.5,0.7,3,0.8,4.6c4.4-1.6,7.6-4.5,9.6-8.5
		c2.1-4.2,2.1-8.6,0-12.8c-1.2-2.4-3-4.7-5.2-6.7c6.4,2.8,11.3,6.9,14.1,11.7c2.6,4.6,3.2,9.7,1.7,14c-1.1,3-3.4,5.3-6.6,7.3
		c-4.4-1.8-8.9-2.6-13.1-1.8c0.2,1.6,0.4,3.1,0.6,4.6c0.1,0,0.3-0.1,0.4-0.1c7.2-1.5,18.8,4.3,28.3,14c4.2,4.5,7.6,9.5,9.8,14.5
		c5,11.3,4.6,22.6-2.2,29.3c-9,8.7-26.1,6.1-39.7-5.6c-0.1,0.5-0.2,0.9-0.3,1.4c-0.4,1.8-0.7,3.4-1,5.2c0,0-0.3,2.1-0.5,3
		c0.1,0.1,0.2,0.2,0.2,0.3c4.7,7,5.4,18.3,1.6,28.6c-3,8.4-8.9,14.9-16.1,18.9c-2.9,3.1-6.2,5.9-9.7,8.3c5.6-1,11-3.3,15.7-6.5
		l1,1.3c4.1,6.8,5.4,14.4,6.6,20.9c0.8,4.5,1.6,8.7,3.1,11.9c-8.1-3-20.8-8.8-26.9-16.8c-2.1-2.8-3.1-5.6-3.1-8.4
		c-1.5,0.8-2.9,1.7-4.4,2.4c1.5,9.4,11,17.3,22.3,22.8c-1.2,0.7-2.3,1.5-3.5,2.3c-9,6.1-14.8,10.2-23.9,3.8
		c-3.4-2.3-6.6-4.5-9.6-6.3c0.6-1.4,1.3-2.7,2.1-4.1c2.3-4.5,4.8-9.2,4.8-14.8c-1.3,0.6-2.6,1.1-3.8,1.7c-0.1,0.2-0.1,0.4-0.2,0.6
		c-0.5,1.2-1,2.4-1.7,3.5c-0.8,2.2-2,4.4-3.2,6.7c-2.6,5.1-5.3,10.4-5.3,17c0,0.2,0,0.4,0,0.5c-2.7-0.9-10.2-8.2-17.3-19.6
		c-1.6-1-3-2.1-4.4-3.4c-0.6,0.8-1.2,1.6-1.8,2.4c4,6.8,8.4,12.8,11.8,16.8c4.8,5.3,7.8,7.5,9.9,8.2c0.5,0.2,0.8,0.3,1.2,0.3
		c1.3-1.6,2.9-2.9,4.8-3.8c0.1-0.5,0.1-0.9,0.1-1.5c-0.1-2.2,0.4-4.2,0.9-6.2c2.7,1.8,5.6,3.6,8.7,5.9c0.1,0,0.1,0,0.2,0.1l-0.6,0.4
		c0.7,0.2,1.5,0.3,2.2,0.6c1,0.4,2.1,0.9,3,1.5l0.2-0.2c0.3,0.1,0.6,0.3,0.8,0.4c9,3.3,16.2-1.7,23.7-6.7c1.9-1.3,3.8-2.6,5.9-3.9
		c1.5,0.7,3,1.2,4.5,1.7c1.2,0.5,2.3,0.8,3.5,1.2c6.1,1.9,8,2.2,9,0c0.8-2.1-1.5-3.3-2.2-3.6c-1.8-0.7-2.9-2.4-3.7-4.7
		c1.5-0.5,2.9-0.9,4.5-1.3c7.7-1.7,12.9-0.5,17.9,0.7c6.9,1.7,13.4,3.1,23.9-4.6c12.4-9.1,13.7-15.6,14.7-20.1
		c0.9-4.1,1.5-6.7,11.1-10.4C395.6,241.5,393.9,225.6,392.4,212.8z M386.3,196.6c2.4,12,0.3,24.2-5,27.7c-1.9,1.2-6.1,2.3-10.4,0.4
		c-5.6-2.4-9.5-9.1-11.2-19.4c-2-11.3,0.3-17.4,3-19.5c1.9-1.4,3.9-0.8,5.2-0.2c6.3,3.2,9.6,12.5,9,19.7c-0.3,3.2-1.2,4.9-2,5.2
		c-2.1,0.7-2.8,0.1-3.1-0.1c-1.9-1.6-2.1-6.9-1.7-10.3c0.2-1.2-0.7-2.4-2.1-2.6c-1.3-0.2-2.4,0.7-2.6,2.1c-0.1,1-1.2,10.6,3.4,14.5
		c1.4,1.1,3.7,2.1,7.5,0.9c3-1,4.8-4.3,5.1-9.2c0.7-8.6-3.2-20-11.6-24.2c-3.5-1.8-7.2-1.6-10,0.6c-5,3.7-6.8,12.4-4.8,24
		c2.2,13.1,7.4,19,11.9,21.8c-0.7,0-1.4,0-2.1-0.3h-0.1c-5.1-1.9-10.7-11.9-13.1-23.9c-3.4-16.8,1.6-32.6,10.9-34.6
		c2-0.4,3.8-0.2,5.8,0.6c2.6,0.9,5.3,2.9,7.8,5.7C381,180.5,384.5,188.1,386.3,196.6z M347.1,182.2c-0.4-3.3-1.2-6.4-2.4-9.6
		c2.1-0.7,4.9-1.7,8.1-2.4C350.2,173.2,348.3,177.3,347.1,182.2z M347.2,112.3c0.4-0.7,1.9-2.3,4.5-2.3c0.9-0.1,2.1,0.1,3.5,0.6
		c3.7,1.4,9.1,5.4,15.8,16.3c7.7,12.6,7.6,18.7,6.4,20.3c-0.4,0.6-1.2,0.7-2.5,0.3c-6.1-1.7-12.5-9.9-15.5-16.8
		c-1.6-3.7-1.7-5.9-1.6-6.2c0.6-0.6,1-0.6,1.1-0.5c2.3,0.6,5.4,6.5,6.7,10.4c0.5,1.2,1.8,1.9,3,1.4c1.2-0.5,1.8-1.7,1.4-3
		c-0.7-2-4.4-11.9-9.9-13.3c-1.3-0.4-3.4-0.4-5.4,1.5c-1.5,1.4-2,3.7-1.2,7c1.9,7.9,10.6,21.3,20,23.9c3.2,0.8,5.9,0.2,7.5-2
		c3.4-4.4,1.1-13.5-6.2-25.5c-7.4-12-13.8-16.8-18.7-18.5c4.3-0.6,13.6,8.6,21.5,20.7c5.1,8,8.8,16.4,10,23.5
		c1.1,6.2,0.3,10.8-2.1,12.5c-2.4,1.6-7.1,0.4-12.2-3.3c-6-4.1-12-10.8-17.3-18.9C348.1,128.2,345.3,116.2,347.2,112.3z M229.4,54.5
		c0.1-1.1,0.4-2.4,0.7-3.7c1.5,1.9,3.6,3.8,6.4,5.8C234.3,55.7,231.9,55.1,229.4,54.5z M275.4,68.3c-12.8-3.5-24.3-8.2-32.6-13.1
		c-8.6-5.1-11-9-10.5-10.9c0.6-2,4.6-4.1,14.6-4.1c9.6-0.1,21.9,1.9,34.8,5.3c20,5.5,34.6,13.6,36.6,17.9c0.1,0.3,0.4,1-0.2,2.1
		c-0.9,1.7-3.5,2.8-7.2,3.3c-0.2,0-0.4,0.2-0.6,0.2c-8.7-3.3-17.7-4.8-24.1-3.3c-1.6-0.4-3.2-0.8-4.8-1.4
		c-22.1-6.4-26.5-11.8-26.5-12.9c0-0.1,0.6-0.6,2-0.9c12.1-3.5,37.4,5.5,39.8,9.1c-1,1.2-9.2-0.5-17.9-4.5c-1.2-0.6-2.6,0-3.1,1.1
		c-0.6,1.2,0,2.6,1.1,3.1c3.9,1.9,17.1,7.3,22.2,4.1c1.4-0.8,2.2-2.3,2.3-4.1c0-1.5-0.8-2.9-2.6-4.3C292,49.9,268,42.5,255.6,46
		c-4.6,1.3-5.3,3.9-5.2,5.3c0,5.5,10.1,10.5,19.8,14.1c3.6,1.3,7.1,2.4,10.1,3.3l0.4,0.1c-0.2,0.2-0.3,0.3-0.5,0.6
		C278.4,69.2,277,68.7,275.4,68.3z M312,106.3c-0.1,0.1-0.3,0.1-0.4,0.1c-3.5-2.2-7.6-4-12.3-5.4c-0.2-0.2-0.2-0.3-0.4-0.5
		c-4.3-3.3-6.1-6.3-5.5-7.7c0.9-2.4,2.1-2.7,2.5-2.9c3.1-0.7,8.7,3.4,11.4,6.2c0.8,0.9,2.3,0.9,3.3,0c0.9-0.8,0.9-2.3,0-3.3
		c-0.8-0.9-9-9-15.7-7.5c-1.9,0.5-4.4,1.8-6,5.8c-0.7,2.1-0.3,4.6,1.4,7.2c-4.8-2.3-9.6-4.2-13.7-5.5c0,0,0,0,0-0.1
		c-0.6-1.6-0.7-3-0.7-4.3c0.2-2.5,2.3-7.1,7-9.7c6.5-3.4,15.9-2,26.9,4.2c12.2,6.8,16.3,13.6,16.1,17.6c-0.1,2.7-2.2,4.2-3.8,4.8
		C319.3,106.6,315.8,106.9,312,106.3z M317.8,111.2c2.2-0.2,4.3-0.7,6.2-1.5c4-1.7,6.4-4.9,6.6-8.9c0.3-7.1-6.4-15.1-18.5-21.9
		c-14.5-8-23.9-7.5-29.7-4.9c0.5-1.1,1.2-2.1,2.2-2.6c5.6-3.5,19.1-1,32.5,5.8c18.5,9.5,29.7,26,24.4,35.9
		c-2.6,4.9-8.9,7.7-17.4,7.7c-0.5-1.2-1-2.4-1.8-3.6C321.2,114.9,319.6,113,317.8,111.2z M318.4,142.9c2.9-2.2,4.9-4.9,6.1-8
		c1.1-3,1.3-6.3,0.8-9.6c4.8-0.2,9-1.1,12.4-2.7c-3.5,8-9,17.4-18.6,20.7C318.9,143.2,318.7,143,318.4,142.9z M332.9,154.1
		c-2.6-2.6-5.7-5.3-9-7.7c10.2-5,15.7-15.9,19.1-24.1c1.6,6.7,5.2,14.5,9.3,20.8c5.5,8.6,12,15.7,18.5,20.1c1.2,0.8,2.3,1.6,3.4,2.1
		c-1.5,0.2-2.6,0.3-3.1,0.3c-1.9-0.7-3.9-1.1-5.9-1.2c-7.7-0.9-17.2,2.1-22.2,3.9C340.5,163.3,337.1,158.5,332.9,154.1z
		 M340.5,204.5c2.6-2.5,4.4-5.5,5.5-8.9c0.1,2.9,0.5,6.1,1.1,9.1c1.8,8.5,5.5,18.6,11.2,24.2c-3.1-0.3-6.6-0.7-9.6-2.1
		c-0.4-0.1-0.7-0.2-1.1-0.2c-1.5-5.8-3.7-11.1-5.4-14.2c-1.2-2.1-2.6-4.1-4.1-5.9C338.8,205.8,339.8,205.2,340.5,204.5z
		 M325.9,218.2c2.1-0.6,5.3,1.1,7.1,5.3c2.9,6.6,1.8,8.1,1.8,8.1c-0.3,0.2-1.7,0.1-3-0.5c-1.2-0.6-2.6,0-3.1,1.1
		c-0.6,1.2,0,2.6,1.1,3.1c0.5,0.3,5.3,2.3,8.1-0.5c3.1-3.1,1-9-0.8-13.3c-2.5-5.8-7.6-9-12.3-8c3.3-1.3,6.4-2.9,9.2-4.6
		c1.5,1.7,2.8,3.5,3.9,5.6c3.5,6.3,8.7,21.4,5.5,29.1c-0.9,2.1-2.5,3.5-4.7,4.1c-2.5,0.7-5,0.3-7.4-1.4c-4.5-3-8.1-10.1-9-17.1
		C321.8,223.3,323.1,219,325.9,218.2z M317.8,229.8c0.7,7,4.5,16,10.9,20.4c1,0.7,2.1,1.3,3.3,1.7c2.5,0.9,5.3,1,7.9,0.3
		c3.6-0.9,6.2-3.4,7.7-6.8c0.5-1,0.7-2.1,0.9-3.3c0.7,3.7,0.6,7.2-0.5,10.2c-0.9,3.7-3.5,6.5-6.6,7.7c-8.3,3.2-20.3-7.2-26.2-22.8
		c-2.8-7.3-4-14.6-3.4-21.1c3.9-0.1,7.6-0.8,11.1-2.1C320.4,215.5,316.6,219.4,317.8,229.8z M310.3,208.4c3,1.1,6,1.8,9,2.1
		c-4.8,1.3-10,1.6-15.8,0.2c-0.7-2.6-1.8-5.1-3.4-7.5C303.4,205.5,306.9,207.2,310.3,208.4z M291,251.9c4.8-4.2,8.6-9.7,10.9-16.1
		c2.1-5.7,3.4-13,2.4-20c0.9,0.2,1.9,0.3,2.7,0.4c-0.7,7,0.6,15.1,3.6,22.9c4.6,11.7,11.8,20.5,19.5,24.2
		C316.6,265.2,298.5,262,291,251.9z M372.1,245.8c-11.1,4.4-12.7,8.2-13.9,13.8c-0.9,4.3-2,9.3-13,17.4c-8.7,6.4-13.4,5.3-20,3.8
		c-5.2-1.2-11.2-2.6-19.9-0.7c-1.6,0.3-3.2,0.8-4.8,1.3c-0.4-1.7-0.7-3.5-1-5.3c-0.7-4.2-1.6-9-3.3-13.8c1.9,1.1,3.8,2,6.1,2.8
		c13.6,4.9,31.1,4.3,41-0.7c4.3-1.7,7.7-5.5,9.4-10.4c2.1-6.3,1.2-13.9-2.6-21.7c7.9,2.2,16.1,0.7,17.4,0.3c1.8-0.2,3.6-0.8,5.7-2.4
		c4.2,0.7,8.2-0.4,10.5-2.1c1.9-1.2,3.5-3.2,4.7-5.5C388.7,231.7,386.1,240.3,372.1,245.8z"/>
</g>
<g>
	<path fill="#CAB183" d="M288.3,106.6l-0.6-0.5c-0.4-0.4-0.8-0.5-1.3-0.5c-3-3.6-6.9-7.3-11.3-10.3c-7.8-5.3-16.5-8.5-24.3-9
		c-1.2-0.1-2.4,0-3.5,0c2-2.5,4.1-5.8,5.3-8.9c0-0.1,0.1-0.4,0.1-0.5c0-0.2,0.1-0.4,0.2-0.7c1.1-4.9-2.1-10.4-9-15.2
		c-6.3-4.5-15.3-8.2-25.3-10.4c-2.9-0.7-28.2-6.2-34.6,1.9c-1,1.3-2.1,3.5-0.9,6.7c-0.7,0.8-1,1.7-1.4,2.6
		c-8.2-7.5-24.3-9.6-41.7-4.7c-0.5-1-1.4-2.1-3.2-2.7c0-0.9-0.1-1.7-0.3-2.3c-0.6-2.2-2.1-3.9-4.2-4.8c-7.7-2.9-27.4,4.8-42.5,13.1
		c-11.9,6.6-22.4,14.1-29.6,21.3c-7.7,7.6-10.6,14-8.6,18.4v0.1c0.3,0.6,1.6,3.7,3.5,6.8c-3.8-3.1-8.6-5.3-12.8-4.8
		c-0.6-0.2-1.2-0.2-1.7-0.1c-7.4,0.6-17.3,12.9-23.6,24.1c-4.9,8.8-8.4,17.7-9.7,25.3c-1.9,10.6,1,14.7,3.9,16.3
		c0.2,0.1,0.4,0.1,0.7,0.2c0.1,0,0.2,0.1,0.3,0.2c0.7,0.2,1.3,0.6,2.1,0.8c4.3,1.9,10.8,4.4,18.5,2.9l0.1,0.3
		c-6.3,3.4-12.7,10.5-17.1,19.4c-4.4,8.8-6.2,18-5.7,26.1c0.6,6.4,2.7,11.6,6.2,14.9c2,2,3.9,3.7,5.9,5.2
		c-0.4,20.2,8.2,26.2,15.1,31c4.7,3.3,7.9,5.5,8.4,11.3c1.8,22.1,20.1,22.4,33.6,22.6c5.8,0.1,11.3,0.1,14,1.9
		c11.3,7.2,20,6,28.1,3.7c1.9,3.5,3.9,6.5,5.4,8.5c2.1,2.7,4.5,5.2,7,4.2c0.1,0,0.1,0,0.2-0.1c2.4-1.1,2-4.2,2-5.2
		c-0.3-2.9-0.3-6.1,0-9.3c2.1,0.6,4,1.7,6,3.5c3,2.6,8.2,3.7,14.7,2.9c0.8-0.1,1.8-0.3,2.6-0.5l0.5,0.3c0.5-0.4,1-0.7,1.7-0.9
		c1.4-0.7,2.8-0.8,4-0.8l-0.3-0.2c0.9-0.3,1.9-0.7,2.7-1.1c6.8-3.1,13.7-8.3,18.6-16.1c4.2-6.7,17.3-14.4,23.5-17.6
		c7.8,2.1,15.5,3.5,20.9,3.8c7.1,0.5,10.8-0.2,12.8-1.1c1.8-0.8,2.2-1.9,2.4-2.3c0.6-1.2,0.7-3.2-1.7-5.5c-1.6-1.5-2.7-3.3-3.6-5.1
		c3.1-0.6,6.3-1.3,9.9-1.9c0.4-0.3,0.8-0.6,1.3-0.7c1.5-0.7,2.9-0.9,4.3-0.7l0.1-0.3c0.3-0.1,0.7-0.2,0.9-0.3
		c8.8-4,10.4-12.5,12.2-21.4c0.4-2.2,0.9-4.5,1.5-6.9c1.5-0.6,2.9-1.2,4.4-1.9c1.2-0.6,2.3-1,3.4-1.6c5.7-2.9,7.3-4,6.3-6.2
		c-0.9-2.1-3.4-1.2-4.1-1c-1.9,0.7-3.7,0.3-6-0.7c0.7-1.3,1.4-2.7,2.2-4c4.4-6.6,8.9-9.3,13.2-12c6.1-3.7,11.7-7.2,13.9-20
		c2.4-15.2-1.1-20.7-3.6-24.7c-2.2-3.6-3.6-5.8,0.6-15.2C310.6,124.8,298.3,114.7,288.3,106.6z M250.5,91.2c7,0.5,14.8,3.4,22.1,8.2
		c10.2,6.9,17.1,17.1,15.8,23.2c-0.5,2.1-2.6,5.9-7.1,7.6c-5.7,2.1-13.1,0.1-21.5-6c-9.3-6.7-12-12.7-11.5-16
		c0.4-2.3,2.1-3.4,3.6-3.8c6.8-2.1,15.7,2.2,20.2,7.7c2.1,2.4,2.6,4.4,2.2,5.1c-1,2.1-2,2.1-2.2,2.1c-2.4,0.2-6.3-3.5-8.4-6.2
		c-0.7-1-2.2-1.2-3.3-0.5c-1.1,0.8-1.2,2.2-0.5,3.3c0.7,0.8,6.6,8.5,12.5,7.9c1.8-0.2,4.2-1.1,6.1-4.6c1.4-2.8,0.5-6.4-2.8-10.2
		c-5.6-6.6-16.2-12-25.2-9.1c-3.7,1.2-6.2,3.8-6.8,7.4c-1,6.2,3.8,13.6,13.2,20.5c10.7,7.7,18.6,8.5,23.8,7.3
		c-0.5,0.6-1,0.9-1.7,1.3h-0.1c-5,2.2-16-1-26.1-7.8c-14.2-9.6-21.7-24.4-16.4-32.4c1.1-1.6,2.6-2.8,4.5-3.6
		C243.4,91.3,246.7,90.9,250.5,91.2z M277.4,158.4c3.2,2.1,5.4,4.8,6.8,7.6c2,3.4,2.1,7.1,0.7,10.2c-3.7,8-19.6,9-34.7,2.1
		c-7.1-3.3-13.1-7.6-17.2-12.7c2.7-2.8,4.8-6,6.5-9.2c-0.9,2.7-0.9,8.1,7.2,14.8c5.4,4.5,14.5,8.3,22.1,7c1.2-0.3,2.4-0.6,3.5-1.1
		c2.4-1.1,4.5-3,5.9-5.3c2-3.3,2.1-6.8,0.7-10.3C278.7,160.3,278.1,159.3,277.4,158.4z M114.4,102.2c0.7,0.8,1.5,1.6,2.4,2.2
		c-0.1,0-0.3,0.1-0.3,0.3c-6.3,3.9-11.1,8.7-14.2,13.8c-1.2-2.8-3.9-6.3-10.1-7.6c-2.9-4.7-7.3-7.6-10.8-8.7
		c-1.4-0.4-2.8-0.6-4.4-0.5c4.9-1.5,10.2-3.5,15.7-6c4.3-2,8.6-4.1,12.9-6.5c1-0.6,2.1-1.2,3.2-1.9c0.6,1,1.3,2,2.1,2.9
		C110.7,95.3,112.3,99.7,114.4,102.2z M119.1,108.7c8.6-5.3,28.9-13.6,39.5-9.9c3.1,1.1,5.1,3.1,6.2,6.2c1.1,3.5,0.7,7-1.3,10.3
		c-3.8,6.4-13.3,12.2-23,13.8c-10.3,1.8-15-0.8-16-3.9c-0.9-3.1,1.2-7.8,7.1-10.8c9.3-4.7,11.5-3.2,11.7-3c0.7,0.7,0.4,3.3-0.2,4.7
		c-0.5,1.2,0.1,2.5,1.3,3c1.1,0.5,2.5-0.1,3-1.3c0.3-0.7,2.5-6.6-0.9-9.9c-3-2.7-8.3-2.1-16.9,2.2c-7.4,3.6-11.4,10.6-9.4,16.5
		c0.7,2.4,4.6,9.9,21.3,7.1c9.2-1.6,20.9-7.2,26.2-16c2.7-4.6,3.3-9.5,1.7-14.2c-1.5-4.5-4.6-7.6-9-9.1c-2.5-0.9-5.4-1.2-8.4-1.2
		c6.5-2.4,12.9-3,18.3-1.5c5,1.5,9,4.7,11,8.9c1.3,2.9,1.4,6.2,0.4,9.9c-4.5,1.9-8.3,4.5-10.7,8c-1.9,2.9-2.6,6.2-2.2,9.6
		c-8.6,7.2-20.3,13-31.5,15.3l-0.7-0.3c-4.4-1.1-10.4-1.3-17.3,1.2h-0.1c-7.3-1.1-12.4-4.2-14.5-8.8
		C100.9,127.6,107.2,116.1,119.1,108.7z M145.8,78.2c-1.2-0.1-12.7-0.1-16.4,5.6c-1,1.6-2,4.4-0.2,8.3c0.9,2.1,3,3.4,6,4.1
		c-5,1.7-9.8,3.7-13.6,5.7c0,0,0,0,0-0.1c-1.5-0.7-2.6-1.6-3.4-2.6c-1.6-2-3.4-6.7-1.8-11.7c2.2-7.1,9.9-12.5,22.1-15.8
		C152,68,159.6,70,162.2,73c1.9,2.1,1.3,4.5,0.7,6.2c-1.1,2.9-3.5,5.6-6.7,7.7c0,0.1-0.1,0.3-0.2,0.3c-4.1,0.9-8.3,2.5-12.6,4.8
		c-0.2,0-0.4-0.1-0.6-0.1c-5.3,0.7-8.8-0.4-9.3-1.7c-1.1-2.4-0.4-3.5-0.2-3.8c1.8-2.6,8.6-3.6,12.4-3.5c1.2,0.1,2.3-0.9,2.3-2.3
		C148.2,79.3,147.1,78.2,145.8,78.2z M179.1,91.1c3.3-3.5,5.6-7.1,7-10.6c3.1,8.2,5.8,18.7,1.1,27.9c-0.3,0.1-0.5,0.1-0.7,0.2
		c0.5-3.6,0.1-7-1.2-10C184,95.6,181.7,93,179.1,91.1z M204.6,110.9c6.2,0.3,12,1.5,17.2,3.4c11.5,4.6,19.1,13,18.9,22.5
		c-0.4,13.7-17.2,24.4-37.4,23.9c-14.4-0.4-27.2-7-29.9-15.4c-0.2-0.7-0.3-1.3-0.5-2.1l-0.1-3.6c0.2-3.4,1.3-7.4,3.9-10.7
		c1.8-2.3,4.2-4.1,7.1-5.4c4.4-2,10-2.8,16.8-2.3c10.7,0.7,18.4,4.2,20.9,9.3c1.4,2.9,1,6.1-0.9,9c-5.1,7.3-15.5,8.9-23.1,6.7
		c-4.1-1.2-6.9-3.3-7.1-5.5c-0.2-2.6,0.3-4.3,1.5-5.2c2.9-2.1,9.6,0,11.8,1c1.1,0.5,2.5,0,3.1-1.2c0.5-1.1,0-2.5-1.2-3.1
		c-1.1-0.4-10.7-4.5-16.3-0.5c-2.6,1.9-3.8,5-3.4,9.3c0.3,4.3,4.3,7.8,10.4,9.6c9,2.5,21.5,0.9,28.2-8.5c3-4.2,3.5-9.1,1.4-13.6
		c-3.3-6.8-12.3-11.2-24.8-12c-15.9-0.9-24,4.6-27.7,9.5c0,0.1-0.1,0.2-0.3,0.3c-0.1-2.1,0.5-3.9,1.6-5.5
		C178.7,114.7,191,110.6,204.6,110.9z M234.4,116.4c-2.5-2.1-5.4-3.7-8.5-5.1c1-2.1,2.4-4.7,4.1-7.4
		C230.3,107.8,231.9,112.1,234.4,116.4z M259.3,166.5c0.6-0.2,5.4-2.1,5.5-6c0.1-4.4-5.6-7.2-9.9-9c-5.8-2.4-11.8-1.1-14.4,2.9
		c1.5-3.2,2.5-6.5,3.4-9.8c2.2,0.1,4.5,0.6,6.7,1.2c7,2.1,21.2,9.2,24.2,17c0.8,2.1,0.7,4.3-0.5,6.2c-1.3,2.2-3.5,3.7-6.2,4.1
		c-5.3,0.9-12.9-1.5-18.4-5.9c-4.8-3.9-6.8-7.8-5.4-10.4c1.1-1.9,4.7-2.9,8.8-1.2c6.6,2.7,7,4.5,7,4.5c-0.1,0.4-1.2,1.2-2.5,1.8
		c-1.2,0.5-1.9,1.8-1.4,3C256.8,166.3,258.1,167,259.3,166.5z M234.3,156.2c-2.5,4.3-6.1,8.2-11.1,11.2c-2.3-1.4-4.8-2.4-7.6-3
		c3.8-0.7,7.5-2,10.8-3.4C229.4,159.6,232,158,234.3,156.2z M178.9,176.3c-1.5,0.8-2.7,1.7-3.8,2.4c-7,5.5-11,14.4-11.4,23.9
		c-3.3-1.1-6.7-1.7-10.4-1.6c7.3-9.7,10.3-21.4,7.9-32.1c3.4-0.7,6.2-1.6,8.5-2.6c1-0.5,2-1,3-1.6
		C174.4,169.1,176.5,172.9,178.9,176.3z M171.2,160.3c-3.3,1.8-6.3,3.2-11.3,4.1c-0.3-0.6-0.4-1.1-0.7-1.8
		c-3.3-7.2-8.8-13.1-15.3-16.7c3.3-0.9,6.5-2.2,9.8-3.7c5.8-2.6,11.1-5.9,15.8-9.5c-0.8,2.3-1.2,4.4-1.3,6.4v0.1c0,0.1,0,0.2,0,0.3
		c-0.1,1.5-0.1,2.8,0.1,4C168.6,149.3,169.5,155,171.2,160.3z M174.6,155.3c6.2,5.8,16.4,9.6,27.7,10.1c-3.3,1.2-6.4,3.2-9.4,5.8
		c-3.4,0.7-6.7,1.9-9.7,3.1C179.4,169.2,176.4,162.6,174.6,155.3z M112.2,147.3c-1.9,1.1-3.8,2.4-5.8,4c-6.6,1.6-12.8,4.1-17.2,6.6
		c4.5-6.2,8.7-13.1,11.3-19.9C102.7,142.3,106.8,145.4,112.2,147.3z M95.7,159.8c8.2-3.7,20-7.1,29.5-4.1
		c6.1,1.9,10.4,6.2,12.9,12.8c2.6,7.1,2.1,13.8-1.5,19.3c-4.2,6.4-11.9,10.7-20.4,11.3c-11.9,0.8-17.9-4.8-19.4-10.4
		c-1.6-5.5,0.8-11.3,5.9-13.9c5.6-3,9.8-3.7,11.8-2.1c2.5,1.9,2.1,7.2,1.7,9c-0.3,1.2,0.7,2.5,1.9,2.7c1.2,0.3,2.5-0.7,2.7-1.9
		c0.2-1,1.8-9.7-3.4-13.6c-3.7-2.7-9.1-2.1-16.8,1.9c-6.9,3.6-10.4,11.6-8.1,19.3c2.1,7.4,9.5,14.8,24.2,13.9
		c9.8-0.7,19.1-5.8,24-13.3c3.1-4.8,5.9-12.7,2-23.5c-3.1-8-8.3-13.3-15.9-15.7c-3.1-0.9-6.2-1.4-9.5-1.3c6.2-3,12.2-3.8,18-2.4
		c8.4,2,16,8.6,20,17.3c7.8,17.3-3.4,39.3-24.9,49c-21.6,9.6-45.6,3.5-53.4-13.7c-5.5-12.1-0.7-27.7,11.2-36
		C89.8,163,92.4,161.3,95.7,159.8z M69.8,188.8c-2.9-3.4-5.8-6.4-8.3-8.9c0.9-0.3,1.8-0.7,2.6-1c3.4-1.6,6.8-3.5,10.1-6
		C71.5,177.9,70,183.3,69.8,188.8z M70.4,196.8c0.2,0.2,0.4,0.4,0.6,0.5c0.5,1.7,0.9,3.3,1.7,4.8c2.1,4.6,5.1,8.4,8.9,11.6
		c0,3.3-1.2,7.7-4.2,10.9c-5.3,1.3-10.5,3.9-14.7,7.9c-1,0.9-1.9,1.9-2.8,2.9c-12.6,5.9-22.2,6.4-31.1,1.4c2.3-0.3,4.7-0.9,7.2-2.1
		c1.4-0.7,2.8-1.4,4.2-2.3c6.8-4.4,13-11.7,17.3-20.4c3.4-7,6.3-16,6.2-23.4C65.8,191,68.2,193.8,70.4,196.8z M85.8,216.8
		c8.8,5.4,20.2,7.4,32,5.5c-3.5,6.2-5.3,12.9-5.2,19.5c-0.7-0.3-1.3-0.7-2-1.1c-3.3-5.9-8-10.4-11.5-12.9
		c-4.6-3.1-10.1-4.4-15.7-4.1C84.7,221.3,85.4,219.1,85.8,216.8z M123,258.1c0-0.2,0-0.4-0.1-0.6c-0.6-4.4-2.4-8.2-5.4-11.6
		c-1.5-8.5,1-17.5,6.8-25.2c2.6-0.7,5.2-1.7,7.7-2.8c6.7-3.1,12.4-7.2,17.1-11.9c5.4-0.7,10.6-0.2,14.9,1.7
		c0.4,3.9,1.4,7.8,3.1,11.6c2.5,5.5,6.2,10.2,10.4,13.8c-0.8,7.3-5.5,13.1-13.9,17.6c-8.3,4.5-15.9,5.1-21.4,2.1
		c-4-2.2-6.5-6.4-6.7-11.3c-0.5-10.2,6.3-16.2,12.4-18.2c4.8-1.7,9.1-1,11.1,1.7c1.5,2.1,3.2,5.1,2.1,7.3c-1.5,3.1-7.5,4.2-9.5,4.3
		c-1.3,0.1-2.2,1.2-2.1,2.5c0.1,1.3,1.2,2.2,2.5,2.1c1.1-0.1,10.5-0.9,13.4-7c1.6-3.4,0.7-7.4-2.5-11.9c-3.2-4.4-9.6-5.8-16.4-3.5
		c-8.2,2.8-16.1,11-15.5,22.9c0.4,6.4,3.7,12.1,9.1,15.1c6.3,3.5,14.4,3.3,23.1-0.7c0.9-0.5,1.9-0.8,2.8-1.4
		c10.5-5.7,14.5-12.8,15.9-18.6c1,0.7,2,1.2,3.1,1.8c0.5,9.7-8.7,19.6-17.8,25.2c-3.8,2.3-7.9,3.9-11.9,4.8
		C142.7,270.6,130.3,267.1,123,258.1C123,258.2,123,258.2,123,258.1z M171.3,217.4c-5.7-12.5-2.7-27.4,6.8-34.9
		c1.4-1,3.6-2.4,6.3-3.7c6-2.7,14.4-4.8,22-2.8c6.7,1.9,11.7,6.8,14.6,14.7c3.2,8.2,2.9,15.6-0.9,21c-3.3,4.8-8.9,7.6-15,7.5
		c-10.8-0.1-16.2-6.7-17.7-13c-1.3-5.3,0.3-10.3,4-12.2c2.9-1.5,6.9-3.1,9.1-1.6c2.8,1.8,2.9,7.7,2.6,9.7c-0.1,1.3,0.7,2.4,2.1,2.5
		c1.3,0.1,2.4-0.7,2.5-2.1c0.1-1.1,0.8-10.4-4.7-14c-3.4-2.2-8.1-1.8-14,1.3c-5.6,3.1-8.1,10.1-6.3,17.5c1.9,7.5,8.8,16.3,22.2,16.4
		c7.7,0.1,14.7-3.4,18.9-9.5c4.7-6.7,5.1-15.8,1.4-25.4c-3.6-9.4-9.6-15.3-17.8-17.5c-1.9-0.6-3.8-0.8-5.8-0.9
		c4-2.1,8.2-2.7,12.4-1.8c8.2,1.7,16.6,9.2,21.2,19.4c8.1,17.7,0.4,38.7-17.4,46.7C200.2,243,179.3,235,171.3,217.4z M239.7,186.4
		c-2.5-5.5-6.7-11.6-12.3-16c0.7-0.6,1.6-1.1,2.2-1.6c4.4,5.5,11,10.4,18.6,13.9c11.5,5.2,22.8,6.3,30.9,3.7
		c-8.5,10.9-23.6,21.3-36,19.3C243.7,199.1,242.5,192.6,239.7,186.4z M266.8,147.1c-0.4,0.2-0.7,0.4-0.9,0.7
		c-5.1-3.1-10.4-5.3-13.8-6.3c-2.3-0.7-4.8-1.1-7.1-1.3c0.2-1,0.4-2.1,0.4-3.2c0.1-3.6-0.7-7-2.2-10.3c2.1,2,4.6,4,7.2,5.8
		c7.2,4.8,17,9.5,24.8,9.4C272.8,143.9,269.9,146,266.8,147.1z M185.6,66.4c-0.3-0.8-0.3-2.9,1.5-4.8c0.7-0.7,1.5-1.4,2.9-2.1
		c3.6-1.7,10.4-2.5,22.7,0.6c14.4,3.6,18.6,8.1,18.7,10c0.1,0.7-0.5,1.3-1.6,2c-5.5,3-15.9,1.7-22.8-1.1c-3.8-1.6-5.3-3-5.5-3.4
		c0-0.8,0.4-1.1,0.5-1.1c2.1-1.2,8.4,0.9,12.1,2.7c1.2,0.6,2.6,0.1,3.1-1.1c0.6-1.2,0.1-2.5-1.1-3.1c-1.9-0.9-11.5-5.4-16.4-2.6
		c-1.2,0.7-2.6,2.1-2.8,4.8c-0.1,2.1,1.2,4,4.1,5.9c6.9,4.4,22.5,7.7,31.1,3c2.9-1.6,4.3-4,4-6.6c-0.7-5.5-8.6-10.4-22.3-13.9
		c-13.7-3.5-21.6-2.3-26.3,0c2.7-3.4,15.8-3.5,29.9-0.3c9.2,2.1,17.7,5.6,23.6,9.8c5.1,3.7,7.8,7.6,7.2,10.4
		c-0.7,2.9-4.8,5.2-11,6.2c-7.2,1.2-16.1,0.7-25.5-1.4C197.3,77.2,186.9,70.6,185.6,66.4z M189.5,76.6c5.9,3.7,13.9,6.6,21.2,8.3
		c9.9,2.2,19.6,2.8,27.3,1.5c1.4-0.3,2.7-0.6,3.9-0.8c-0.9,1.1-1.7,2-2.1,2.3c-1.9,0.7-3.6,2-5.1,3.3c-6.2,4.8-10.7,13.6-13.1,18.4
		c-5.1-1.9-10.9-2.9-17.1-3.1c-3.7-0.1-7.8,0.2-11.9,0.8C196.4,96.5,192.7,84.9,189.5,76.6z M139.5,62.3c19.9-6.2,39.3-2.1,42.6,8.6
		c1.6,5.3-0.9,11.7-7,17.7c-1.2-0.6-2.4-1-3.8-1.4c-2.3-0.7-4.8-0.9-7.4-0.9c1.5-1.7,2.6-3.5,3.4-5.4c1.7-4,1.1-8.1-1.5-11
		c-4.8-5.3-15.2-6.3-28.5-2.7c-15.9,4.4-22.3,11.5-24.7,17.3c-0.4-1.1-0.6-2.3-0.3-3.5C113.7,74.6,125.1,66.8,139.5,62.3z
		 M63.5,85.2c6.8-6.8,17-14.1,28.5-20.5c18.1-10.1,34.2-14.5,38.6-12.8c0.3,0.1,1,0.5,1.4,1.7c0.6,1.8-0.6,4.5-2.8,7.4
		c-0.1,0.2-0.1,0.4-0.3,0.6c-8.5,3.7-16,9-19.5,14.5c-1.4,0.8-2.9,1.6-4.5,2.4c-20.2,10.7-27.1,10-27.8,9.2c0-0.1-0.1-0.8,0.7-2
		c6.3-10.9,30.6-22.3,34.9-21.4c0.1,1.6-7,6.2-15.9,9.3c-1.2,0.5-1.9,1.8-1.4,3s1.8,1.9,3,1.4c4.1-1.4,17.3-6.7,18.7-12.6
		c0.4-1.6,0-3.3-1.2-4.6c-1-1.1-2.6-1.5-4.8-1.3c-8.4,0.9-30.8,12.4-37.2,23.6c-2.3,4.1-1,6.5,0,7.5c3.8,4,14.5,0.5,24-3.8
		c3.5-1.6,6.7-3.3,9.4-4.7l0.4-0.2c0,0.2,0,0.4,0,0.7c-1.4,0.8-2.7,1.5-4,2.3c-11.5,6.4-23.1,11.2-32.4,13.5
		c-9.8,2.5-14.4,1.4-15.3-0.3C54.9,96.6,56.4,92.3,63.5,85.2z M67.5,104.2c-2.1,0.8-4.4,2.1-6.5,3.4c-0.7-0.9-1.4-2.1-2.1-3.2
		C61.3,104.8,64.1,104.7,67.5,104.2z M80.4,106.7c2.8,0.7,7.7,4,9.7,10.2c2.6,7.9-0.8,17.9-9.7,28.9c-8.5,10.3-16.9,15.7-22.8,14.4
		c-3.2-0.7-4.5-3.4-5-5.5c-2.6-10.4,5.6-22.1,12.3-27c3.2-2.3,6.2-3.4,7.6-2.5c2.8,1.6,2.8,3.3,2.8,3.7c0.2,3.7-5.6,9-9.1,11.4
		c-1.1,0.7-1.4,2.1-0.6,3.3c0.7,1.1,2.1,1.4,3.3,0.6c1.1-0.8,11.4-7.9,11.1-15.4c0-2.1-1-5.1-5-7.6c-3.3-2-7.6-0.9-12.7,2.8
		c-9,6.6-17,20.1-14.1,31.9c1.1,4.8,4.3,8,8.6,9c3.2,0.7,6.6,0.2,10.4-1.5c5.4-2.4,11.3-7.4,17.1-14.4C96,134.2,96.8,123.5,95,116.7
		c1.5,0.8,2.7,2.1,3.3,3.6c3.3,7.8-3.9,23.5-12.6,34.9c-8,10.5-18.1,18.3-27.8,21.2c-1.5-0.8-3.5-1.4-5.9-1.5c-3.1-3.2-7-4.8-10-5
		c-1.7-0.2-3.4,0.1-4.9,0.6c-5.5-10.2-1.2-28.3,10.7-44.1C57.7,113.2,72.1,104.6,80.4,106.7z M48.9,108.5c1.9,1.1,3.7,2.5,5.4,4.1
		c-1.9,1.6-3.6,3.3-5.3,5C49.8,113.6,49.6,110.7,48.9,108.5z M13.5,163.8c-2.1-1.1-2.6-5.6-1.7-11.6c1.2-7,4.5-15.5,9.1-23.8
		c7.4-13,16-21.3,19.9-21.6c0.1,0,0.3,0,0.6,0.1c0,0,0,0,0.1,0c0.7,0.1,1.5,0.7,2.1,1.7c1.2,2.1,3.2,8.5-6.6,25
		C29.1,147,24,149.4,22.7,149.2c-0.3-0.1-0.6-0.7-0.7-1.5c-1.1-9.2,9.5-25.1,12.9-25.9c0.2,0.1,0.2,0.2,0.2,0.2
		c0.6,1.8-2.9,7.3-6.1,11c-0.8,1-0.7,2.5,0.3,3.3c1,0.8,2.4,0.7,3.3-0.3c2.1-2.3,8.5-10.3,7.1-15.3c-0.5-1.7-1.8-2.9-3.5-3.4
		c-1.6-0.6-3.5,0-5.4,1.8c-6.1,4.9-14.4,19.9-13.1,29.3c0.6,4.2,3.3,5.3,4.4,5.5c2.6,0.6,5.8-1.1,9.1-4.4c-0.3,1-0.5,2.1-0.7,3.1
		C22.9,161.8,16.2,165.3,13.5,163.8z M21.4,166.8c2.6-1.4,5.5-3.6,8.5-6.6c0,2.5,0.4,5,0.9,7.4C27.4,168.1,24.3,167.6,21.4,166.8z
		 M14.6,217.4c-0.6-7.2,1.3-15.7,5.2-23.7c4.2-8.6,10.8-15.6,16.5-18.2c1.9-0.8,3.5-1.2,5.1-1.1c2.3,0.2,6.5,2.1,9,6.4
		c3.1,5.6,2,13.4-3,22.8c-7,13.1-13.1,14-14.8,13.9c-2.4,0-3.9-1.8-4.6-3.3c-3.2-6.6,0-16.3,4.9-21.7c2.2-2.5,4.2-3.4,5.1-3.1
		c2.2,0.8,2.5,1.9,2.5,2.1c0.7,2.7-3.2,7.6-5.1,9.5c-0.9,0.9-0.8,2.3,0,3.3c0.9,0.9,2.3,0.8,3.3,0c0.7-0.7,7.7-7.8,6.3-13.7
		c-0.4-1.8-1.7-4.2-5.5-5.6c-3.1-1.1-6.7,0.5-10.2,4.3c-5.9,6.5-9.8,18.2-5.7,26.9c1.8,3.7,4.9,5.9,8.6,5.9
		c6.4,0.2,13.3-5.9,19-16.4c6.4-12,5.9-20.1,3.9-25.3c0.6,0.6,1.2,1.2,1.9,1.9c3,4.8,1.2,16.5-4.3,27.8c-3.9,8-9.4,14.6-15.6,18.6
		c-5.8,3.7-11.2,4.7-15.5,2.5C17.8,229.1,15.2,224.2,14.6,217.4z M119.1,304.2c-7.3,1.8-14.3,2.4-23.5-3.5
		c-3.8-2.5-9.7-2.6-16.4-2.6c-13.6-0.2-27.6-0.4-29.1-18.3c-0.7-8-5.6-11.4-10.4-14.7c-6.2-4.3-12.6-8.9-13.1-24.1
		c8.5,4.8,17.5,5.1,28.3,1.3c-2.3,4.7-3.7,9.7-3.9,15c-0.3,9.5,3.1,18.6,9.5,25.5c6.6,6.9,15.4,10.9,25,11.3
		c5.6,0.2,11-0.8,15.9-3.2c3.5-1.6,6.8-3.8,9.7-6.4c0.6-0.5,0.9-0.9,1.4-1.4C113.1,290,115.9,297.6,119.1,304.2z M108.1,281.2
		c-6.1,5.6-14,8.6-22.2,8.3c-8.3-0.3-15.9-3.8-21.6-9.8c-5.6-6.1-8.6-14-8.3-22.2c0.2-8.3,3.8-15.9,9.8-21.6
		c2.3-2.1,4.9-3.8,7.6-5.1c7.8-3.5,16.8-3.4,23.3,1c4.1,2.7,12.8,11.7,13.3,21.8c0.3,6.1-2.4,11.6-8.1,16.4
		c-5.9,4.9-12.2,6.7-17.7,5.1c-4.8-1.4-8.8-5.2-10.4-10.4c-2.9-9,1-15.3,5.7-18.4c4.1-2.5,8.5-2.6,11.1-0.1c2.1,2,4.4,4.8,3.8,7
		c-0.7,2.7-5.6,4.5-7.2,4.8c-1.2,0.3-2.1,1.6-1.7,2.8c0.3,1.3,1.6,2.1,2.8,1.7c0.9-0.2,9-2.2,10.6-8.1c0.9-3.6-0.7-7.6-5.1-11.6
		c-4.2-3.9-10.9-4-16.8-0.4c-5.9,3.8-11.4,12.2-7.6,23.6c2.1,6.6,7.2,11.6,13.5,13.4c7.1,2.1,14.9-0.1,21.9-6.1
		c6.9-5.8,10.2-12.6,9.8-20.2c0-1.4-0.3-2.9-0.6-4.2c2.4,2.6,3.9,5.6,4.3,9.1C119.2,265.5,115.1,274.6,108.1,281.2z M130.9,314.9
		c-3.4-4.1-9.5-14.5-12.4-24.9c-1.7-6.2-1.8-11-0.4-14c2.1-3.5,3.8-7.4,4.6-11.5c6.4,5.9,15.1,9,24.2,8.9
		C133.8,285.1,129.9,302.1,130.9,314.9z M182.5,290.8c-6,9.4-15.1,14.5-22.8,16.6c-0.7-0.2-1.4,0-2.1,0.5c-0.7,0.1-1.3,0.3-1.9,0.4
		c-5.9,0.7-9.5-0.5-11-1.8c-2.7-2.5-5.5-4-8.5-4.7c2.1-10.8,7.9-22.3,19.9-29.5c2.9-0.7,5.7-1.5,8.5-2.8c1.5-0.7,3.1-1.5,4.7-2.4
		c3.8-2.2,7.9-5.4,11.3-9.1c3.9,7.1,13.2,12.3,23.2,15.8C196.3,278.1,186.5,284.6,182.5,290.8z M212.2,271.5
		c-15.6-4.2-26-10.7-28.4-17.6c3-4.2,5.2-8.9,5.5-13.9c8.1,3.1,17.3,3.5,26.1,0.7c12.9,1.9,15,8.7,17.6,17.3
		c1.7,5.5,3.4,11.2,8.1,15.8c0.2,0.1,0.3,0.3,0.4,0.4C238.6,275.5,226.7,275.5,212.2,271.5z M264.5,239.6
		c-2.1,10.6-3.5,17.6-14.5,19.5c-4,0.7-7.8,1.4-11.3,2.1c-0.6-1.4-0.9-2.8-1.4-4.4c-2.1-7.3-4.7-15.3-14.9-18.9
		c3-1.7,5.7-3.6,8.1-5.8c7.1,8.7,21.2,7.9,34.9,3.5C265.2,236.8,264.9,238.2,264.5,239.6z M243.1,233.7c-4.2-0.7-7.2-2.3-9.3-5.2
		c4.5-5.3,7.5-11.7,8.8-18.4l1.6,0.2c7.6,2.1,13.9,6.5,19.3,10.3c3.7,2.6,7.3,5.1,10.5,6.3C266.1,230.6,253,235.3,243.1,233.7z
		 M296.9,144.4c-4.8,10.9-3.4,14.7-0.3,19.6c2.3,3.7,5,8,2.9,21.5c-1.7,10.7-5.9,13.2-11.7,16.8c-4.6,2.8-9.8,6-14.7,13.4
		c-0.9,1.3-1.7,2.8-2.4,4.3c-1.4-0.9-2.9-2-4.5-3.1c-3.5-2.4-7.4-5.2-12-7.6c2.1-0.6,4.1-1.3,6.2-2.2c13.1-6,25.2-18.7,28.8-29.3
		c1.9-4.2,1.7-9.3-0.6-14.1c-3-6.1-8.9-10.7-17.1-13.7c7.3-3.9,11.9-10.8,12.7-12c1.1-1.3,2-3.2,2.3-5.7c3.5-2.5,5.6-6,6.2-8.9
		c0.5-2.1,0.2-4.7-0.6-7.3C298.8,122.7,302.9,130.7,296.9,144.4z"/>
</g>
</svg>
