<?xml version="1.0" encoding="utf-8"?>
<!-- Generator: Adobe Illustrator 17.1.0, SVG Export Plug-In . SVG Version: 6.00 Build 0)  -->
<!DOCTYPE svg PUBLIC "-//W3C//DTD SVG 1.1//EN" "http://www.w3.org/Graphics/SVG/1.1/DTD/svg11.dtd">
<svg version="1.1" id="Слой_1" xmlns="http://www.w3.org/2000/svg" xmlns:xlink="http://www.w3.org/1999/xlink" x="0px" y="0px"
	 viewBox="0 0 425.2 425.2" enable-background="new 0 0 425.2 425.2" xml:space="preserve">
<g>
	<path fill="#C9B182" d="M351.1,326.4c-0.4-13.2-4-26-8.7-38.6s-10.8-24.8-17.7-36.9c-5.9-10.3-12.2-20.4-19.2-30.4
		c0.7-1,1.1-2,1.1-3.1c0-9.4-28.9-15.3-63.7-17.4c-0.8,1.8-1.7,3.5-2.8,5.1c36.7,2,58.9,8,58.9,12.3c0,5.3-33.5,13-85.9,13
		c-52.5,0-86-7.7-86-13c0-4.3,21.7-10.1,57.6-12.2c-1.1-1.6-2-3.3-2.8-5.1c-34.2,2.2-62.4,8-62.4,17.3c0,1.2,0.5,2.3,1.4,3.4
		c-9.2,12.9-17.4,26.2-24.7,39.8c-7.9,14.7-14.5,29.9-18.6,45.4c-2,7.8-3.4,15.7-3.5,23.7c0,8,1.2,16.2,5.9,23.8
		c2.4,3.8,5.7,7.4,10.1,10.4c4.3,2.8,8.7,5.5,13.4,7.8c9,4.5,18.9,8.6,30.4,10.6c-5.4,5.1-10.6,10.3-15.9,15.5l-1.3,1.3l2.4,0.6
		c15.2,3.6,30.8,6.1,46.5,8c15.8,1.9,31.7,2.9,47.8,3.2c16,0.2,32.1-0.4,48-2.2c15.9-1.7,31.5-4.7,46.2-9l2.2-0.6l-1.2-1.2
		c-5.3-5.2-10.5-10.4-15.9-15.5c8.2-1.4,15.3-4.2,21.8-7.4c3.4-1.7,6.7-3.6,9.8-5.5c3.1-1.9,5.9-3.9,8.7-6.1
		c7.7-4.6,12.6-10.9,15.1-17.3C350.6,339.6,351.3,333,351.1,326.4z M136,396.6c-0.2,1-0.4,2.1-0.4,3.2c-4.5-0.6-9-1.3-13.4-2
		c4-5.1,8.1-10.1,12-15.2c0.3,0.1,0.6,0.1,1,0.2l0.3,0.1h0.4h9.1c-1.2,1-2.3,2-3.2,3c-1.5,1.7-2.7,3.4-3.7,5.2
		C137.2,392.8,136.5,394.7,136,396.6z M159.2,392.2c-0.7,2.3-1.1,4.7-1.2,7.1c0,1.1,0,2.2,0.1,3.3c-6.3-0.6-12.5-1.4-18.8-2.2
		c0.9-0.7,1.6-1.5,2.3-2.3c1.5-1.7,2.7-3.4,3.7-5.2c1-1.8,1.7-3.7,2.1-5.6c0.3-1.4,0.5-2.9,0.4-4.4h15.6c-0.5,0.8-1,1.6-1.5,2.4
		C160.8,387.5,159.9,389.8,159.2,392.2z M180.5,393.8c-0.5,2.4-0.8,4.8-0.8,7.2c0,1.1,0.1,2.3,0.3,3.4c-4.5-0.3-9-0.7-13.6-1.1
		c-1.5-0.1-2.9-0.3-4.4-0.4c0.7-1,1.3-1.9,1.8-2.9c1.2-2.2,2.1-4.5,2.8-6.9c0.7-2.3,1.1-4.7,1.2-7.1c0-1.1,0-2.1-0.1-3.2h17.2
		c-0.8,1.3-1.5,2.5-2.1,3.8C181.8,389,181,391.4,180.5,393.8z M202.5,401.1c0.3,1.5,0.7,3,1.3,4.6c-6.7-0.2-13.3-0.5-19.9-1
		c0.6-1,1.2-2,1.7-3.1c1.1-2.3,1.9-4.7,2.4-7c0.5-2.4,0.8-4.8,0.7-7.2c0-1.4-0.2-2.9-0.5-4.4h15.9c-0.4,1.1-0.8,2.1-1.1,3.2
		c-0.6,2.5-1,4.9-1.1,7.4C201.9,396.1,202.1,398.6,202.5,401.1z M226,401.7c0.4,1.4,0.8,2.8,1.5,4.2c-4.7,0.1-9.4,0.1-14.1,0
		c-2.2,0-4.3-0.1-6.5-0.2c0.7-1.5,1.2-3,1.6-4.5c0.6-2.5,1-4.9,1.1-7.4s-0.1-5-0.6-7.5c-0.2-1.1-0.5-2.2-0.9-3.3h5h14.7
		c-0.8,1.6-1.4,3.3-1.8,4.9c-0.6,2.3-0.8,4.6-0.8,6.9S225.5,399.4,226,401.7z M230.5,405.8c0.6-1.4,1.1-2.8,1.5-4.2
		c0.6-2.3,0.8-4.6,0.8-6.9s-0.3-4.6-0.8-6.9c-0.4-1.6-1-3.3-1.8-4.9h15.6c-0.3,1.5-0.4,3-0.4,4.5c0,2.4,0.3,4.7,0.9,7.1
		c0.6,2.3,1.4,4.6,2.5,6.9c0.6,1.2,1.3,2.4,2.2,3.6C244.2,405.5,237.4,405.7,230.5,405.8z M260.3,404.4c-2,0.2-4,0.3-5.9,0.4
		c0.2-1.4,0.3-2.7,0.3-4.1c0-2.4-0.3-4.7-0.9-7.1c-0.6-2.3-1.4-4.6-2.5-6.9c-0.7-1.3-1.4-2.6-2.3-3.8h14.7c-0.2,1.6-0.2,3.1-0.1,4.7
		c0.2,2.3,0.8,4.5,1.5,6.7c0.8,2.2,1.8,4.3,3.1,6.4c0.6,0.9,1.2,1.8,2,2.7C266.9,403.8,263.6,404.1,260.3,404.4z M274.1,402.9
		c0-1.1,0-2.2-0.1-3.2c-0.2-2.3-0.8-4.5-1.6-6.7c-0.8-2.2-1.8-4.3-3.1-6.4c-0.8-1.3-1.7-2.5-2.8-3.7h12.6c-0.2,1.6,0,3,0.2,4.5
		c0.4,2,1,4,1.9,5.9s2,3.7,3.5,5.5c0.7,0.8,1.4,1.6,2.2,2.4C282.7,401.8,278.4,402.4,274.1,402.9z M304.1,397.9
		c-4.4,1-8.9,1.8-13.4,2.6c0-1-0.1-2.1-0.3-3.1c-0.4-2-1-4-1.9-5.9s-2-3.7-3.5-5.5c-0.9-1.1-2-2.2-3.2-3.2h8.5h0.4l0.3-0.1
		c0.3-0.1,0.6-0.1,1-0.2C295.9,387.7,300,392.8,304.1,397.9z M328.3,360.2l-0.2,0.1l-0.2,0.2c-2.5,2-5.4,3.9-8.4,5.7
		c-3,1.8-6.1,3.5-9.3,5.1c-6.3,3.1-13.3,5.6-20.5,6.7l-76.7-0.2l-76.7,0.2c-10.3-1.6-20.1-5.4-28.9-9.8c-4.5-2.3-8.8-4.7-12.8-7.3
		c-3.7-2.5-6.7-5.6-8.8-9c-0.4-0.6-0.7-1.2-1-1.7c4.5,1.3,11.3,2.7,19,2.7c6.4,0,13.4-1,20.4-3.9c12.2-5.1,25.2-1.9,36.7,0.8
		c7.4,1.8,13.8,3.3,18.8,2.2c1.3-0.3,2.7-0.6,4.1-0.9c0.2,0,0.3-0.1,0.5-0.1c10.7-2.1,24.4-4.2,34.9-4.8c0.7,0.1,1.3,0.1,2,0.1
		c0.4,0,0.8,0,1.2-0.1c2.7,0.2,5.6,0.6,8.8,1.2c9.7,1.6,21.7,3.7,39.4-1.3c16.4-4.6,24.2-2.4,32.5-0.1c4.1,1.1,8.4,2.3,13.7,2.6
		c9.9,0.6,18.7-0.5,23.9-1.4C338.1,352.3,334.1,356.9,328.3,360.2z M345.3,329.4c-0.3,4.6-1.1,9.1-2.6,13.5
		c-2.8,1.9-7.2,2.2-12.9,2.6l-1.5,0.1c-0.1,0-0.2,0-0.3,0c-1.8,0.4-3.7,0.5-5.7,0.5c-0.2,0-0.3,0-0.5,0s-0.5,0.1-0.7,0.1
		c0,0,0,0.1,0.1,0.1c-0.3,0-0.5,0-0.8,0c-0.7,0-1.3,0.1-2,0.1c-3,0-5.9-0.4-8.5-1.2c-1.2-0.3-2.4-0.7-3.5-1.1
		c-1.2-0.2-2.3-0.4-3.4-0.7c-1.7-0.3-3.3-0.8-4.8-1.4c0.1,0.1,0.1,0.1,0.2,0.2c-1.3-0.3-2.7-0.5-4.2-0.7h-0.1c-2,0-4-0.2-5.9-0.6
		c-2.8,0.3-5.6,0.5-8.6,0.5c0.4,0,0.7,0.1,1.1,0.1c-3.4,0.4-7.1,1.2-11.4,2.4c-6.1,1.7-11.5,2.5-16.4,2.8c0.1,0,0.2-0.1,0.3-0.1
		c-1.6,0.1-3.3,0.2-4.9,0.2c-1.9,0-3.7-0.1-5.5-0.2l0,0c-0.2,0-0.5-0.1-0.7-0.1c-0.7-0.1-1.4-0.1-2.1-0.2h-0.1
		c-0.6-0.1-1.3-0.2-1.9-0.3c-2-0.3-3.9-0.6-5.7-0.9c-0.5-0.1-1-0.2-1.5-0.2c0.1,0,0.1-0.1,0.2-0.1c-0.6-0.1-1.2-0.3-1.8-0.5
		c-0.5,0-0.9-0.1-1.4-0.2c-0.5,0-0.9-0.1-1.4-0.2c-0.5,0-1,0.1-1.5,0.1c-0.7,0-1.4-0.1-2.1-0.1c0,0,0,0-0.1,0
		c-1.1-0.1-2.1-0.1-3.2,0h-0.1c-0.8,0.1-1.6,0.2-2.4,0.2c-0.7,0-1.4-0.1-2-0.1c-1.4,0.4-2.9,0.7-4.5,0.7c-4.6,0.5-9.3,1.1-14,1.9
		c-1.6,0.5-3.2,1-4.9,1.3c-3.8,1.7-8.3,2.6-13.1,2.6c-3.1,0-6.1-0.4-8.9-1.2c-1.8-0.3-3.6-0.7-5.2-1.2c-0.6-0.2-1.3-0.3-2-0.5
		c-1.6-0.4-3.3-0.8-5-1.2c-2.4-0.2-4.6-0.7-6.8-1.4h-0.1c-4.2-0.7-8.6-1.2-13.1-1.1c-0.1,0-0.2-0.1-0.3-0.1
		c-2.1,0.4-4.2,0.6-6.5,0.6c0,0,0.1,0,0.1,0.1c-2.8,0.5-5.7,1.2-8.5,2.4c-1.3,0.6-2.7,1-4,1.4c0.1-0.1,0.2-0.1,0.3-0.2
		c-0.7,0.2-1.3,0.3-2.1,0.5c-1.9,0.9-4.1,1.4-6.5,1.4c-0.2,0-0.5,0-0.7,0c-1.4,0.4-2.8,0.6-4.3,0.6c-0.9,0-1.8-0.1-2.6-0.2
		c-4.2-0.1-8-0.7-11.2-1.3c-0.2,0-0.4-0.1-0.6-0.1c-3.1-0.7-5.7-1.4-7.3-2c-0.3-0.7-0.6-1.4-0.8-2.1c0.1-0.1,0.2-0.3,0.3-0.4
		c-0.8-1.1-1.3-2.3-1.3-3.6l0,0c-0.1,0.1-0.1,0.1-0.2,0.2c-0.9-3.6-1.3-7.3-1.4-11c-0.2-7.7,0.9-15.4,2.6-23.1
		c3.5-15.3,9.7-30.4,16.6-45.3c6.4-13.6,13.9-27,22.1-40.2c8.5,9.6,50.5,14.6,92,14.6c41.9,0,84.2-5.1,92.2-14.9
		c6.2,10.1,11.9,20.3,17.1,30.6c6.1,12.2,11.5,24.5,15.8,37c4.1,12.2,7.2,24.7,7.2,37.1c0.1,0.5,0.1,1,0.1,1.5
		C345.5,327.9,345.4,328.6,345.3,329.4z"/>
	<ellipse fill="#C9B182" cx="154.1" cy="360.7" rx="6" ry="3.4"/>
	<ellipse fill="#C9B182" cx="177.3" cy="360.7" rx="5.1" ry="3.7"/>
	<ellipse fill="#C9B182" cx="164.9" cy="371.5" rx="4.8" ry="2"/>
	<path fill="#C9B182" d="M255,362.2c-3,0-5.4,1.7-5.4,3.7s2.4,3.7,5.4,3.7s5.4-1.7,5.4-3.7C260.5,363.8,258,362.2,255,362.2z"/>
	<ellipse fill="#C9B182" cx="270.6" cy="354.4" rx="4.4" ry="2.6"/>
	<ellipse fill="#C9B182" cx="307" cy="362" rx="4.2" ry="2.4"/>
	<ellipse fill="#C9B182" cx="110.3" cy="359.5" rx="3.5" ry="2.5"/>
</g>
<g display="none">
	<path display="inline" d="M354.7,106.2c-5-7.9-11.6-14.2-18.5-17.9c-1.2-0.6-2.5-1.2-3.7-1.6c2.7-1.4,5.9-3.3,8.4-5.4
		c0.2-0.1,0.3-0.3,0.5-0.4l0,0l0,0c0.2-0.2,0.5-0.5,0.7-0.7c3-3.9,2.3-10-2-17.1c-4-6.6-10.6-13.5-18.7-19.5
		c-2.3-1.7-23.2-16.8-32.2-12.3c-1.5,0.7-3.2,2.3-3.5,5.5c-1,0.5-1.9,1.2-2.6,1.9c-1.7-3.9-4.8-7.6-9.3-10.9
		c-7-5.1-16.6-8.8-27.1-10.3c0-1.2-0.4-2.5-1.8-3.9c0.4-0.8,0.7-1.6,0.8-2.3c0.3-2.1-0.3-4.3-1.8-5.8c-5.9-5.7-27-6.8-44.2-5.5
		c-13.7,1.1-26.4,3.6-35.9,7c-10.3,3.7-15.5,8.1-15.3,12.8l0,0c0,0.7-0.1,4.7,0.4,8.5c-2.3-4.7-5.9-9.1-10.2-10.4
		c-0.5-0.3-0.9-0.5-1.3-0.7c-6.8-2.4-21.1,4.5-31.4,11.9c-8.2,5.8-15.1,12.5-19.4,18.6c-4.8,6.9-5.9,12.4-3.2,16
		c0.1,0.2,0.3,0.3,0.4,0.4c0.1,0.1,0.1,0.2,0.2,0.2c0.5,0.5,1,1,1.5,1.6c3.2,3.4,8,8.3,15.7,10c0,0.2,0,0.4,0.1,0.6
		c-7.2,0.5-16,4.2-23.8,10.4c-7.6,6.1-13.2,13.5-16,21c-2.2,5.9-2.3,11.4-0.5,15.7c5.8,15.7,15.3,23,32,24.3
		c-11.7,8.8-17,24.3-12,38.7c5,14.5,19,23.7,33.9,23.7c3.8,0,7.6-0.6,11.4-1.8c0.7-0.2,1.5-0.5,2.2-0.8c-4.4,11-3.2,28.5-1.3,36
		c0.8,3.1,1.9,6.3,4.6,6.5h0.1c2.5,0,3.4-2.8,3.7-3.8c4.4-12.7,16.7-28.4,37-30.6c2.9,0.6,5.9,0.9,8.9,0.9c1.7,0,3.4-0.1,5.2-0.3
		v138.2c0,1.2,1,2.1,2.1,2.1c1.2,0,2.1-0.9,2.1-2.1v-28.3c0.7,0,1.5-0.1,2.2-0.1v28.4c0,1.2,1,2.1,2.1,2.1s2.1-0.9,2.1-2.1v-29
		c2-0.4,3.9-1,5.8-1.7v30.7c0,1.2,1,2.1,2.1,2.1c1.2,0,2.1-0.9,2.1-2.1V322c1.9-0.9,3.8-2,5.5-3.2v35.8c0,1.2,1,2.1,2.1,2.1
		c1.2,0,2.1-0.9,2.1-2.1v-38.9c1.3-1.1,2.6-2.2,3.8-3.4v42.4c0,1.2,1,2.1,2.1,2.1c1.2,0,2.2-0.9,2.2-2.1v-47.1
		c1-1.3,1.9-2.6,2.7-3.9v51c0,1.2,1,2.1,2.1,2.1c1.2,0,2.1-0.9,2.1-2.1V249.2c2,1.3,3.9,2.4,5.6,3.3c6.2,3.3,9.9,4.2,12.1,4.2
		c1.9,0,2.7-0.7,3.1-1c1-0.8,1.9-2.4,0.7-5.4c-2-5-1.3-10-0.6-15.2c1.1-7.8,2.1-15.8-6.1-23.1c3.6-0.2,7.1-0.9,10.4-2
		c4.2,16.4,32,17.8,41.7,17.8c1.4,0,2.3,0,2.9,0c6.2-0.2,8.2-0.7,8.2-2.8c0-2.2-2.4-2.3-3.2-2.4c-4.3-0.3-7.2-5.2-10.9-11.3
		c-2.2-3.7-4.8-7.9-8.2-12c2.3,0.4,4.7,0.6,7.1,0.6c14.5,0,30.8-6.5,38.5-14.4l0,0c3.5-3,5.4-7.6,5.3-12.7
		c-0.2-6.6-3.7-13.4-10.2-19.3c8.4-0.4,15.8-4.9,17-5.6c1.6-0.7,3.1-2,4.5-4.1c4.2-0.8,7.5-3.1,9.2-5.4
		C364.2,131.7,362.3,118.3,354.7,106.2z M319.7,86.1L319.7,86.1c-7.6,1.8-15.5,7.9-19.7,11.2c-4-3.8-8.8-7.1-14.4-9.8
		c-3.4-1.6-7.4-3.1-11.5-4.2c8.2-8.2,9.6-20.4,10-29.2c3.8,5.8,10.1,11.9,16.2,16.4c8.1,6,16.7,10.4,24.3,12.4
		c1.6,0.4,3.1,0.7,4.6,0.9c-1.6,0.8-2.9,1.3-3.5,1.6C323.6,85.2,321.6,85.5,319.7,86.1z M325.7,149.1c-0.4,0-0.8,0.1-1.2,0.3
		c-3.4-4.9-7.4-9.1-10.1-11.4c-1.9-1.6-3.9-3-6-4.2c0.6-0.9,1.2-1.8,1.7-2.8c1.7-3.4,2.3-7.2,2.1-11c1.2,3,2.8,6,4.6,8.9
		c4.6,7.3,11.9,15.6,19.2,18.6C333,148.6,329.3,149.4,325.7,149.1z M277.4,149.6c-1.7-2.3-3.7-4.4-6.1-6.1c-0.2-0.1-0.4-0.2-0.5-0.3
		c4.2,1,8.4,1.6,12.4,1.6c3.5,0,6.9-0.4,10.1-1.2C288.8,146.7,283.7,148.9,277.4,149.6z M244.5,207.8c-19.7,0-35.7-15.6-35.7-34.8
		c0-13.5,9-25.8,20.9-28.6c1.7-0.4,4.3-0.7,7.4-0.7c6.6,0,15.3,1.4,21.5,6.5c5.4,4.4,7.9,10.9,7.4,19.3c-0.5,8.6-3.9,15.2-9.7,18.6
		c-5,2.9-11.4,3.2-17.1,0.6c-10-4.5-12.2-13.1-11-19c1-5.4,4.6-9.2,8.9-9.5c3.4-0.2,7.7,0,9.2,2.4c1.8,2.9-0.5,8.1-1.6,9.9
		c-0.6,1-0.2,2.3,0.8,2.9c1,0.6,2.3,0.2,2.9-0.8c0.5-0.9,5-8.7,1.5-14.2c-2.1-3.3-6.5-4.8-13.2-4.4c-6.3,0.4-11.5,5.6-12.9,12.9
		c-1.4,7.4,1.3,18,13.4,23.5c7,3.2,14.9,2.9,21.1-0.8c7-4.1,11.2-11.9,11.7-21.9c0.6-9.8-2.5-17.4-9-22.8c-1.7-1.4-3.5-2.5-5.5-3.5
		c4.9-0.3,9.2,0.8,12.9,3.4c6.9,4.9,11.4,15.1,11.4,26.1C280.2,192.2,264.2,207.8,244.5,207.8z M143.5,169.2c-0.6-6.6-3-12.6-5.2-16
		c-3-4.6-7.5-8.1-12.9-10.1c2.2-1.6,4-3.6,5.3-5.5c5.8,8.5,15.6,15.1,27.4,18.1c-6,4.1-10.6,9.6-13.3,15.7
		C144.5,170.6,144.1,169.9,143.5,169.2z M101.2,71.7c-3.7-0.9-6.6-2.8-9-4.9c3.2-0.2,7.1-1.1,11.4-2.7
		C102.4,66.7,101.6,69.2,101.2,71.7z M105.3,76.6c-1-11.4,10.6-26.1,28.2-35.3c14.7-7.7,31.5-9.6,38.2-4.2c2.3,1.9,5.5,6.9,4.8,13.1
		c-1,8.2-8.2,15.8-21.1,22c-12,5.8-22.1,7.2-27,3.6c-2.7-2-2.8-5-2.4-7.2c2-10.5,14.5-17.6,22.7-19.3c4-0.8,7.2-0.5,8.2,0.9
		c1.9,2.7,1.3,4.1,1.1,4.6c-1.6,3.9-10.3,6.1-13.3,6.6c-1.2,0.2-1.9,1.3-1.7,2.4s1.3,1.9,2.5,1.7c1.4-0.2,13.6-2.5,16.5-9.1
		c0.8-1.9,1.2-4.9-1.5-8.7c-2.1-2.9-6.6-3.9-12.6-2.6c-10.9,2.3-23.8,11-26,22.7c-0.9,4.6,0.6,8.7,4,11.3c2.6,1.9,5.9,2.8,10,2.8
		c6,0,13.3-2,21.5-6c17.3-8.4,22.3-17.9,23.3-24.6c1.3,1.5,1.9,3.2,1.8,5.1c-0.3,7.5-11,18.3-26.1,26.2c-11.8,6.2-24.3,9-34.5,7.7
		c-1-1.4-2.5-2.7-4.8-3.8c-1.5-4.1-4.4-7.1-7-8.5C108.7,77.4,107.1,76.9,105.3,76.6z M152.7,26.2c2.4,1.5,5.8,2.8,10.2,3.8
		c-2.9-0.2-6.1-0.1-9.5,0.4C153.1,29.2,152.8,27.7,152.7,26.2z M206,31.4c0.1,1.1,0.3,2.4,0.8,3.7c-2.3,4.2-2.7,8.8-1.8,11.9
		c0.3,1.1,0.8,2.1,1.4,3.2c-0.2,0-0.5,0-0.7,0.1c-7.5,1-14.1,3.4-19,6.8c0-0.1,0-0.3,0.1-0.4c0.1-3-0.9-7.2-6.1-10.7
		c-0.7-5.3-3.4-9.8-6.3-12c-1.5-1.2-3.4-2.1-5.5-2.8c5.6,0.8,11.9,1.3,18.7,1.3c4.7,0,9.5-0.2,14.5-0.6
		C203.4,31.6,204.7,31.5,206,31.4z M306.3,129.2c-6.1,12.2-26,15.1-44.5,6.3c-13.1-6.2-22.2-17.4-21.1-26.1c0.1-0.6,0.3-1.4,0.5-2.1
		c0.5-1.1,0.9-2.2,1.4-3.3c1.6-3,4.3-6.1,8.1-8.1c2.7-1.3,5.6-2,8.8-2c4.9,0,10.4,1.6,16.4,4.7c9.7,5,15.3,11.2,15.4,17
		c0.1,3.2-1.6,5.9-4.7,7.7c-7.8,4.4-18,1.6-24.2-3.4c-3.4-2.8-5.1-5.9-4.3-7.9c0.9-2.5,2.2-3.8,3.7-4.1c3.6-0.7,9,4,10.6,5.7
		c0.8,0.9,2.2,0.9,3,0.1c0.9-0.8,0.9-2.1,0.1-3c-0.8-0.8-7.9-8.3-14.6-7c-3.1,0.6-5.5,2.9-6.9,6.8c-1.5,3.9,0.6,8.6,5.6,12.6
		c7.1,5.8,19.2,9.4,29.1,3.8c4.5-2.5,7-6.7,6.9-11.4c-0.1-7.4-6.6-14.9-17.7-20.7c-14.1-7.3-23.7-5.5-29.2-2.7
		c-0.3,0.1-0.5,0.3-0.8,0.4c0.8-2.1,2.1-3.7,4.1-4.9c7.4-4.5,21.6-1.4,31.8,3.4C302.2,100,312.3,117,306.3,129.2z M213.2,97.9
		c3.5,0.5,7.2,0.7,10.9,0.7c6.6,0,12.9-0.8,18.8-2.2v0.1c-1.7,1.7-3,3.6-4,5.4c0,0,0,0.1-0.1,0.1c0,0.1-0.1,0.1-0.1,0.2
		c-0.7,1.3-1.2,2.5-1.6,3.7c-2.2,5.3-3.6,10.8-4.3,16.2c-3.9,0.3-7.3,0.3-12.4-1c0-0.7,0.1-1.3,0.1-2
		C220.5,111.4,217.8,103.8,213.2,97.9z M237.7,139.5c-1.5-6.3-1.5-13.8,0.1-21.3c3.2,8,11.3,16,22.1,21.1c0,0,0.1,0,0.1,0.1
		c-3.7-0.4-7.8,0.1-12,1.3C244.5,139.9,241,139.5,237.7,139.5z M269,82.1c-0.4-0.1-0.8-0.1-1.1-0.2c2.1-3,3.2-6.3,3.2-9.6
		c0-3.2-0.9-6.3-2.6-9.2c4.7-1.8,8.5-4.2,11.2-7.1C279.2,64.8,277.3,75.7,269,82.1z M266.7,72.4c0,3.2-1.3,6.2-3.9,9.1
		c-4.9-0.2-9.5,0.6-13.1,2.8c-2.9,1.8-5,4.4-6,7.7c-6.1,1.7-12.7,2.5-19.6,2.5c-5.5,0-10.8-0.5-15.8-1.6c0,0,0,0-0.1,0
		c-0.2-0.2-0.4-0.4-0.6-0.5c-3.6-2.7-9-5.4-16.3-5.9l-0.1-0.1c-6.2-4-9.6-8.9-9.6-13.9c0-8.4,10.7-16.2,24.8-18
		c10.1-1.3,32.3-0.5,40.5,7.3c2.4,2.3,3.4,5,3.1,8.2c-0.4,3.6-2.2,6.6-5.6,8.8c-6.2,4.2-17.4,5.5-27,3.1c-10.3-2.6-13.6-7-13.2-10.2
		c0.4-3.2,4.4-6.7,11.2-7c10.4-0.4,11.9,1.7,12.1,2.2c0.5,1-1,3.2-2.2,4.4c-0.9,0.8-0.9,2.1-0.1,3s2.2,0.9,3,0.1
		c0.5-0.5,5-4.9,3.2-9c-1.6-3.6-6.7-5.1-16.2-4.7c-8.2,0.3-14.6,4.8-15.3,10.7c-0.3,2.4,0.1,10.6,16.4,14.7c9.1,2.3,22.1,2,30.5-3.7
		c4.3-2.9,6.9-7,7.4-11.8c0.5-4.5-1-8.5-4.4-11.7c-2.1-2-5-3.6-8.1-4.9c7.6,0.3,14,2.4,18.6,6.1C264.4,63.3,266.7,67.9,266.7,72.4z
		 M177.3,73.1c0.2,4.8,2.7,9.4,7.2,13.4c-2.3,0.2-4.8,0.6-7.4,1.3c-7.2-1.4-14.4-1.4-19.5-1c0.3-0.1,0.6-0.3,0.8-0.4
		C165.2,82.8,172,78.2,177.3,73.1z M249.1,50.5c-4.1-0.9-8.7-1.1-13.6-0.8c-0.2-0.1-0.3-0.2-0.5-0.3c-5.3-1.6-8.1-3.9-8-5.5
		c0-2.7,1.2-3.4,1.5-3.6c2.8-1.7,9.5,0.3,13,1.9c1.1,0.5,2.3,0.1,2.9-1c0.5-1,0.1-2.3-1-2.8c-1.2-0.5-11.4-5.2-17.2-1.7
		c-1.6,1-3.5,3-3.6,7.1c0,2.3,1.5,4.6,4.2,6.4c-5.6-0.7-11.1-0.8-15.6-0.6c0,0,0-0.1-0.1-0.1c-1.1-1.3-1.8-2.6-2.1-3.8
		c-0.7-2.4-0.3-7.4,3.4-11.4c3.5-3.8,11-7.8,27-5.2c17.6,2.8,20.9,9.1,21.4,10.9c0.8,2.7-0.6,4.7-2,6c-2.3,2.2-5.5,3.6-9.5,4.3
		C249.4,50.4,249.3,50.5,249.1,50.5z M126.8,94.9c4,0,8.2-0.5,12.5-1.5c-5,3.5-9,8.2-11.5,13.4c-1.4-4.7-2.9-9-4.2-12.1
		C124.7,94.9,125.8,94.9,126.8,94.9z M129.3,119.3c0-13.2,10.9-25.1,25.4-27.9c2.1-0.4,5.3-0.7,9-0.7c9.1,0,21.4,1.8,28.8,8.2
		c4.8,4.2,7,9.8,6.5,16.8c-0.5,7.5-3.8,13.3-9.5,16.8c-6.5,4.1-15.5,4.8-23.5,1.8c-11.4-4.2-14.5-11.8-13.6-17.4
		c0.9-5.7,5.6-9.9,11.3-10.2c6.4-0.3,10.7,0.7,11.9,2.9c1.5,2.7-1,7.3-2.2,8.9c-0.7,0.9-0.5,2.2,0.5,2.9s2.3,0.4,3-0.5
		c0.6-0.8,5.5-7.8,2.4-13.3c-2.2-3.8-7.5-5.5-15.9-5.1c-7.8,0.4-14.1,6.1-15.3,13.8c-1.2,7.3,2.5,16.9,16.3,22
		c9.3,3.4,19.7,2.6,27.4-2.2c4.8-3,10.6-8.9,11.4-20.1c0.6-8.4-2.1-15.2-8-20.3c-2.6-2.2-5.6-4-8.9-5.3c7.2-0.4,13.5,1.3,18.5,5.1
		c6.9,5.2,11.2,14.2,11.2,23.6c0,18.7-19.5,34-43.4,34C148.8,153.2,129.3,138,129.3,119.3z M219.8,125.4c3.5,0.8,6.3,1.2,9,1.2
		c1.2,0,2.4-0.1,3.6-0.2c-0.3,4.6,0.1,9.1,1,13.2c-1.8,0.1-3.4,0.4-4.7,0.7c-8.8,2-16.1,8.4-20.4,16.8c-2.6-2.4-5.8-4.4-9.4-6
		C209.9,145.4,217.7,136.2,219.8,125.4z M303,100.3c1.9-1.5,4.5-3.5,7.5-5.4c-1.2,2.8-1.8,6.2-1.7,10c0,1.6,0.2,3.1,0.4,4.7
		C307.7,106.3,305.6,103.2,303,100.3z M284.8,43.9c0.1-0.9,1-2.8,3.5-3.8c0.8-0.3,2-0.6,3.6-0.6c4,0,10.6,1.9,20.7,9.8
		c11.7,9.1,13.7,14.9,13.1,16.7c-0.2,0.7-1.1,1.2-2.5,1.3c-6.6,0.5-16-5.2-21.2-11c-2.6-2.9-3-4.5-3-4.7c0.4-0.8,0.9-0.9,1.1-0.9
		c2.4-0.3,7.4,4.3,10.1,7.4c0.8,0.9,2.1,1,3,0.3s1.1-2.1,0.3-2.9c-1.3-1.6-8.3-9.5-13.8-8.9c-1.3,0.1-3.2,0.8-4.4,3.1
		c-0.9,1.7-0.5,4,1.3,6.7c4.5,6.7,17.3,15.9,27,15.2c3.2-0.2,5.5-1.8,6.2-4.2c1.6-5.1-3.7-12.8-14.5-21.2c-11.5-9-19.5-11-24.7-10.6
		c0.2-0.2,0.4-0.3,0.6-0.4c3.9-1.9,16.1,3.3,27.7,11.9c7.7,5.7,13.9,12.2,17.6,18.3c3.3,5.5,4.1,10,2.3,12.4
		c-0.2,0.3-0.5,0.5-0.8,0.8c0,0,0,0-0.1,0c-2.2,1.7-6.5,1.8-12.1,0.4c-7-1.8-15.2-6-22.8-11.6C291,58.3,284.2,48.2,284.8,43.9z
		 M280,46.4c-0.7,5.5-5.9,10.3-14.1,13.2c-0.9-1-1.8-2-2.9-2.9c-2-1.6-4.2-2.9-6.7-4c2.1-0.9,4-2.1,5.6-3.6
		c3.2-2.9,4.3-6.6,3.2-10.3C263,32.2,254,27.1,240.2,25c-16.7-2.6-25.4,1.4-30,5.6c0-1.4,0.4-2.7,1.3-3.8c4-5.2,17.9-7.5,32.9-5.6
		c10.4,1.3,19.9,4.8,26.6,9.7C277.5,35.7,280.7,41.2,280,46.4z M165.1,10.9c9.1-3.3,21.5-5.7,34.8-6.8c20.8-1.7,37.4,0.9,40.9,4.2
		c0.2,0.2,0.8,0.9,0.6,2.1c-0.2,1.1-1.2,3.2-5.7,5.5c-0.2,0.1-0.3,0.2-0.5,0.4c-9.3-0.1-18.5,1.4-23.9,5.1l0,0
		c-1.6,0.2-3.3,0.3-5.1,0.4c-23.1,1.5-29.3-2.1-29.7-3.1c0-0.1,0.1-0.7,1.5-1.7c10.6-7.4,38-7.4,41.1-4.9c0,0.2,0,0.2-0.1,0.3
		c-1.5,1.9-10.8,2.6-18.6,2c-1.2-0.1-2.2,0.8-2.3,1.9c-0.1,1.2,0.8,2.2,2,2.2c4.3,0.3,18.6,1,22.3-3.6c1-1.3,1.2-2.8,0.7-4.4
		c-0.5-1.3-1.7-2.3-3.8-3c-8-2.5-33.3-1.4-43.8,6c-3.8,2.6-3.5,5.2-3.1,6.5c1.8,5,12.9,6.2,23.3,6.2c3.8,0,7.6-0.2,10.7-0.4
		c0.2,0,0.5,0,0.7,0c-0.2,0.3-0.3,0.6-0.4,1c-1.6,0.2-3.2,0.3-4.8,0.4c-13.3,1.1-25.9,0.7-35.4-1.1c-10-1.9-13.7-4.8-13.9-6.7
		C152.3,17.8,155.5,14.4,165.1,10.9z M145.6,32c-2.6,0.7-5.2,1.6-7.8,2.7c2.8-3.6,3.9-6.6,4.1-9.1C143.3,27.4,144.6,29.6,145.6,32z
		 M89.9,50.1c4.1-5.8,10.6-12,18.4-17.6c12.1-8.7,23.7-12.6,27.4-11.3c0.1,0.1,0.3,0.1,0.5,0.3l0,0c0.6,0.4,1.2,1.2,1.4,2.5
		c0.3,2.3-0.7,9-16.5,19.9c-13,8.9-18.7,8.9-19.7,8.2c-0.4-0.3-0.3-1.1,0-1.9c1.7-5.7,9.8-12.5,16.4-16c3.7-1.9,5.6-2.2,6.2-2.1
		c0.2,0.3,0.2,0.4,0.2,0.5c-0.3,1.9-5.6,5.4-10.3,7.5c-1.1,0.5-1.6,1.7-1.1,2.8c0.5,1,1.8,1.5,2.8,1c2-0.9,11.9-5.6,12.7-10.7
		c0.3-1.6-0.3-3.1-1.6-4.3c-1.2-1.1-3.1-1.3-5.6-0.6c-7.5,2-21.2,11.8-24,20.7c-1.2,4,0.7,5.8,1.6,6.5c2.2,1.6,5.9,1.4,10.6-0.4
		c-0.8,1-1.6,2-2.3,3c-10.9,5.2-17.9,5.5-20.2,3.6l-0.1-0.1c-0.1-0.1-0.2-0.2-0.3-0.3C85.1,59.3,86.4,55,89.9,50.1z M65.2,109.4
		c2.5-6.8,7.7-13.5,14.7-19.1c7.5-6,16.4-9.6,22.8-9.6c2.1,0,3.9,0.4,5.3,1.1c2.1,1.1,5.3,4.6,5.7,9.5c0.5,6.3-3.8,12.9-12.3,19.3
		c-8,6-15.3,8.4-19.5,6.5c-2.3-1.1-2.9-3.3-2.9-4.9c-0.2-7.3,6.8-14.7,13.6-17.6c3.2-1.4,5.4-1.3,6.2-0.6c1.8,1.7,1.6,2.8,1.5,3.1
		c-0.6,2.8-6.1,5.6-8.7,6.5c-1.1,0.4-1.7,1.6-1.3,2.7c0.4,1.1,1.6,1.6,2.8,1.2c1-0.4,10.2-3.8,11.4-9.6c0.4-1.7,0.2-4.3-2.7-7
		c-2.3-2.1-6.2-2.2-10.9-0.2c-8,3.4-16.4,12.1-16.2,21.5c0.1,3.9,2.1,7.1,5.4,8.6c5.8,2.7,14.5,0.2,24-6.9c11.3-8.4,14-16.2,14-21.5
		c0.1,0.1,0.2,0.3,0.3,0.4c0.3,0.7,0.6,1.5,1.1,2.6c0.8,5.7-5.7,15.4-15.5,23.2c-7,5.6-14.8,9.3-22.1,10.3c-6.9,1-12.4-0.4-15.4-4.1
		C63.3,121.3,62.9,115.8,65.2,109.4z M69.7,132.1c2.3,0.9,5,1.3,7.9,1.3c1.5,0,3.1-0.1,4.8-0.4c8-1.2,16.6-5.2,24.2-11.2
		c6.1-4.9,12.7-12,15.6-18.8c1.1,3.2,2.2,6.8,3,10.5c0.1,0.2,0.2,0.5,0.3,0.7c-0.3,1.7-0.5,3.3-0.5,5c0,4.9,1.2,9.6,3.3,13.9
		c-1.3,3-4.4,6.5-8.5,8.2c-5.4-1-11.2-0.7-16.7,1.1c-1.3,0.4-2.5,0.9-3.7,1.5C84.9,144.3,75.8,140.8,69.7,132.1z M124.5,204.6
		c-16.4,5.4-34.3-3.2-39.9-19.2s3.3-33.5,19.7-38.9c3-1,6.1-1.5,9.2-1.5c8.7,0,16.9,3.8,21.1,10.4c2.7,4.1,6.9,15.7,3.2,25.1
		c-2.2,5.6-7.1,9.5-14.4,11.4c-7.5,2-14.1,1.1-18.5-2.6c-3.9-3.2-5.9-8.3-5.3-13.6c1.1-9.3,7.4-13.5,13-14.2c4.8-0.7,9,1.1,10.5,4.5
		c1.1,2.6,2.1,6.2,0.6,8c-1.9,2.2-7.1,1.8-8.8,1.5c-1.2-0.2-2.3,0.5-2.5,1.6s0.5,2.2,1.7,2.5c0.9,0.2,9.1,1.6,12.9-2.9
		c2.3-2.8,2.4-6.9,0.1-12.3c-2.2-5.1-8.2-8-15-7c-6.9,1-15.4,6.2-16.7,17.9c-0.8,6.7,1.8,13.1,6.8,17.3c5.6,4.6,13.6,5.8,22.5,3.4
		c8.7-2.3,14.5-7,17.2-14c0.6-1.5,1-3.1,1.3-4.7c1.4,3.6,1.5,7.1,0.4,10.6c-1.4,4.3-4.7,8.4-9.3,11.6c-0.4,0.2-0.8,0.5-1.1,0.8
		C130.7,202.1,127.7,203.5,124.5,204.6z M131.4,244.4c-1.5-4.6-2.9-16.2-1.3-27.2c1-6.6,3-11.3,5.7-13.5c3.5-2.3,6.7-5.2,9-8.7
		c3.5,8.1,10.3,14.5,19,18.2C146.6,218.2,135.8,232.4,131.4,244.4z M147.6,189.9c0,0,0-0.1-0.1-0.1c0.1-0.2,0.2-0.4,0.2-0.6
		c1.3-4.1,1.2-8.3-0.2-12.5c2.2-8.2,8.3-15.5,16.8-19.9c2.7,0.4,5.5,0.6,8.4,0.6c7.4,0,14.4-1.4,20.7-3.8c5.3,1.5,9.9,4.2,13.1,7.7
		c-1.3,3.7-2,7.6-2,11.7c0,5.9,1.4,11.5,3.8,16.5c-3.8,6.2-10.6,9.7-20.3,10.3c-9.5,0.6-16.9-1.8-20.7-6.9c-2.8-3.7-3.3-8.5-1.5-13
		c3.8-9.3,12.7-12,19.2-11.4c5.1,0.5,9,2.9,9.7,6.2c0.7,3.7,0.4,6.3-1.2,7.5c-2.7,2.2-8.7,0.8-10.8,0.1c-1.1-0.4-2.3,0.2-2.8,1.2
		c-0.4,1.1,0.2,2.3,1.3,2.7c1,0.4,10,3.4,15-0.8c2.8-2.3,3.7-6.2,2.6-11.5c-1-5.2-6.3-8.9-13.5-9.5c-8.6-0.8-19.2,3.3-23.6,14
		c-2.4,5.8-1.6,12.2,2,17c4.2,5.7,11.7,8.7,21.3,8.7c1,0,2.1,0,3.1-0.1c12.1-0.8,18.7-5.7,22.3-10.4c0.7,1.1,1.5,2.2,2.3,3.2
		c0,0,0,0,0,0.1c-3.6,8.9-16.2,14.2-27,15.4C168,214.3,151.5,204.7,147.6,189.9z M190.6,215.8c3.3-0.6,6.8-1.7,10.1-3
		c0.3,5.5,3.5,11.3,8,16.7c-6,3.7-12.3,5.7-18.1,5.8V215.8z M213.4,313.1C213.4,313.1,213.4,313.2,213.4,313.1
		c-2.9,2.3-6,4.2-9.2,5.6h-0.1c-4.4,2-9,3.2-13.5,3.3v-38.5c14.8-0.2,29.7-10.8,37.2-22.7v32.5C226,300.2,220.6,307.6,213.4,313.1z
		 M227.9,250.7c-3.5,13.3-21,28.5-37.2,28.7v-40c8.5-0.1,16-3.6,21-6.8c4.9,5.2,10.8,9.9,16.3,13.7v4.4H227.9z M248.8,234.5
		c-0.7,5.6-1.5,11.3,0.9,17.3c0.1,0.3,0.2,0.6,0.2,0.7c-2.5,0.3-12.3-3.7-24-12.7c-13.9-10.7-21.6-21.5-20.9-29.1
		c4.6-2.6,8.6-6,10.9-10.4c6.2,6.2,14.5,10.3,23.7,11.4C250.9,218.6,250,225.6,248.8,234.5z M292.3,213.2c2.4,4,4.7,7.8,7.4,10.3
		c-8.7,0.1-23-1-31.7-6.5c-3.7-2.4-5.9-5.2-6.6-8.7c6.4-2.9,11.9-7.4,15.8-13c0.5,0.3,1,0.6,1.6,0.9
		C285.1,201.1,288.9,207.5,292.3,213.2z M279.6,191.6c3.1-5.5,4.9-11.9,4.9-18.6c0-6-1.3-13.2-4.6-19.5c1.1-0.2,2.1-0.4,3.2-0.6
		c1.8,6.7,5.7,13.8,11.3,20c8.5,9.5,18.7,15.1,27.2,15.9C309,195.4,290.3,198.6,279.6,191.6z M330.5,182.3
		c-6.8,5.8-21.9,0.2-33-12.2c-5.2-5.8-8.9-12.4-10.5-18.5c8-3,13.9-8.6,18.7-14.4c2,1.1,4,2.4,5.8,4c5.5,4.7,15.7,17,15.3,25.2
		c-0.1,2.4-1.1,4.2-3.1,5.5c-2.2,1.5-4.8,2-7.6,1.3c-5.3-1.3-11.3-6.6-14.4-12.9c-3.4-6.6-2.5-10.4-0.6-11.6
		c1.9-1.3,5.6-0.8,8.8,2.5c5.2,5.4,4.5,7,4.5,7.1c-0.2,0.4-1.8,0.8-3.2,0.7c-1.2-0.1-2.2,0.8-2.3,1.9c-0.1,1.2,0.8,2.2,2,2.2
		c0.6,0,5.7,0.3,7.4-3.1c1.4-2.8-0.3-6.6-5.3-11.7c-4.4-4.5-10.4-5.8-14.4-3.1c-1.6,1.1-6.5,5.6-0.8,16.9
		c3.1,6.2,9.7,13.2,17.2,15.1c1.2,0.3,2.4,0.5,3.6,0.5c2.7,0,5.3-0.8,7.5-2.4c3.1-2.1,4.7-5.1,4.9-8.8c0.1-1.3-0.1-2.7-0.4-4.1
		c2.3,3.4,3.6,6.9,3.6,10.4C334.5,176.6,333.1,180.1,330.5,182.3z M355.8,135.8c-1.3,1.7-5,4.2-9.8,4c-6.2-0.4-12.2-5.3-17.5-14.2
		c-7.2-12.4-4.8-17.8-3.9-19.1c1.3-2,3.5-2.2,5.1-2c7.2,0.8,13.5,8.4,15.5,15.3c0.9,3.1,0.5,5.1-0.2,5.7c-1.8,1.4-2.8,1.1-3.1,0.9
		c-2.6-0.9-4.7-6.5-5.3-9c-0.3-1.1-1.4-1.8-2.6-1.6c-1.2,0.3-1.9,1.4-1.6,2.5c0.2,1,2.5,10.1,8.1,12.1c1.6,0.6,4.2,0.7,7.2-1.6
		c2.4-1.9,3-5.4,1.7-10.1c-2.3-8-9.8-17.2-19.1-18.3c-3.9-0.4-7.2,0.9-9.2,3.8c-3.4,5-2.1,13.6,3.7,23.5
		c6.8,11.6,13.9,15.2,19.2,16.1c-0.8,0.5-1.7,0.7-2.6,0.7h-0.1c-5.6,0-14.4-7.4-20.8-17.7c-4.6-7.3-7.2-15.1-7.3-22.1
		c-0.1-6.5,1.9-11.4,5.8-13.8c1.7-1,3.6-1.5,5.8-1.5c2.9,0,6.1,0.9,9.4,2.6c6.3,3.3,12.3,9.1,16.9,16.3
		C357.5,118.7,359.6,130.7,355.8,135.8z"/>
</g>
<path fill="#C9B182" d="M281.3,151.8c4.8,3.5,10.5,5.3,16.4,5.3c8.9,0,17.4-4.3,22.7-11.5c4.4-6,6.2-13.4,5-20.8
	c-1.2-7.4-5.1-13.9-11.2-18.3c-4.8-3.5-10.5-5.3-16.4-5.3c-8.9,0-17.4,4.3-22.7,11.5c-4.4,6-6.2,13.4-5,20.8
	C271.3,140.9,275.3,147.4,281.3,151.8z M283.3,118.6c3.4-4.6,8.8-7.4,14.5-7.4c3.8,0,7.4,1.2,10.5,3.4c3.9,2.8,6.4,7,7.2,11.7
	c0.7,4.7-0.4,9.4-3.2,13.3c-3.4,4.6-8.8,7.4-14.5,7.4c-3.8,0-7.4-1.2-10.5-3.4c-3.9-2.8-6.4-7-7.2-11.7
	C279.4,127.2,280.5,122.5,283.3,118.6z"/>
<path fill="#C9B182" d="M251.6,206.4c0.5-0.6,1-1.2,1.5-1.9c5.7-7.8,6.9-17.8,3.5-26.6c2.8-1.9,5.3-4.2,7.4-7
	c9.1-12.6,6.3-30.2-6.2-39.3c-4.8-3.5-10.6-5.4-16.5-5.4c-0.5,0-0.9,0-1.4,0c-1.7-6.2-5.4-11.6-10.6-15.4
	c-4.8-3.5-10.6-5.4-16.5-5.4c-9,0-17.5,4.3-22.8,11.6c-2,2.8-3.5,5.9-4.4,9.2c-0.5,0-0.9,0-1.4,0c-9,0-17.5,4.3-22.8,11.6
	c-9.1,12.6-6.3,30.2,6.2,39.3c0.4,0.3,0.8,0.5,1.1,0.8c-4.4,11.6-0.6,25.2,9.8,32.8c4.8,3.5,10.6,5.4,16.5,5.4
	c6.5,0,12.7-2.2,17.7-6.2c0.4,0.3,0.7,0.6,1.1,0.8c4.8,3.5,10.6,5.4,16.5,5.4c5.5,0,10.8-1.6,15.3-4.5
	C246.8,209.3,248.8,207.4,251.6,206.4z M230.2,206.1c-3.8,0-7.5-1.2-10.6-3.5c-1.2-0.8-2.2-1.8-3.2-3c-1-1.1-2.4-1.8-3.8-1.8l0,0
	c-1.5,0-2.9,0.7-3.9,1.8c-3.4,4.1-8.5,6.4-13.8,6.4c-3.8,0-7.5-1.2-10.6-3.5c-7.6-5.5-9.7-16.1-4.7-24.1c0.8-1.3,1-2.8,0.5-4.2
	s-1.5-2.5-2.9-3.1s-2.6-1.3-3.8-2.1c-8.1-5.9-9.9-17.2-4-25.2c3.4-4.7,8.9-7.4,14.6-7.4c1.4,0,2.9,0.2,4.3,0.5
	c0.4,0.1,0.8,0.1,1.2,0.1c1.1,0,2.1-0.3,3-1c1.2-0.9,2-2.2,2.1-3.7c0.2-3.4,1.4-6.6,3.4-9.3c3.4-4.7,8.9-7.5,14.6-7.5
	c3.8,0,7.5,1.2,10.6,3.5c4.3,3.1,7,8,7.4,13.3c0.1,1.5,0.9,2.8,2.1,3.7c0.9,0.6,1.9,1,3,1c0.4,0,0.8,0,1.2-0.1
	c1.4-0.3,2.9-0.5,4.3-0.5c3.8,0,7.5,1.2,10.6,3.5c8.1,5.9,9.8,17.2,4,25.2c-2,2.7-4.7,4.8-7.8,6.1c-1.4,0.6-2.4,1.7-2.9,3.1
	c-0.5,1.4-0.3,3,0.5,4.2c3.9,6.3,3.6,14.2-0.7,20.1C241.5,203.3,236,206.1,230.2,206.1z"/>
<path fill="#C9B182" d="M229,141.1c-4.8-3.5-10.5-5.3-16.4-5.3c-8.9,0-17.4,4.3-22.7,11.5c-4.4,6-6.2,13.4-5,20.8
	c1.2,7.4,5.1,13.9,11.2,18.3c4.8,3.5,10.5,5.3,16.4,5.3c8.9,0,17.4-4.3,22.7-11.5C244.3,167.7,241.5,150.1,229,141.1z M227.1,174.2
	c-3.4,4.6-8.8,7.4-14.5,7.4c-3.8,0-7.4-1.2-10.5-3.4c-3.9-2.8-6.4-7-7.2-11.7s0.4-9.4,3.2-13.3c3.4-4.6,8.8-7.4,14.5-7.4
	c3.8,0,7.4,1.2,10.5,3.4C231.1,155,232.9,166.2,227.1,174.2z"/>
<path fill="#C9B182" d="M207,88.7c0.4,0.3,0.8,0.5,1.2,0.8c-1.5,3.8-2,7.9-1.7,11.8c2-0.4,4.1-0.6,6.2-0.6c1.3,0,2.6,0.1,3.9,0.2
	c-0.3-3.7,0.5-7.6,2.6-11c0.8-1.3,1-2.8,0.5-4.2s-1.5-2.5-2.9-3.1s-2.6-1.3-3.8-2.1c-8.1-5.9-9.9-17.2-4-25.2
	c3.4-4.7,8.9-7.4,14.6-7.4c1.5,0,2.9,0.2,4.3,0.5c0.4,0.1,0.8,0.1,1.2,0.1c1.1,0,2.1-0.3,3-1c1.2-0.9,2-2.2,2.1-3.7
	c0.2-3.3,1.4-6.6,3.4-9.3c3.4-4.7,8.9-7.5,14.6-7.5c3.8,0,7.5,1.2,10.6,3.5c4.3,3.1,7,8,7.4,13.3c0.1,1.5,0.9,2.8,2.1,3.7
	c0.9,0.6,1.9,1,3,1c0.4,0,0.8-0.1,1.2-0.1c1.4-0.4,2.9-0.5,4.3-0.5c3.8,0,7.5,1.2,10.6,3.4c4.3,3.1,6.8,7.8,7.3,12.7
	c3.5,0.1,6.9,0.7,10.2,1.8c-0.1-8.7-4.1-17.2-11.6-22.7c-4.8-3.5-10.6-5.4-16.5-5.4c-0.5,0-0.9,0-1.4,0c-1.7-6.2-5.4-11.6-10.6-15.4
	c-4.9-3.5-10.6-5.4-16.5-5.4c-9,0-17.5,4.3-22.8,11.6c-2,2.8-3.5,5.9-4.4,9.2c-0.5,0-0.9,0-1.4,0c-9,0-17.5,4.3-22.8,11.6
	C191.7,61.9,194.5,79.6,207,88.7z"/>
<path fill="#C9B182" d="M279.4,69.2c-1.4-6.5-5.1-12.5-10.9-16.6c-4.8-3.5-10.5-5.4-16.4-5.4c-8.9,0-17.4,4.3-22.7,11.5
	c-4.4,6-6.2,13.4-5,20.8s5.1,13.9,11.2,18.3c1.4,1,2.8,1.8,4.3,2.6c0.3-0.4,0.5-0.8,0.8-1.2c1.9-2.6,4.1-4.9,6.5-6.8
	c-2-0.6-4-1.5-5.7-2.8c-3.9-2.8-6.4-7-7.2-11.7c-0.7-4.7,0.4-9.4,3.2-13.3c3.4-4.6,8.8-7.4,14.5-7.4c3.8,0,7.4,1.2,10.5,3.4
	c5.6,4.1,8.1,10.8,7.2,17.2C272.5,74.4,275.8,71.5,279.4,69.2z"/>
<path fill="#C9B182" d="M342.9,97c-4.8-3.5-10.6-5.4-16.5-5.4c-0.5,0-0.9,0-1.4,0c-1.7-6.2-5.4-11.6-10.6-15.4
	c-4.8-3.5-10.6-5.4-16.5-5.4c-9,0-17.5,4.3-22.8,11.6c-2,2.8-3.5,5.9-4.4,9.2c-0.5,0-0.9,0-1.4,0c-9,0-17.5,4.3-22.8,11.6
	c-2.4,3.3-4,7-4.8,10.7c1.2,1.7,2.2,3.6,3,5.5c2.2,0.2,4.4,0.6,6.5,1.3c-0.2-4,0.9-8.1,3.4-11.6c3.4-4.7,8.9-7.5,14.6-7.5
	c1.5,0,2.9,0.2,4.3,0.5c0.4,0.1,0.8,0.1,1.2,0.1c1.1,0,2.1-0.3,3-1c1.2-0.9,2-2.2,2.1-3.7c0.2-3.4,1.4-6.6,3.4-9.3
	c3.4-4.7,8.9-7.5,14.6-7.5c3.8,0,7.5,1.2,10.6,3.5c4.3,3.1,7,8,7.4,13.3c0.1,1.5,0.9,2.8,2.1,3.7c0.9,0.6,1.9,1,3,1
	c0.4,0,0.8-0.1,1.2-0.1c1.4-0.3,2.9-0.5,4.3-0.5c3.8,0,7.5,1.2,10.6,3.5c8.1,5.9,9.8,17.2,4,25.2c-2,2.7-4.7,4.8-7.8,6.1
	c-1.4,0.6-2.4,1.7-2.9,3.1c-0.5,1.4-0.3,3,0.5,4.2c3.9,6.3,3.6,14.2-0.7,20.1c-3.4,4.7-8.9,7.4-14.6,7.4c-3.8,0-7.5-1.2-10.6-3.5
	c-1.2-0.9-2.2-1.8-3.2-3c-1-1.1-2.4-1.8-3.9-1.8s-2.9,0.7-3.9,1.8c-3.4,4.1-8.5,6.4-13.8,6.4c-2.6,0-5.1-0.6-7.4-1.6
	c-0.9,1.8-1.9,3.5-3.1,5.2c-0.8,1.1-1.7,2.2-2.7,3.2c4.1,2.2,8.6,3.3,13.2,3.3c6.5,0,12.7-2.2,17.7-6.2c0.4,0.3,0.7,0.6,1.1,0.8
	c4.8,3.5,10.6,5.4,16.5,5.4l0,0c9,0,17.5-4.3,22.8-11.6c5.7-7.8,6.9-17.8,3.5-26.6c2.8-1.9,5.3-4.2,7.4-7
	C358.2,123.8,355.5,106.2,342.9,97z"/>
<path fill="#C9B182" d="M235.6,288.9h-46c-2.9,0-5.3,2.4-5.3,5.3s2.4,5.3,5.3,5.3h46c2.9,0,5.3-2.4,5.3-5.3
	C240.9,291.3,238.5,288.9,235.6,288.9z"/>
<path fill="#C9B182" d="M250.3,235.6l-17,33.2h-15.4v-31.5h-10.6v31.5H192l-16-32.7h-11.8l19.7,40.3c0,0,0,0,0,0.1
	c0.1,0.2,0.2,0.4,0.4,0.6c0,0,0,0,0.1,0.1c0.1,0.2,0.2,0.3,0.4,0.4c0,0.1,0.1,0.1,0.1,0.2c0.1,0.1,0.3,0.3,0.4,0.4
	c0,0,0.1,0,0.1,0.1c0.2,0.1,0.3,0.2,0.5,0.3l0.1,0.1c0.2,0.1,0.3,0.2,0.5,0.3c0,0,0,0,0.1,0c0.2,0.1,0.4,0.2,0.6,0.2h0.1
	c0.2,0,0.4,0.1,0.5,0.1s0.1,0,0.2,0c0.2,0,0.4,0,0.6,0h48c0.2,0,0.4,0,0.6,0c0.1,0,0.1,0,0.2,0c0.2,0,0.3-0.1,0.5-0.1h0.1
	c0.2-0.1,0.4-0.1,0.6-0.2l0,0c0.2-0.1,0.4-0.2,0.6-0.3c0.1,0,0.1-0.1,0.2-0.1c0.1-0.1,0.3-0.2,0.4-0.3l0.1-0.1
	c0.2-0.1,0.3-0.3,0.4-0.4c0.1-0.1,0.1-0.1,0.1-0.1c0.1-0.1,0.2-0.3,0.3-0.4l0.1-0.1c0.1-0.2,0.2-0.4,0.4-0.6l0,0l21-40.9h-11.9
	V235.6z"/>
<path fill="#C9B182" d="M217.9,229.1v-1c0-2.9-2.4-5.3-5.3-5.3c-2.9,0-5.3,2.4-5.3,5.3v1H217.9z"/>
<path fill="#C9B182" d="M185.4,354.1c-0.8,0.2-1.5,0.2-2.1,0v6.2c0,2.9,2.4,5.3,5.3,5.3c2.9,0,5.3-2.4,5.3-5.3v-9.7
	C191,351.6,188.3,353.3,185.4,354.1z"/>
<path fill="#C9B182" d="M208,349.9c-0.3,0-0.5,0-0.7-0.1v10.5c0,2.9,2.4,5.3,5.3,5.3c2.9,0,5.3-2.4,5.3-5.3v-10.4H208z"/>
<path fill="#C9B182" d="M231.3,342.4c1.8-0.1,3.6,0.1,5.4,0.7c1.7,0.5,3.5,1.3,5.3,1.8v-30.5c0-2.9-2.4-5.3-5.3-5.3h-47.9
	c-2.9,0-5.3,2.4-5.3,5.3v31.9c3.7-1,6.9-2.9,10.6-3.8v-22.8h13.3v22.2c0.2,0,0.5-0.1,0.7-0.1h9.9v-22.1h13.3L231.3,342.4
	L231.3,342.4z"/>
<path fill="#C9B182" d="M236.8,351.7c-1.6-0.6-3.6-1.6-5.4-1.2c-0.1,0-0.1,0-0.2,0v9.9c0,2.9,2.4,5.3,5.3,5.3c2.9,0,5.3-2.4,5.3-5.3
	v-7.3C240.1,352.8,238.5,352.3,236.8,351.7z"/>
<path fill="#C9B182" d="M143.9,106.5c-4.8-3.5-10.5-5.3-16.4-5.3c-8.9,0-17.4,4.3-22.7,11.5c-4.4,6-6.2,13.4-5,20.8
	c1.2,7.4,5.1,13.9,11.2,18.3c4.8,3.5,10.5,5.3,16.4,5.3c8.9,0,17.4-4.3,22.7-11.5C159.1,133.1,156.4,115.6,143.9,106.5z
	 M141.9,139.6c-3.4,4.6-8.8,7.4-14.5,7.4c-3.8,0-7.4-1.2-10.5-3.4c-3.9-2.8-6.4-7-7.2-11.7c-0.7-4.7,0.4-9.4,3.2-13.3
	c3.4-4.6,8.8-7.4,14.5-7.4c3.8,0,7.4,1.2,10.5,3.4C145.9,120.4,147.7,131.7,141.9,139.6z"/>
<path fill="#C9B182" d="M257.9,290.5l-0.1-0.1c-0.1-0.1-0.1-0.1-0.2-0.2s-0.1-0.1-0.2-0.2s-0.1-0.1-0.2-0.1
	c-0.1-0.1-0.2-0.1-0.3-0.2c-0.1,0-0.1-0.1-0.2-0.1c-0.1-0.1-0.2-0.1-0.3-0.2c-0.1,0-0.1-0.1-0.2-0.1s-0.2-0.1-0.3-0.1
	s-0.1-0.1-0.2-0.1c-0.1,0-0.2-0.1-0.3-0.1s-0.2,0-0.2-0.1c-0.1,0-0.2,0-0.3-0.1c-0.1,0-0.2,0-0.3,0s-0.2,0-0.3,0s-0.2,0-0.3,0
	s-0.2,0-0.3,0s-0.2,0-0.2,0c-0.1,0-0.2,0-0.3,0s-0.1,0-0.2,0c0,0,0,0-0.1,0s-0.2,0-0.3,0.1c-0.1,0-0.1,0-0.2,0.1
	c-0.1,0-0.2,0.1-0.3,0.1s-0.1,0-0.2,0.1c-0.1,0-0.2,0.1-0.2,0.1c-0.1,0-0.2,0.1-0.2,0.1c-0.1,0-0.1,0.1-0.2,0.1
	c-0.1,0.1-0.2,0.1-0.3,0.2c-0.1,0-0.1,0.1-0.2,0.1c-0.1,0.1-0.2,0.1-0.3,0.2c-0.1,0-0.1,0.1-0.1,0.1c-0.1,0.1-0.2,0.2-0.3,0.2l0,0
	l-0.1,0.1c-0.1,0.1-0.1,0.1-0.2,0.2c-0.1,0.1-0.1,0.1-0.2,0.2c-0.1,0.1-0.1,0.1-0.2,0.2c-0.1,0.1-0.1,0.2-0.2,0.2
	c0,0.1-0.1,0.1-0.1,0.2c-0.1,0.1-0.1,0.2-0.1,0.3c0,0.1-0.1,0.1-0.1,0.2s-0.1,0.2-0.1,0.3c0,0.1-0.1,0.2-0.1,0.2
	c0,0.1-0.1,0.2-0.1,0.2c0,0.1,0,0.2-0.1,0.3c0,0.1,0,0.1,0,0.2s0,0.2,0,0.3c0,0.1,0,0.1,0,0.2s0,0.2,0,0.3v0.3c0,0.1,0,0.2,0,0.3
	c0,0.1,0,0.2,0,0.3c0,0.1,0,0.1,0,0.2l5.7,35.3c0.4,2.6,2.7,4.5,5.2,4.5c0.3,0,0.6,0,0.9-0.1c2.9-0.5,4.9-3.2,4.4-6.1l-3-18.8
	l11.8,12c1,1,2.4,1.6,3.8,1.6c1.3,0,2.7-0.5,3.7-1.5c2.1-2.1,2.1-5.4,0.1-7.5L257.9,290.5z"/>
<path fill="#C9B182" d="M152.6,169.9c-2.3,1.1-4.9,1.6-7.5,1.6l0,0c-3.8,0-7.5-1.2-10.6-3.5c-1.2-0.9-2.2-1.8-3.2-3
	c-1-1.1-2.4-1.8-3.8-1.8l0,0c-1.5,0-2.9,0.7-3.9,1.8c-3.4,4.1-8.5,6.4-13.8,6.4c-3.8,0-7.5-1.2-10.6-3.5c-7.6-5.5-9.7-16.1-4.7-24.1
	c0.8-1.3,1-2.8,0.5-4.2s-1.5-2.6-2.9-3.1c-1.4-0.6-2.6-1.3-3.8-2.1c-8.1-5.9-9.9-17.2-4-25.2c3.4-4.7,8.9-7.5,14.6-7.5
	c1.5,0,2.9,0.2,4.3,0.5c0.4,0.1,0.8,0.1,1.2,0.1c1.1,0,2.1-0.3,3-1c1.2-0.9,2-2.2,2.1-3.7c0.2-3.4,1.4-6.6,3.4-9.3
	c3.4-4.7,8.9-7.5,14.6-7.5c3.8,0,7.5,1.2,10.6,3.5c4.3,3.1,7,8,7.4,13.3c0.1,1.5,0.9,2.8,2.1,3.7c0.9,0.6,1.9,1,3,1
	c0.4,0,0.8,0,1.2-0.1c1.4-0.3,2.9-0.5,4.3-0.5c3.8,0,7.5,1.2,10.6,3.5c5.1,3.7,7.7,9.7,7.4,15.6c2.1-0.6,4.3-1.1,6.5-1.3
	c0.8-1.9,1.9-3.7,3-5.5c-1.4-6.6-5.1-12.7-11-17c-4.8-3.5-10.6-5.4-16.5-5.4c-0.5,0-0.9,0-1.4,0c-1.7-6.2-5.4-11.6-10.6-15.4
	c-4.8-3.5-10.6-5.4-16.5-5.4c-9,0-17.5,4.3-22.8,11.6c-2,2.8-3.5,5.9-4.4,9.2c-0.5,0-0.9,0-1.4,0c-9,0-17.5,4.3-22.8,11.6
	c-9.1,12.6-6.3,30.2,6.2,39.3c0.4,0.3,0.8,0.5,1.1,0.8c-4.4,11.6-0.6,25.2,9.8,32.8c4.8,3.5,10.6,5.4,16.5,5.4
	c6.5,0,12.7-2.2,17.7-6.2c0.4,0.3,0.7,0.6,1.1,0.8c4.8,3.5,10.6,5.4,16.5,5.4l0,0c4.7,0,9.2-1.2,13.2-3.3
	C156,175.7,154,172.9,152.6,169.9z"/>
<path fill="#C9B182" d="M185,100.2c4-2,7.5-4.9,10.1-8.6c0.7-0.9,1.3-1.9,1.8-2.9c-3-3.5-5.3-7.5-6.7-11.8c-0.3,3.1-1.4,6.1-3.3,8.7
	c-2.3,3.2-5.6,5.5-9.3,6.6C180.6,94.6,183,97.2,185,100.2z"/>
<path fill="#C9B182" d="M129.3,55.3c3.4-4.7,8.9-7.4,14.6-7.4c1.5,0,2.9,0.2,4.3,0.5c0.4,0.1,0.8,0.1,1.2,0.1c1.1,0,2.1-0.3,3-1
	c1.2-0.9,2-2.2,2.1-3.7c0.2-3.3,1.4-6.6,3.4-9.3c3.4-4.7,8.9-7.5,14.6-7.5c3.8,0,7.5,1.2,10.6,3.5c4.3,3.1,7,8,7.4,13.3
	c0.1,1.5,0.9,2.8,2.1,3.7c0.2,0.2,0.5,0.3,0.8,0.5c0.5-0.9,1.1-1.8,1.8-2.7c1.4-1.9,2.9-3.6,4.6-5.2c0.1-0.1,0.2-0.2,0.3-0.3
	c0,0,0-0.5-0.2-1.3c-0.1-0.3-0.2-0.8-0.2-0.8c-1.7-6.2-5.4-11.6-10.6-15.4c-4.8-3.5-10.6-5.4-16.5-5.4c-9,0-17.5,4.3-22.8,11.6
	c-2,2.8-3.5,5.9-4.4,9.2c-0.5,0-0.9,0-1.4,0c-9,0-17.5,4.3-22.8,11.6c-3.6,5-5.4,10.9-5.4,16.7c3.3-1.1,6.7-1.8,10.2-2
	C126.3,61,127.4,58,129.3,55.3z"/>
<path fill="#C9B182" d="M172.5,57.3c3.8,0,7.4,1.2,10.5,3.4c2.4,1.8,4.3,4,5.5,6.6c-0.2-4.5,0.5-9.1,2.1-13.4
	c-0.5-0.5-1.1-0.9-1.7-1.3c-4.8-3.5-10.5-5.4-16.4-5.4c-8.9,0-17.4,4.3-22.7,11.5c-2.2,3.1-3.8,6.5-4.6,10.1
	c0.9,0.6,1.9,1.2,2.8,1.8c2.5,1.8,4.8,4,6.7,6.4c-0.5-4.4,0.7-8.8,3.3-12.4C161.4,60.1,166.8,57.3,172.5,57.3z"/>
</svg>
