<?xml version="1.0" encoding="utf-8"?>
<!-- Generator: Adobe Illustrator 17.1.0, SVG Export Plug-In . SVG Version: 6.00 Build 0)  -->
<!DOCTYPE svg PUBLIC "-//W3C//DTD SVG 1.1//EN" "http://www.w3.org/Graphics/SVG/1.1/DTD/svg11.dtd">
<svg version="1.1" id="Слой_1" xmlns="http://www.w3.org/2000/svg" xmlns:xlink="http://www.w3.org/1999/xlink" x="0px" y="0px"
	 viewBox="0 0 425.2 425.2" enable-background="new 0 0 425.2 425.2" xml:space="preserve">
<g>
	<g>
		<defs>
			<rect id="SVGID_1_" x="-447.2" y="-277.1" width="1319.6" height="979.4"/>
		</defs>
		<clipPath id="SVGID_2_">
			<use xlink:href="#SVGID_1_"  overflow="visible"/>
		</clipPath>
		<path clip-path="url(#SVGID_2_)" d="M351.9,280c10.3-7.3,19.1-16.1,26.4-26.4c24.9-33.7,29.3-74.8,11.7-123.2l-2.9-7.3l-8.8-1.5
			c-14.7-1.5-27.9-1.5-42.5,1.5c-1.5-13.2-4.4-24.9-8.8-36.7l-1.5-2.9h-2.9c-26.4-2.9-49.9,5.9-63,13.2
			c-20.5-24.9-42.5-41.1-44-41.1l-4.4-4.4l-2.9,2.9c-16.1,11.7-30.8,26.4-44,41.1C151,88,129,79.2,101.2,82.1h-2.9l-1.5,4.4
			c-4.4,13.2-7.3,24.9-8.8,36.7c-14.7-2.9-27.9-2.9-42.5-1.5l-8.8,1.5l-2.9,7.3c-17.6,48.4-13.2,89.4,11.7,123.2
			c7.3,10.3,16.1,19.1,27.9,26.4c-39.6,16.1-67.4,49.9-68.9,52.8L0,338.7l4.4,2.9c2.9,1.5,48.4,32.3,105.6,32.3
			c52.8,0,95.3-36.7,102.6-44c8.8,7.3,51.3,44,102.6,44c57.2,0,102.6-30.8,104.1-32.3l4.4-2.9l-4.4-4.4
			C419.3,331.4,391.5,296.2,351.9,280 M376.8,133.4h1.5v1.5c16.1,44,13.2,82.1-10.3,111.4c-7.3,10.3-19.1,20.5-30.8,29.3
			c-7.3-1.5-14.7-2.9-22-2.9c-32.3,0-61.6,14.7-80.6,26.4c24.9-22,61.6-64.5,61.6-114.4c0-11.7-1.5-23.5-5.9-33.7
			C310.8,139.3,341.6,129,376.8,133.4 M316.7,93.8c2.9,10.3,5.9,20.5,7.3,32.3c-13.2,2.9-24.9,8.8-36.7,14.7
			c-5.9-13.2-13.2-24.9-20.5-35.2C278.6,98.2,296.2,92.4,316.7,93.8 M107,93.8c20.5-1.5,39.6,4.4,49.9,10.3
			c-8.8,11.7-16.1,23.5-22,36.7c-11.7-5.9-23.5-11.7-36.7-14.7C99.7,114.4,102.6,104.1,107,93.8 M54.2,246.3
			c-22-29.3-24.9-67.4-8.8-111.4v-1.5h1.5c35.2-4.4,66,7.3,85,17.6c-4.4,11.7-5.9,23.5-5.9,33.7c0,46.9,33.7,88,58.6,111.4
			c-19.1-11.7-45.5-23.5-74.8-23.5c-7.3,0-16.1,1.5-23.5,2.9C73.3,266.8,63,258.1,54.2,246.3 M110,362.2
			c-42.5,0-79.2-19.1-92.4-26.4c11.7-13.2,49.9-49.9,92.4-49.9s79.2,27.9,92.4,38.1C189.1,334.3,152.5,362.2,110,362.2 M211.1,305
			c-14.7-11.7-74.8-61.6-74.8-120.2s60.1-108.5,74.8-120.2c14.7,11.7,74.8,61.6,74.8,120.2S225.8,293.2,211.1,305 M315.2,362.2
			c-42.5,0-79.2-27.9-92.4-38.1c13.2-10.3,49.9-38.1,92.4-38.1s80.6,36.7,92.4,49.9C394.4,343.1,357.8,362.2,315.2,362.2"/>
	</g>
</g>
</svg>
