<?xml version="1.0" encoding="utf-8"?>
<!-- Generator: Adobe Illustrator 17.1.0, SVG Export Plug-In . SVG Version: 6.00 Build 0)  -->
<!DOCTYPE svg PUBLIC "-//W3C//DTD SVG 1.1//EN" "http://www.w3.org/Graphics/SVG/1.1/DTD/svg11.dtd">
<svg version="1.1" id="Слой_1" xmlns="http://www.w3.org/2000/svg" xmlns:xlink="http://www.w3.org/1999/xlink" x="0px" y="0px"
	 viewBox="0 0 425.2 425.2" enable-background="new 0 0 425.2 425.2" xml:space="preserve">
<g>
	<g>
		<defs>
			<rect id="SVGID_1_" x="-281.2" y="-139.9" width="987.6" height="705"/>
		</defs>
		<clipPath id="SVGID_2_">
			<use xlink:href="#SVGID_1_"  overflow="visible"/>
		</clipPath>
		<path clip-path="url(#SVGID_2_)" d="M356.6,153.6h-61.7v-34.3h-107c-16.5-35.7-50.7-57.6-89.2-57.6C43.9,61.7,0,105.6,0,159.1
			c0,32.9,16.5,61.7,41.1,79.6v90.5H70c2.7,19.2,19.2,34.3,39.8,34.3s37-15.1,39.8-32.9h157.7c2.7,19.2,19.2,32.9,39.8,32.9
			s37-15.1,39.8-32.9h38.4v-87.8L356.6,153.6z M390.9,218.1h-60.4v-28.8H369L390.9,218.1z M12.3,159.1c0-48,38.4-86.4,86.4-86.4
			s86.4,38.4,86.4,86.4s-38.4,86.4-86.4,86.4S12.3,207.1,12.3,159.1 M109.7,351.1c-15.1,0-28.8-12.3-28.8-28.8
			c0-15.1,12.3-27.4,28.8-27.4s28.8,12.3,28.8,28.8C137.2,338.8,124.8,351.1,109.7,351.1 M283.9,318.2H148.1
			c-2.7-19.2-19.2-34.3-39.8-34.3S72.7,299,68.6,318.2H53.5v-72.7c13.7,6.9,28.8,11,45.3,11c19.2,0,38.4-5.5,54.9-16.5v1.4h107
			v-12.3h-93.3c8.2-8.2,16.5-17.8,21.9-28.8H262v-11h-70c2.7-9.6,4.1-19.2,4.1-28.8h63.1v-12.3h-63.1c0-5.5-1.4-12.3-4.1-17.8h90.5
			L283.9,318.2L283.9,318.2z M345.6,351.1c-15.1,0-28.8-12.3-28.8-28.8c0-16.5,12.3-28.8,28.8-28.8c16.5,0,28.8,12.3,28.8,28.8
			C374.5,338.8,360.7,351.1,345.6,351.1L345.6,351.1 M384.1,318.2c-2.7-19.2-19.2-34.3-39.8-34.3s-37,15.1-39.8,34.3h-9.6V166h56.2
			l8.2,12.3h-41.1v53.5h82.3l12.3,16.5V262c-9.6,2.7-17.8,12.3-17.8,21.9c0,11,8.2,20.6,17.8,21.9v13.7L384.1,318.2L384.1,318.2z
			 M412.9,273v20.6c-4.1-2.7-5.5-5.5-5.5-9.6S410.1,274.3,412.9,273"/>
	</g>
</g>
<g>
	<g>
		<defs>
			<rect id="SVGID_3_" x="-281.2" y="-139.9" width="987.6" height="705"/>
		</defs>
		<clipPath id="SVGID_4_">
			<use xlink:href="#SVGID_3_"  overflow="visible"/>
		</clipPath>
		<path clip-path="url(#SVGID_4_)" d="M98.8,172.8c6.9,0,12.3-5.5,12.3-12.3c0-4.1-1.4-6.9-4.1-8.2V94.6H94.6v54.9
			c-5.5,1.4-8.2,6.9-8.2,11c0,1.4,0,1.4,0,2.7l-26.1,27.4l8.2,8.2L96,171.5C96,172.8,97.4,172.8,98.8,172.8 M76.8,271.6h182.4v12.3
			H76.8V271.6z"/>
	</g>
</g>
</svg>
