<?xml version="1.0" encoding="utf-8"?>
<!-- Generator: Adobe Illustrator 17.1.0, SVG Export Plug-In . SVG Version: 6.00 Build 0)  -->
<!DOCTYPE svg PUBLIC "-//W3C//DTD SVG 1.1//EN" "http://www.w3.org/Graphics/SVG/1.1/DTD/svg11.dtd">
<svg version="1.1" id="Слой_1" xmlns="http://www.w3.org/2000/svg" xmlns:xlink="http://www.w3.org/1999/xlink" x="0px" y="0px"
	 viewBox="0 0 425.2 425.2" enable-background="new 0 0 425.2 425.2" xml:space="preserve">
<g>
	<g>
		<defs>
			<rect id="SVGID_1_" x="-478.7" y="-337" width="1382.7" height="1099.2"/>
		</defs>
		<clipPath id="SVGID_2_">
			<use xlink:href="#SVGID_1_"  overflow="visible"/>
		</clipPath>
		<path clip-path="url(#SVGID_2_)" d="M281.9,163.8c-1.6,0-4.7-1.6-4.7-3.1L207.9,40.9c-1.6-1.6-1.6-4.7,0-6.3
			c1.6-1.6,3.1-3.1,4.7-3.1h138.6c1.6,0,4.7,1.6,4.7,3.1c1.6,1.6,1.6,4.7,0,6.3l-69.3,119.7C286.6,162.2,285,163.8,281.9,163.8
			 M223.6,44.1l58.3,100.8l58.3-100.8C340.2,44.1,223.6,44.1,223.6,44.1z"/>
	</g>
</g>
<g>
	<g>
		<defs>
			<rect id="SVGID_3_" x="-478.7" y="-337" width="1382.7" height="1099.2"/>
		</defs>
		<clipPath id="SVGID_4_">
			<use xlink:href="#SVGID_3_"  overflow="visible"/>
		</clipPath>
		<path clip-path="url(#SVGID_4_)" d="M143.3,163.8c-1.6,0-3.1-1.6-4.7-3.1L69.3,40.9c-1.6-1.6-1.6-4.7,0-6.3c0-1.6,3.1-3.1,4.7-3.1
			h138.6c1.6,0,4.7,1.6,4.7,3.1c1.6,1.6,1.6,4.7,0,6.3l-67.7,119.7C148,162.2,146.5,163.8,143.3,163.8L143.3,163.8z M85,44.1
			l58.3,100.8l58.3-100.8C201.6,44.1,85,44.1,85,44.1z"/>
	</g>
</g>
<g>
	<g>
		<defs>
			<rect id="SVGID_5_" x="-478.7" y="-337" width="1382.7" height="1099.2"/>
		</defs>
		<clipPath id="SVGID_6_">
			<use xlink:href="#SVGID_5_"  overflow="visible"/>
		</clipPath>
		<path clip-path="url(#SVGID_6_)" d="M143.3,163.8H6.3c-1.6,0-4.7-1.6-4.7-3.1c-1.6-1.6-1.6-4.7,0-6.3L69.3,34.6
			c0-1.6,3.1-3.1,4.7-3.1c1.6,0,4.7,1.6,4.7,3.1L148,152.8c1.6,1.6,1.6,3.1,1.6,4.7C149.6,160.6,148,163.8,143.3,163.8 M17.3,151.2
			h116.5L74,50.4L17.3,151.2z"/>
	</g>
</g>
<g>
	<g>
		<defs>
			<rect id="SVGID_7_" x="-478.7" y="-337" width="1382.7" height="1099.2"/>
		</defs>
		<clipPath id="SVGID_8_">
			<use xlink:href="#SVGID_7_"  overflow="visible"/>
		</clipPath>
		<path clip-path="url(#SVGID_8_)" d="M281.9,163.8H143.3c-1.6,0-3.1-1.6-4.7-3.1c-1.6-1.6-1.6-4.7,0-6.3l69.3-119.7
			c1.6-1.6,3.1-3.1,4.7-3.1c1.6,0,4.7,1.6,4.7,3.1l69.3,118.1c1.6,1.6,1.6,3.1,1.6,4.7C288.2,160.6,286.6,163.8,281.9,163.8
			 M154.3,151.2h116.5L212.6,50.4L154.3,151.2L154.3,151.2z"/>
	</g>
</g>
<g>
	<g>
		<defs>
			<rect id="SVGID_9_" x="-478.7" y="-337" width="1382.7" height="1099.2"/>
		</defs>
		<clipPath id="SVGID_10_">
			<use xlink:href="#SVGID_9_"  overflow="visible"/>
		</clipPath>
		<path clip-path="url(#SVGID_10_)" d="M418.9,163.8h-137c-1.6,0-4.7-1.6-4.7-3.1c0-1.6-1.6-4.7,0-6.3l69.3-119.7
			c0-1.6,3.1-3.1,4.7-3.1c1.6,0,4.7,1.6,4.7,3.1l67.7,118.1c1.6,1.6,1.6,3.1,1.6,4.7C425.2,160.6,422.1,163.8,418.9,163.8
			 M292.9,151.2h115L351.2,50.4L292.9,151.2L292.9,151.2z"/>
	</g>
</g>
<g>
	<g>
		<defs>
			<rect id="SVGID_11_" x="-478.7" y="-337" width="1382.7" height="1099.2"/>
		</defs>
		<clipPath id="SVGID_12_">
			<use xlink:href="#SVGID_11_"  overflow="visible"/>
		</clipPath>
		<path clip-path="url(#SVGID_12_)" d="M214.2,393.7c-1.6,0-3.1,0-4.7-1.6L1.6,162.2C0,159.1,0,157.5,0,154.3
			c1.6-3.1,3.1-4.7,6.3-4.7h412.6c3.1,0,4.7,1.6,6.3,4.7c0,3.1,0,4.7-1.6,7.9L218.9,392.1C217.3,393.7,215.7,393.7,214.2,393.7z
			 M20.5,163.8L214.2,378l190.6-214.2H20.5"/>
	</g>
</g>
<g>
	<g>
		<defs>
			<rect id="SVGID_13_" x="-478.7" y="-337" width="1382.7" height="1099.2"/>
		</defs>
		<clipPath id="SVGID_14_">
			<use xlink:href="#SVGID_13_"  overflow="visible"/>
		</clipPath>
		<path clip-path="url(#SVGID_14_)" d="M214.2,393.7c-3.1,0-4.7-1.6-6.3-4.7l-69.3-229.9c-1.6-3.1,0-6.3,3.1-7.9s6.3,0,7.9,4.7
			l69.3,229.9c1.6,3.1,0,6.3-3.1,7.9H214.2"/>
	</g>
</g>
<g>
	<g>
		<defs>
			<rect id="SVGID_15_" x="-478.7" y="-337" width="1382.7" height="1099.2"/>
		</defs>
		<clipPath id="SVGID_16_">
			<use xlink:href="#SVGID_15_"  overflow="visible"/>
		</clipPath>
		<path clip-path="url(#SVGID_16_)" d="M214.2,393.7h-1.6c-3.1-1.6-4.7-4.7-4.7-7.9l67.7-229.9c1.6-3.1,4.7-4.7,7.9-4.7
			c3.1,1.6,4.7,4.7,4.7,7.9L220.5,389C218.9,392.1,217.3,393.7,214.2,393.7"/>
	</g>
</g>
</svg>
