<?xml version="1.0" encoding="utf-8"?>
<!-- Generator: Adobe Illustrator 17.0.0, SVG Export Plug-In . SVG Version: 6.00 Build 0)  -->
<!DOCTYPE svg PUBLIC "-//W3C//DTD SVG 1.1//EN" "http://www.w3.org/Graphics/SVG/1.1/DTD/svg11.dtd">
<svg version="1.1" xmlns="http://www.w3.org/2000/svg" xmlns:xlink="http://www.w3.org/1999/xlink" x="0px" y="0px"
	 width="416.32px" height="417.258px" viewBox="0 0 416.32 417.258" enable-background="new 0 0 416.32 417.258"
	 xml:space="preserve">
<g id="background_1_" display="none">
	<path id="background" display="inline" fill="#FAFAFA" d="M827.844,741.446H-412.68c-10.968,0-19.86-8.892-19.86-19.86V-305.556
		c0-10.968,8.892-19.86,19.86-19.86H827.844c10.968,0,19.86,8.892,19.86,19.86V721.586
		C847.704,732.554,838.812,741.446,827.844,741.446z"/>
</g>
<g id="WhatsApp_Logo">
	<g id="WA_Logo">
		<g>
			<path fill-rule="evenodd" clip-rule="evenodd" fill="#333333" d="M356.086,61.163C316.711,21.742,264.347,0.023,208.557,0
				C93.604,0,0.046,93.552,0,208.54c-0.015,36.758,9.588,72.635,27.839,104.264L-1.749,420.875l110.558-29.002
				c30.461,16.615,64.759,25.373,99.663,25.385h0.085c0.007,0-0.006,0,0.001,0c114.941,0,208.507-93.561,208.554-208.552
				C417.135,152.981,395.462,100.583,356.086,61.163z M208.559,382.037h-0.071c-31.104-0.012-61.612-8.369-88.226-24.162
				l-6.33-3.757l-65.607,17.21l17.511-63.966l-4.122-6.559c-17.352-27.598-26.516-59.496-26.503-92.25
				c0.038-95.573,77.8-173.329,173.415-173.329c46.3,0.016,89.822,18.07,122.551,50.836c32.727,32.764,50.74,76.316,50.723,122.634
				C381.862,304.274,304.101,382.037,208.559,382.037z M303.641,252.212c-5.211-2.608-30.831-15.213-35.608-16.954
				c-4.776-1.738-8.25-2.607-11.724,2.608c-3.473,5.216-13.46,16.955-16.501,20.433c-3.039,3.477-6.079,3.913-11.289,1.304
				c-5.211-2.608-22.002-8.11-41.906-25.865c-15.492-13.818-25.95-30.882-28.99-36.1c-3.04-5.216-0.324-8.036,2.285-10.635
				c2.345-2.335,5.212-6.087,7.817-9.13c2.606-3.042,3.474-5.217,5.211-8.693c1.737-3.479,0.869-6.522-0.434-9.13
				c-1.303-2.608-11.724-28.259-16.067-38.694c-4.23-10.16-8.526-8.784-11.725-8.945c-3.036-0.151-6.514-0.183-9.988-0.183
				c-3.474,0-9.12,1.304-13.896,6.52c-4.776,5.218-18.238,17.825-18.238,43.473c0,25.651,18.672,50.429,21.278,53.907
				c2.605,3.479,36.745,56.113,89.02,78.685c12.433,5.369,22.14,8.576,29.707,10.977c12.484,3.967,23.844,3.407,32.823,2.065
				c10.012-1.495,30.831-12.605,35.174-24.777c4.341-12.175,4.341-22.608,3.039-24.781
				C312.326,256.125,308.852,254.821,303.641,252.212z"/>
		</g>
	</g>
</g>
</svg>
