<?xml version="1.0" encoding="utf-8"?>
<!-- Generator: Adobe Illustrator 17.1.0, SVG Export Plug-In . SVG Version: 6.00 Build 0)  -->
<!DOCTYPE svg PUBLIC "-//W3C//DTD SVG 1.1//EN" "http://www.w3.org/Graphics/SVG/1.1/DTD/svg11.dtd">
<svg version="1.1" id="Capa_1" xmlns="http://www.w3.org/2000/svg" xmlns:xlink="http://www.w3.org/1999/xlink" x="0px" y="0px"
	 viewBox="0 0 425.2 425.2" enable-background="new 0 0 425.2 425.2" xml:space="preserve">
<g>
	<g>
		<path d="M0,107.5v23h402.2v-23c0-11.2-9.1-20.9-20.2-20.9H20.2C9.1,86.6,0,96.4,0,107.5z"/>
		<path d="M251.3,295.3v-44c0-8.4,6.3-14.7,14.7-14.7h136.1V185H0v132.7c0,11.2,9.1,20.9,20.2,20.9h361c11.2,0,20.2-9.1,20.2-20.9
			V310H266C257.6,309.3,251.3,303,251.3,295.3z"/>
		<polygon points="266,251.3 266,295.3 402.2,295.3 425.2,295.3 425.2,251.3 402.2,251.3 		"/>
	</g>
</g>
</svg>
