<?xml version="1.0" encoding="UTF-8" standalone="no"?>
<!-- Generator: Adobe Illustrator 20.1.0, SVG Export Plug-In . SVG Version: 6.00 Build 0)  -->

<svg
   xmlns:dc="http://purl.org/dc/elements/1.1/"
   xmlns:cc="http://creativecommons.org/ns#"
   xmlns:rdf="http://www.w3.org/1999/02/22-rdf-syntax-ns#"
   xmlns:svg="http://www.w3.org/2000/svg"
   xmlns="http://www.w3.org/2000/svg"
   xmlns:sodipodi="http://sodipodi.sourceforge.net/DTD/sodipodi-0.dtd"
   xmlns:inkscape="http://www.inkscape.org/namespaces/inkscape"
   version="1.1"
   id="Слой_1"
   x="0px"
   y="0px"
   viewBox="0 0 73.219467 90.099998"
   xml:space="preserve"
   inkscape:version="0.91 r13725"
   sodipodi:docname="personal-bouquet.svg"
   width="73.219467"
   height="90.099998"><metadata
     id="metadata13"><rdf:RDF><cc:Work
         rdf:about=""><dc:format>image/svg+xml</dc:format><dc:type
           rdf:resource="http://purl.org/dc/dcmitype/StillImage" /><dc:title></dc:title></cc:Work></rdf:RDF></metadata><defs
     id="defs11" /><sodipodi:namedview
     pagecolor="#ffffff"
     bordercolor="#666666"
     borderopacity="1"
     objecttolerance="10"
     gridtolerance="10"
     guidetolerance="10"
     inkscape:pageopacity="0"
     inkscape:pageshadow="2"
     inkscape:window-width="640"
     inkscape:window-height="480"
     id="namedview9"
     showgrid="false"
     fit-margin-top="0"
     fit-margin-left="0"
     fit-margin-right="0"
     fit-margin-bottom="0"
     inkscape:zoom="2.3482587"
     inkscape:cx="36.595467"
     inkscape:cy="44.85"
     inkscape:window-x="71"
     inkscape:window-y="34"
     inkscape:window-maximized="0"
     inkscape:current-layer="Слой_1" /><path
     d="m 29.195467,67 c 0,0.1 0.1,0.1 0.1,0.2 0,0 0,0 0,0 0,0 0.1,0.1 0.1,0.1 0,0 0,0 0,0 0,0 0.1,0.1 0.1,0.1 0,0 0,0 0,0 0,0 0.1,0.1 0.1,0.1 0,0 0,0 0,0 0,0 0.1,0 0.1,0.1 0,0 0,0 0,0 0.1,0 0.1,0 0.2,0.1 0,0 0,0 0,0 0,0 0.1,0 0.1,0 0,0 0,0 0,0 0.1,0 0.1,0 0.2,0 0,0 0,0 0,0 0,0 0,0 0,0 l 12.4,0 c 0,0 0,0 0,0 0,0 0,0 0,0 0.1,0 0.1,0 0.2,0 0,0 0,0 0,0 0,0 0.1,0 0.1,0 0,0 0,0 0,0 0.1,0 0.1,0 0.2,-0.1 0,0 0,0 0,0 0,0 0.1,0 0.1,-0.1 0,0 0,0 0,0 0,0 0.1,0 0.1,-0.1 0,0 0,0 0,0 0,0 0.1,-0.1 0.1,-0.1 0,0 0,0 0,0 0,0 0.1,-0.1 0.1,-0.1 0,0 0,0 0,0 0,0 0.1,-0.1 0.1,-0.1 0,0 0,0 0,0 l 10.2,-19.9 c 0.3,-0.7 0.1,-1.5 -0.6,-1.8 -0.7,-0.3 -1.5,-0.1 -1.8,0.6 l -9.5,19 -4,0 0,-10.5 c 0,-0.8 -0.6,-1.4 -1.4,-1.4 -0.8,0 -1.4,0.6 -1.4,1.4 l 0,10.5 -4,0 -9.3,-19.1 c -0.3,-0.7 -1.2,-1 -1.8,-0.6 -0.7,0.3 -1,1.2 -0.6,1.8 l 9.8,19.9 c 0,0 0,0 0,0 z m 13.6,8.4 -12.4,0 c -0.8,0 -1.4,0.6 -1.4,1.4 l 0,11.9 c 0,0.8 0.6,1.4 1.4,1.4 0.8,0 1.4,-0.6 1.4,-1.4 l 0,-10.6 3.4,0 0,10.5 c 0,0.8 0.6,1.4 1.4,1.4 0.8,0 1.4,-0.6 1.4,-1.4 l 0,-10.5 3.4,0 0,10.5 c 0,0.8 0.6,1.4 1.4,1.4 0.8,0 1.4,-0.6 1.4,-1.4 l 0,-11.8 c 0,-0.8 -0.7,-1.4 -1.4,-1.4 z m -0.3,-5.2 -11.8,0 c -0.8,0 -1.4,0.6 -1.4,1.4 0,0.8 0.6,1.4 1.4,1.4 l 11.9,0 c 0.8,0 1.4,-0.6 1.4,-1.4 -0.1,-0.8 -0.7,-1.4 -1.5,-1.4 z m 5.8,0.4 c 0,0 0,0 0,0 0,0 -0.1,-0.1 0,0 -0.1,-0.1 -0.1,-0.1 -0.1,-0.1 0,0 0,0 0,0 0,0 0,0 -0.1,0 0,0 0,0 0,0 0,0 0,0 -0.1,0 0,0 0,0 0,0 0,0 0,0 -0.1,0 0,0 0,0 -0.1,0 0,0 0,0 -0.1,0 0,0 0,0 -0.1,0 0,0 0,0 -0.1,0 0,0 0,0 -0.1,0 0,0 0,0 -0.1,0 -0.1,0 0,0 -0.1,0 0,0 0,0 -0.1,0 0,0 0,0 -0.1,0 0,0 -0.1,0 -0.1,0 0,0 0,0 0,0 0,0 0,0 0,0 0,0 -0.1,0 -0.1,0 0,0 0,0 -0.1,0 0,0 0,0 -0.1,0 0,0 0,0 -0.1,0 0,0 0,0 -0.1,0 -0.1,0 0,0 -0.1,0 0,0 0,0 -0.1,0 0,0 0,0 -0.1,0 0,0 0,0 0,0 0,0 0,0 -0.1,0.1 0,0 0,0 0,0 0,0 0,0 -0.1,0.1 0,0 0,0 0,0 0,0 0,0 0,0 0,0 0,0 -0.1,0.1 0,0 0,0 0,0.1 0,0 0,0 0,0.1 0,0 0,0 0,0.1 0,0 0,0 0,0.1 0,0 0,0 0,0.1 0,0 0,0 0,0.1 0,0 0,0 0,0.1 0,0 0,0 0,0.1 0,0 0,0 0,0.1 0,0 0,0 0,0.1 0,0 0,0 0,0.1 0,0 0,0 0,0.1 0,0 0,0 0,0.1 0,0 0,0 0,0.1 0,0 0,0 0,0.1 0,0 0,0 0,0.1 0,0 0,0.1 0,0.1 0,0 0,0 0,0 l 1.5,9.1 c 0.1,0.7 0.7,1.2 1.4,1.2 0.1,0 0.1,0 0.2,0 0.7,-0.1 1.3,-0.8 1.1,-1.6 l -0.8,-4.9 3,3.1 c 0.3,0.3 0.6,0.4 1,0.4 0.3,0 0.7,-0.1 1,-0.4 0.5,-0.5 0.5,-1.4 0,-1.9 l -5.9,-6.9 z m -18.8,-49.1 c 1,-0.5 1.9,-1.3 2.6,-2.2 0.2,-0.2 0.3,-0.5 0.5,-0.7 -0.8,-0.9 -1.4,-1.9 -1.7,-3 -0.1,0.8 -0.4,1.6 -0.9,2.3 -0.6,0.8 -1.4,1.4 -2.4,1.7 0.7,0.4 1.4,1.1 1.9,1.9 z m -3.2,-11.1 c 1,0 1.9,0.3 2.7,0.9 0.6,0.5 1.1,1 1.4,1.7 0,-1.2 0.1,-2.3 0.5,-3.5 -0.1,-0.1 -0.3,-0.2 -0.4,-0.3 -1.2,-0.9 -2.7,-1.4 -4.2,-1.4 -2.3,0 -4.5,1.1 -5.8,3 -0.6,0.8 -1,1.7 -1.2,2.6 0.2,0.1 0.5,0.3 0.7,0.5 0.6,0.5 1.2,1 1.7,1.6 -0.1,-1.1 0.2,-2.3 0.9,-3.2 0.8,-1.2 2.2,-1.9 3.7,-1.9 z m -11.2,-0.5 c 0.9,-1.2 2.3,-1.9 3.8,-1.9 0.4,0 0.7,0 1.1,0.1 0.1,0 0.2,0 0.3,0 0.3,0 0.5,-0.1 0.8,-0.2 0.3,-0.2 0.5,-0.6 0.5,-1 0.1,-0.9 0.4,-1.7 0.9,-2.4 0.9,-1.2 2.3,-1.9 3.8,-1.9 1,0 1.9,0.3 2.7,0.9 1.1,0.8 1.8,2.1 1.9,3.4 0,0.4 0.2,0.7 0.5,1 0.1,0 0.1,0.1 0.2,0.1 0.1,-0.2 0.3,-0.5 0.5,-0.7 0.4,-0.5 0.8,-0.9 1.2,-1.3 0,0 0.1,-0.1 0.1,-0.1 0,0 0,-0.1 -0.1,-0.3 0,-0.1 0,-0.2 0,-0.2 -0.4,-1.6 -1.4,-3 -2.7,-4 -1.3,-0.9 -2.8,-1.4 -4.3,-1.4 -2.3,0 -4.5,1.1 -5.9,3 -0.5,0.7 -0.9,1.5 -1.1,2.4 -0.1,0 -0.2,0 -0.4,0 -2.3,0 -4.5,1.1 -5.9,3 -0.9,1.3 -1.4,2.8 -1.4,4.3 0.8,-0.3 1.7,-0.5 2.6,-0.5 0.1,-0.8 0.4,-1.6 0.9,-2.3 z m 3.8,13.2 c -1.2,-0.9 -2.7,-1.4 -4.2,-1.4 -2.3,0 -4.5,1.1 -5.8000005,3 -1.1,1.6 -1.6,3.5 -1.3,5.4 0.3,1.9 1.3,3.6 2.9000005,4.7 1.2,0.9 2.7,1.4 4.2,1.4 2.3,0 4.5,-1.1 5.8,-3 2.3,-3.2 1.6,-7.8 -1.6,-10.1 z m -0.5,8.6 c -0.9,1.2 -2.3,1.9 -3.7,1.9 -1,0 -1.9,-0.3 -2.7,-0.9 -1,-0.7 -1.7,-1.8 -1.8,-3 -0.2000005,-1.2 0.1,-2.4 0.8,-3.4 0.9,-1.2 2.3,-1.9 3.7,-1.9 1,0 1.9,0.3 2.7,0.9 2,1.4 2.4,4.3 1,6.4 z m 35.5,-18.2 c -0.4,-1.7 -1.3,-3.2 -2.8,-4.3 -1.2,-0.9 -2.7,-1.4 -4.2,-1.4 -2.3,0 -4.5,1.1 -5.8,3 -1.1,1.6 -1.6,3.5 -1.3,5.4 0.3,1.9 1.3,3.6 2.9,4.7 0.4,0.3 0.7,0.5 1.1,0.7 0.1,-0.1 0.1,-0.2 0.2,-0.3 0.5,-0.7 1.1,-1.3 1.7,-1.8 -0.5,-0.1 -1,-0.4 -1.5,-0.7 -1,-0.7 -1.7,-1.8 -1.8,-3 -0.2,-1.2 0.1,-2.4 0.8,-3.4 0.9,-1.2 2.3,-1.9 3.7,-1.9 1,0 1.9,0.3 2.7,0.9 1.4,1 2.1,2.8 1.8,4.4 0.7,-1 1.5,-1.7 2.5,-2.3 z m -18.7,5 c 0.1,0.1 0.2,0.1 0.3,0.2 -0.4,1 -0.5,2 -0.4,3.1 0.5,-0.1 1.1,-0.2 1.6,-0.2 0.3,0 0.7,0 1,0.1 -0.1,-1 0.1,-2 0.7,-2.8 0.2,-0.3 0.3,-0.7 0.1,-1.1 -0.2,-0.4 -0.4,-0.7 -0.7,-0.8 -0.3,-0.1 -0.7,-0.3 -1,-0.5 -2.1,-1.5 -2.5,-4.4 -1,-6.5 0.9,-1.2 2.3,-1.9 3.8,-1.9 0.4,0 0.7,0 1.1,0.1 0.1,0 0.2,0 0.3,0 0.3,0 0.5,-0.1 0.8,-0.2 0.3,-0.2 0.5,-0.6 0.5,-1 0.1,-0.9 0.4,-1.7 0.9,-2.4 0.9,-1.2 2.3,-1.9 3.8,-1.9 1,0 1.9,0.3 2.7,0.9 1.1,0.8 1.8,2.1 1.9,3.4 0,0.4 0.2,0.7 0.5,1 0.2,0.2 0.5,0.2 0.8,0.2 0.1,0 0.2,0 0.3,0 0.4,-0.1 0.7,-0.1 1.1,-0.1 1,0 1.9,0.3 2.7,0.9 1.1,0.8 1.8,2 1.9,3.3 0.9,0 1.8,0.2 2.6,0.5 0,-2.2 -1,-4.4 -3,-5.9 -1.3,-0.9 -2.7,-1.4 -4.3,-1.4 -0.1,0 -0.2,0 -0.4,0 -0.4,-1.6 -1.4,-3 -2.7,-4 -1.3,-1 -2.7,-1.5 -4.3,-1.5 -2.3,0 -4.5,1.1 -5.9,3 -0.5,0.7 -0.9,1.5 -1.1,2.4 -0.1,0 -0.2,0 -0.4,0 -2.3,0 -4.5,1.1 -5.9,3 -2.3,3.2 -1.6,7.8 1.7,10.1 z m 19.1,16.3 c 1.2,0.9 2.7,1.4 4.2,1.4 2.3,0 4.5,-1.1 5.8,-3 1.1,-1.6 1.6,-3.5 1.3,-5.4 -0.3,-1.9 -1.3,-3.6 -2.9,-4.7 -1.2,-0.9 -2.7,-1.4 -4.2,-1.4 -2.3,0 -4.5,1.1 -5.8,3 -1.1,1.6 -1.6,3.5 -1.3,5.4 0.4,1.9 1.4,3.5 2.9,4.7 z m 0.6,-8.6 c 0.9,-1.2 2.3,-1.9 3.7,-1.9 1,0 1.9,0.3 2.7,0.9 1,0.7 1.7,1.8 1.8,3 0.2,1.2 -0.1,2.4 -0.8,3.4 -0.9,1.2 -2.3,1.9 -3.7,1.9 -1,0 -1.9,-0.3 -2.7,-0.9 -1,-0.7 -1.7,-1.8 -1.8,-3 -0.3,-1.2 0,-2.4 0.8,-3.4 z m 15.3,-5.5 c -1.3,-0.9 -2.7,-1.4 -4.3,-1.4 -0.1,0 -0.2,0 -0.4,0 -0.4,-1.6 -1.4,-3 -2.7,-4 -1.3,-0.9 -2.7,-1.4 -4.3,-1.4 -2.3,0 -4.5,1.1 -5.9,3 -0.5,0.7 -0.9,1.5 -1.1,2.4 -0.1,0 -0.2,0 -0.4,0 -2.3,0 -4.5,1.1 -5.9,3 -0.6,0.9 -1,1.8 -1.2,2.8 0.3,0.4 0.6,0.9 0.8,1.4 0.6,0.1 1.1,0.2 1.7,0.3 -0.1,-1 0.2,-2.1 0.9,-3 0.9,-1.2 2.3,-1.9 3.8,-1.9 0.4,0 0.7,0 1.1,0.1 0.1,0 0.2,0 0.3,0 0.3,0 0.5,-0.1 0.8,-0.3 0.3,-0.2 0.5,-0.6 0.5,-1 0.1,-0.9 0.4,-1.7 0.9,-2.4 0.9,-1.2 2.3,-1.9 3.8,-1.9 1,0 1.9,0.3 2.7,0.9 1.1,0.8 1.8,2.1 1.9,3.4 0,0.4 0.2,0.7 0.5,1 0.2,0.2 0.5,0.2 0.8,0.2 0.1,0 0.2,0 0.3,0 0.4,-0.1 0.7,-0.1 1.1,-0.1 1,0 1.9,0.3 2.7,0.9 2.1,1.5 2.5,4.4 1,6.5 -0.5,0.7 -1.2,1.3 -2,1.6 -0.4,0.1 -0.6,0.4 -0.7,0.8 -0.1,0.4 -0.1,0.8 0.1,1.1 1,1.6 0.9,3.7 -0.2,5.2 -0.9,1.2 -2.3,1.9 -3.8,1.9 l 0,0 c -1,0 -1.9,-0.3 -2.7,-0.9 -0.3,-0.2 -0.6,-0.5 -0.8,-0.8 -0.2,-0.3 -0.6,-0.5 -1,-0.5 l 0,0 c -0.4,0 -0.7,0.2 -1,0.5 -0.9,1.1 -2.2,1.7 -3.6,1.7 -0.7,0 -1.3,-0.1 -1.9,-0.4 -0.2,0.5 -0.5,0.9 -0.8,1.3 -0.2,0.3 -0.4,0.6 -0.7,0.8 1,0.6 2.2,0.9 3.4,0.9 1.7,0 3.3,-0.6 4.6,-1.6 0.1,0.1 0.2,0.1 0.3,0.2 1.3,0.9 2.7,1.4 4.3,1.4 l 0,0 c 2.3,0 4.5,-1.1 5.9,-3 1.5,-2 1.8,-4.6 0.9,-6.9 0.7,-0.5 1.4,-1.1 1.9,-1.8 2.4,-3.1 1.7,-7.7 -1.6,-10 z m -49.1,18.8 c -0.6,0.3 -1.3,0.4 -1.9,0.4 l 0,0 c -1,0 -1.9,-0.3 -2.7,-0.9 -0.3,-0.2 -0.6,-0.5 -0.8,-0.8 -0.2,-0.3 -0.6,-0.5 -1,-0.5 l 0,0 c -0.4,0 -0.7,0.2 -1,0.5 -0.9,1.1 -2.2,1.7 -3.6,1.7 -1.0000005,0 -1.9000005,-0.3 -2.7000005,-0.9 -2,-1.4 -2.5,-4.2 -1.2,-6.2 0.2,-0.3 0.3,-0.7 0.1,-1.1 -0.1,-0.4 -0.4,-0.7 -0.7,-0.8 -0.4,-0.1 -0.7,-0.3 -1,-0.5 -2.1,-1.5 -2.5,-4.4 -1,-6.5 0.9,-1.2 2.3,-1.9 3.8,-1.9 0.4,0 0.7,0 1.1,0.1 0.1,0 0.2,0 0.3,0 0.3,0 0.5,-0.1 0.8,-0.3 0.3,-0.2 0.5000005,-0.6 0.5000005,-1 0.1,-0.9 0.4,-1.7 0.9,-2.4 0.9,-1.2 2.3,-1.9 3.8,-1.9 1,0 1.9,0.3 2.7,0.9 1.1,0.8 1.8,2.1 1.9,3.4 0,0.4 0.2,0.7 0.5,1 0.2,0.2 0.5,0.2 0.8,0.2 0.1,0 0.2,0 0.3,0 0.4,-0.1 0.7,-0.1 1.1,-0.1 1,0 1.9,0.3 2.7,0.9 1.3,1 2,2.5 1.9,4 0.5,-0.2 1.1,-0.3 1.7,-0.3 0.2,-0.5 0.5,-1 0.8,-1.4 -0.4,-1.7 -1.3,-3.3 -2.8,-4.4 -1.3,-0.9 -2.7,-1.4 -4.3,-1.4 -0.1,0 -0.2,0 -0.4,0 -0.4,-1.6 -1.4,-3 -2.7,-4 -1.3,-0.9 -2.7,-1.4 -4.3,-1.4 -2.3,0 -4.5,1.1 -5.9000005,3 -0.5,0.7 -0.9,1.5 -1.1,2.4 -0.1,0 -0.2,0 -0.4,0 -2.3,0 -4.5,1.1 -5.9,3 -2.4,3.2 -1.59999997,7.8 1.6,10.2 0.1,0.1 0.2,0.1 0.3,0.2 -1.1,3 -0.2,6.5 2.5,8.5 1.3,0.9 2.7,1.4 4.3000005,1.4 1.7,0 3.3,-0.6 4.6,-1.6 0.1,0.1 0.2,0.1 0.3,0.2 1.3,0.9 2.7,1.4 4.3,1.4 0,0 0,0 0,0 1.2,0 2.4,-0.3 3.4,-0.9 -0.7,-0.7 -1.2,-1.5 -1.6,-2.2 z m 28.8,0.2 c 2.4,-3.2 1.6,-7.8 -1.6,-10.2 -1.3,-0.9 -2.7,-1.4 -4.3,-1.4 -0.1,0 -0.2,0 -0.4,0 -0.4,-1.6 -1.4,-3 -2.7,-4 -1.3,-0.9 -2.7,-1.4 -4.3,-1.4 -2.3,0 -4.5,1.1 -5.9,3 -0.5,0.7 -0.9,1.5 -1.1,2.4 -0.1,0 -0.2,0 -0.4,0 -2.3,0 -4.5,1.1 -5.9,3 -2.4,3.2 -1.6,7.8 1.6,10.2 0.1,0.1 0.2,0.1 0.3,0.2 -1.1,3 -0.2,6.5 2.5,8.5 1.2,0.9 2.7,1.4 4.3,1.4 1.7,0 3.3,-0.6 4.6,-1.6 0.1,0.1 0.2,0.1 0.3,0.2 1.3,0.9 2.7,1.4 4.3,1.4 l 0,0 c 2.3,0 4.5,-1.1 5.9,-3 1.5,-2 1.8,-4.6 0.9,-6.9 0.7,-0.4 1.3,-1 1.9,-1.8 z m -2.2,-1.5 c -0.5,0.7 -1.2,1.2 -2,1.6 -0.4,0.1 -0.6,0.4 -0.7,0.8 -0.1,0.4 -0.1,0.8 0.1,1.1 1,1.6 0.9,3.7 -0.2,5.2 -0.9,1.2 -2.3,1.9 -3.8,1.9 l 0,0 c -1,0 -1.9,-0.3 -2.7,-0.9 -0.3,-0.2 -0.6,-0.5 -0.8,-0.8 -0.2,-0.3 -0.6,-0.5 -1,-0.5 l 0,0 c -0.4,0 -0.7,0.2 -1,0.5 -0.9,1 -2.2,1.7 -3.6,1.7 -1,0 -1.9,-0.3 -2.7,-0.9 -2,-1.4 -2.5,-4.2 -1.2,-6.2 0.2,-0.3 0.3,-0.7 0.1,-1.1 -0.2,-0.4 -0.4,-0.7 -0.7,-0.8 -0.3,-0.1 -0.7,-0.3 -1,-0.5 -2.1,-1.5 -2.5,-4.4 -1,-6.5 0.9,-1.2 2.3,-1.9 3.8,-1.9 0.4,0 0.7,0 1.1,0.1 0.1,0 0.2,0 0.3,0 0.3,0 0.5,-0.1 0.8,-0.2 0.3,-0.2 0.5,-0.6 0.5,-1 0.1,-0.9 0.4,-1.7 0.9,-2.4 0.9,-1.2 2.3,-1.9 3.8,-1.9 1,0 1.9,0.3 2.7,0.9 1.1,0.8 1.8,2.1 1.9,3.4 0,0.4 0.2,0.7 0.5,1 0.2,0.2 0.5,0.2 0.8,0.2 0.1,0 0.2,0 0.3,0 0.4,-0.1 0.7,-0.1 1.1,-0.1 1,0 1.9,0.3 2.7,0.9 2.1,1.4 2.6,4.3 1,6.4 z m -6.9,-6.2 c -1.2,-0.9 -2.7,-1.4 -4.2,-1.4 -2.3,0 -4.5,1.1 -5.8,3 -1.1,1.6 -1.6,3.5 -1.3,5.4 0.3,1.9 1.3,3.6 2.9,4.7 1.2,0.9 2.7,1.4 4.2,1.4 2.3,0 4.5,-1.1 5.8,-3 2.4,-3.2 1.7,-7.7 -1.6,-10.1 z m -0.5,8.6 c -0.9,1.2 -2.3,1.9 -3.7,1.9 -1,0 -1.9,-0.3 -2.7,-0.9 -1,-0.7 -1.7,-1.8 -1.8,-3 -0.1,-1.2 0.1,-2.4 0.8,-3.4 0.9,-1.2 2.3,-1.9 3.7,-1.9 1,0 1.9,0.3 2.7,0.9 2.1,1.4 2.5,4.3 1,6.4 z"
     id="path3"
     inkscape:connector-curvature="0" /><text
     style="font-size:5px;font-family:Arial-BoldMT;display:none;enable-background:new"
     id="text5"
     x="-13.404533"
     y="110">Created by Sergey Demushkin</text>
<text
     style="font-size:5px;font-family:Arial-BoldMT;display:none;enable-background:new"
     id="text7"
     x="-13.404533"
     y="115">from the Noun Project</text>
</svg>